<svg width="12" height="16" viewBox="0 0 12 16" fill="none" xmlns="http://www.w3.org/2000/svg">
<path opacity="0.3" d="M6 0C8.4825 0 10.5 2.02667 10.5 4.53333C10.5 7.93143 6 12.9524 6 12.9524C6 12.9524 1.5 7.93143 1.5 4.53333C1.5 2.02667 3.5175 0 6 0ZM6 3.04762C5.60218 3.04762 5.22064 3.20816 4.93934 3.49393C4.65804 3.7797 4.5 4.16729 4.5 4.57143C4.5 4.97557 4.65804 5.36315 4.93934 5.64892C5.22064 5.93469 5.60218 6.09524 6 6.09524C6.39782 6.09524 6.77936 5.93469 7.06066 5.64892C7.34196 5.36315 7.5 4.97557 7.5 4.57143C7.5 4.16729 7.34196 3.7797 7.06066 3.49393C6.77936 3.20816 6.39782 3.04762 6 3.04762ZM12 12.9524C12 14.6362 9.315 16 6 16C2.685 16 0 14.6362 0 12.9524C0 11.9695 0.915 11.0933 2.3325 10.5371L2.8125 11.2305C2.0025 11.5733 1.5 12.0457 1.5 12.5714C1.5 13.6229 3.5175 14.4762 6 14.4762C8.4825 14.4762 10.5 13.6229 10.5 12.5714C10.5 12.0457 9.9975 11.5733 9.1875 11.2305L9.6675 10.5371C11.085 11.0933 12 11.9695 12 12.9524Z" fill="#505056"/>
</svg>
