<svg width="38" height="38" viewBox="0 0 38 38" fill="none" xmlns="http://www.w3.org/2000/svg">
<path d="M13.8884 1.02195C13.7345 1.17589 13.7052 1.26386 13.7052 1.66705V2.13621L13.4046 2.18753C12.8988 2.26816 11.9824 2.65669 11.3813 3.05254C9.89321 4.02019 8.83759 5.61094 8.53704 7.32632C8.47839 7.67819 8.42708 7.97875 8.42708 7.98608C8.42708 7.99341 8.32445 8.04472 8.20716 8.09604C7.70867 8.3013 7.25417 9.04169 7.25417 9.63548C7.25417 10.2293 7.70867 10.9697 8.20716 11.1749L8.42708 11.2629V11.9153V12.5677H8.01656C7.78931 12.5677 7.46676 12.6044 7.29815 12.6557C6.89497 12.773 6.28652 13.3814 6.16923 13.7846C5.96397 14.4737 6.11059 15.0235 6.63106 15.5367C7.05624 15.9618 7.37879 16.0865 8.06787 16.0865H8.53704L8.66899 16.6509C9.07218 18.4323 10.5236 20.2869 12.1511 21.1006C12.5249 21.2912 12.5322 21.2986 12.5322 21.6138V21.9363L10.4283 21.973C8.85225 22.0023 8.1925 22.039 7.81863 22.1269C6.03728 22.5448 4.62979 23.3145 3.39824 24.546C2.38661 25.565 1.67554 26.7086 1.25036 28.0208C0.869166 29.2083 0.839844 29.4796 0.839844 32.3312V34.9702L1.11108 35.5274C1.44096 36.1945 1.86614 36.605 2.54789 36.9275L3.03904 37.1621H15.4645H27.89L28.3811 36.9275C29.0556 36.6123 29.4881 36.1945 29.8106 35.5347C30.0599 35.0289 30.0818 34.9336 30.1112 34.1859C30.1405 33.4455 30.1552 33.3795 30.3018 33.3502C30.4484 33.3135 33.9011 32.6391 35.8804 32.2579C37.2439 31.994 37.1633 32.1406 37.1633 29.9341V28.1747L36.98 27.9988L36.8041 27.8155H33.2047C29.8473 27.8155 29.6054 27.8082 29.5614 27.6836C29.5394 27.6176 29.4074 27.317 29.2755 27.0165C28.3225 24.9199 26.2846 23.1166 24.0414 22.3982C22.9564 22.0463 22.6192 22.0096 20.4713 21.973L18.3968 21.9363V21.6138C18.3968 21.2986 18.4041 21.2912 18.7853 21.1006C20.4054 20.2869 21.8568 18.4323 22.26 16.6509L22.392 16.0865H22.8611C23.5502 16.0865 23.8728 15.9618 24.298 15.5367C25.0164 14.8256 25.0384 13.9093 24.3566 13.1542C23.9827 12.7363 23.5649 12.5677 22.9271 12.5677H22.5019V11.9153V11.2629L22.7219 11.1749C23.2203 10.9697 23.6748 10.2293 23.6748 9.63548C23.6748 9.04169 23.2203 8.3013 22.7219 8.09604C22.6046 8.04472 22.5019 7.99341 22.5019 7.98608C22.5019 7.97875 22.4506 7.68552 22.392 7.34098C22.1647 6.05078 21.549 4.86322 20.596 3.91023C19.7456 3.05254 18.6533 2.42944 17.649 2.21685L17.2239 2.12888V1.66705C17.2239 1.27119 17.1945 1.16856 17.0406 1.02195C16.8647 0.838684 16.85 0.838684 15.4645 0.838684C14.079 0.838684 14.0644 0.838684 13.8884 1.02195ZM16.051 3.77095V5.53031H15.4645H14.8781V3.77095V2.01159H15.4645H16.051V3.77095ZM13.7052 4.83389C13.7052 6.84249 13.5732 6.70321 15.4645 6.70321C17.3558 6.70321 17.2239 6.84249 17.2239 4.83389C17.2239 4.00553 17.2532 3.33111 17.2825 3.33111C17.4511 3.33111 18.2502 3.65366 18.6827 3.89557C19.3131 4.24744 20.2661 5.20043 20.618 5.83086C20.9405 6.40265 21.1604 7.01843 21.2264 7.51692L21.2777 7.87612H15.4645H9.6513L9.70261 7.51692C9.76859 7.01843 9.98851 6.40265 10.3111 5.83086C10.6336 5.24441 11.5866 4.27676 12.195 3.91756C12.5689 3.70497 13.4632 3.33844 13.6538 3.33111C13.6832 3.33111 13.7052 4.00553 13.7052 4.83389ZM22.3187 9.23229C22.436 9.34225 22.5019 9.49619 22.5019 9.63548C22.5019 9.77476 22.436 9.9287 22.3187 10.0387L22.1427 10.2219H15.4645H8.78628L8.61034 10.0387C8.49305 9.9287 8.42708 9.77476 8.42708 9.63548C8.42708 9.49619 8.49305 9.34225 8.61034 9.23229L8.78628 9.04902H15.4645H22.1427L22.3187 9.23229ZM21.3144 13.6453C21.2777 16.0205 21.2704 16.1231 20.8892 17.1274C20.8012 17.362 20.574 17.7945 20.3761 18.0877C18.6314 20.7708 15.1126 21.5625 12.4076 19.8984C11.0881 19.0847 10.2378 17.9338 9.76126 16.3064C9.67329 15.9838 9.64397 15.434 9.61464 13.6453L9.58532 11.3948H15.4645H21.3437L21.3144 13.6453ZM8.42708 14.3271V14.9136H8.02389C7.53274 14.9136 7.25417 14.701 7.25417 14.3271C7.25417 13.9532 7.53274 13.7406 8.02389 13.7406H8.42708V14.3271ZM23.4916 13.9239C23.6089 14.0339 23.6748 14.1878 23.6748 14.3271C23.6748 14.701 23.3963 14.9136 22.9051 14.9136H22.5019V14.3271V13.7406H22.9051C23.2423 13.7406 23.345 13.77 23.4916 13.9239ZM14.3283 21.841C14.6508 21.8997 15.164 21.9437 15.4645 21.9437C15.7651 21.9437 16.2782 21.8997 16.6008 21.841C16.9233 21.7824 17.1945 21.7311 17.2092 21.7311C17.2679 21.7311 17.2092 22.8307 17.1359 23.0799C16.9453 23.7103 16.1389 24.2968 15.4645 24.2968C14.7901 24.2968 13.9837 23.7103 13.7931 23.0799C13.7198 22.8307 13.6612 21.7311 13.7271 21.7311C13.7345 21.7311 14.0057 21.7824 14.3283 21.841ZM12.6056 23.2265C12.6056 23.2778 12.7228 23.5564 12.8621 23.835C13.1773 24.4654 13.6172 24.8906 14.2769 25.1985C14.7241 25.4111 14.8341 25.4331 15.4645 25.4331C16.0949 25.4331 16.2049 25.4111 16.6521 25.1985C17.3118 24.8906 17.7517 24.4654 18.0669 23.835C18.2062 23.5564 18.3235 23.2778 18.3235 23.2265C18.3235 23.1386 18.646 23.1239 20.0755 23.1239C21.0358 23.1239 21.9741 23.1459 22.1647 23.1679L22.5019 23.2192V25.5137V27.8155H16.5201C12.0338 27.8155 10.4577 27.8375 10.2304 27.9035C9.82723 28.0208 9.21879 28.6292 9.1015 29.0324C9.05018 29.2083 9.01353 29.7655 9.01353 30.3373V31.3342H8.42708H7.84062V27.339V23.3438L8.02389 23.2998C8.50771 23.1752 9.12349 23.1386 10.7949 23.1312C12.283 23.1239 12.6056 23.1386 12.6056 23.2265ZM24.7964 23.9742C26.1599 24.6707 27.4355 25.9535 28.1392 27.3537L28.3665 27.8155H26.0207H23.6748V25.653V23.4904L24.0414 23.637C24.2466 23.7177 24.5839 23.8716 24.7964 23.9742ZM6.66772 27.5223V31.3342H6.08127H5.49481V31.9207V32.5071H8.83759C11.2494 32.5071 12.2683 32.5291 12.4883 32.5951C13.1187 32.7857 13.7052 33.5921 13.7052 34.2665C13.7052 34.9409 13.1187 35.7473 12.4883 35.9379C12.0558 36.0625 3.62549 36.0625 3.19299 35.9379C2.7898 35.8206 2.18135 35.2122 2.06406 34.809C1.9541 34.4204 1.93944 30.4472 2.05673 29.6995C2.41594 27.2584 3.95537 25.0885 6.10326 23.9889C6.38915 23.835 6.6384 23.7103 6.65306 23.7103C6.66039 23.7103 6.66772 25.4257 6.66772 27.5223ZM16.051 32.5071V36.0259H15.1859H14.3209L14.5775 35.498C14.8267 35.0069 14.8414 34.9263 14.8414 34.2665C14.8414 33.5994 14.8267 33.5334 14.5702 33.0056C14.2403 32.3385 13.8151 31.928 13.1334 31.6055C12.6495 31.3782 12.6129 31.3709 11.418 31.3489L10.1864 31.3196V30.3373C10.1864 29.3843 10.1938 29.3403 10.3697 29.1717L10.5456 28.9884H13.302H16.051V32.5071ZM35.9904 30.0074V31.0337L35.6092 31.107C34.4509 31.3416 17.3265 34.7063 17.2825 34.7063C17.2459 34.7063 17.2239 33.4161 17.2239 31.8474V28.9884H26.6071H35.9904V30.0074ZM28.9529 34.0539C28.9529 34.3032 28.9163 34.6404 28.865 34.809C28.7477 35.2122 28.1392 35.8206 27.736 35.9379C27.5308 35.9965 26.8124 36.0259 25.5515 36.0259H23.6748V35.3368V34.655L26.2626 34.1419C27.6774 33.856 28.865 33.6214 28.9016 33.6141C28.9309 33.6141 28.9529 33.812 28.9529 34.0539ZM22.5019 35.4761V36.0259H19.8629C18.1549 36.0259 17.2239 35.9965 17.2239 35.9526C17.2239 35.9086 17.2972 35.8792 17.3925 35.8719C17.4804 35.8719 18.58 35.6593 19.8263 35.4101C21.0798 35.1535 22.1867 34.9409 22.304 34.9336L22.5019 34.9263V35.4761Z" fill="#2591B2"/>
</svg>
