<svg width="70" height="70" viewBox="0 0 70 70" fill="none" xmlns="http://www.w3.org/2000/svg">
<path d="M23.9488 1.04494C23.5884 1.12501 22.801 1.41863 22.2004 1.6989C20.1451 2.68651 18.5169 4.82189 18.1432 7.03734C18.0498 7.61122 18.0097 9.86672 18.0364 13.8439C18.0898 20.1699 18.0898 20.0765 18.8105 22.0117C19.6914 24.3739 22.2938 26.9764 24.6561 27.8573C26.2443 28.4578 26.965 28.5913 28.6866 28.5913C31.0089 28.5913 32.6504 28.1108 34.4655 26.923C36.761 25.4416 38.2291 23.373 39.0699 20.5169C39.2301 19.9297 39.2834 18.9287 39.3368 15.6723L39.3902 11.575H41.1786C42.9136 11.575 42.9937 11.5617 43.3006 11.2414C43.5142 11.0412 43.6343 10.7609 43.6343 10.5073C43.6343 10.2538 43.5142 9.97348 43.3006 9.77329C42.9937 9.45299 42.9136 9.43964 41.1919 9.43964H39.4036L39.3235 8.13172C39.2167 6.07642 38.5361 4.51493 37.1748 3.12693C36.3473 2.28613 35.5866 1.80566 34.3053 1.31186C33.4378 0.978207 33.3845 0.978207 29.0203 0.951513C26.5779 0.924822 24.3225 0.978207 23.9488 1.04494ZM34.1852 3.59404C36.0537 4.52827 37.068 6.08977 37.2015 8.25184L37.2682 9.43964H28.6866H20.1051L20.1718 8.25184C20.2519 6.83715 20.719 5.67604 21.5998 4.72846C22.1871 4.08785 23.4016 3.38051 24.229 3.18032C24.5226 3.11358 26.6447 3.0602 28.9669 3.07355L33.1709 3.10024L34.1852 3.59404ZM37.2281 13.5903C37.2281 15.432 37.2148 15.5922 37.0013 15.5255C36.8678 15.4988 34.946 15.0584 32.7305 14.5779L28.6866 13.6837L24.6561 14.5779C22.4273 15.0584 20.5055 15.4988 20.3854 15.5255C20.1585 15.5922 20.1451 15.432 20.1451 13.5903V11.575H28.6866H37.2281V13.5903ZM33.1309 16.8601L37.2281 17.7543V18.3015C37.2281 19.3024 36.8411 20.7038 36.2672 21.8515C34.1052 26.1757 28.6199 27.8039 24.4159 25.3615C23.0813 24.5875 21.76 23.1728 21.0927 21.8382C20.5322 20.6904 20.1451 19.2757 20.1451 18.3148V17.7676L24.3892 16.82C26.7114 16.2995 28.7133 15.8858 28.8201 15.9125C28.9269 15.9392 30.862 16.3663 33.1309 16.8601Z" fill="#1F3F98"/>
<path d="M4.13007 13.8835C3.47611 14.0971 2.35504 15.2449 2.15484 15.9255C1.94131 16.6328 1.94131 19.3288 2.15484 20.0361C2.36838 20.7701 3.47611 21.8779 4.21014 22.0914C4.51711 22.1848 5.10433 22.2516 5.51806 22.2516H6.26545V23.3192V24.3869H4.98422C4.27688 24.3869 3.44942 24.4537 3.14246 24.5471C2.40842 24.7606 1.30069 25.8684 1.08716 26.6024C0.860271 27.4032 0.860271 59.8075 1.08716 60.6083C1.30069 61.3423 2.40842 62.45 3.14246 62.6636C3.47611 62.757 4.51711 62.8237 5.71825 62.8237C7.69348 62.8237 7.76021 62.8104 8.06717 62.4901C8.50759 62.063 8.50759 61.4491 8.06717 61.022C7.76021 60.7017 7.69348 60.6884 5.7316 60.6884C3.76972 60.6884 3.70299 60.675 3.39603 60.3547L3.06238 60.0344V43.6053V27.1763L3.39603 26.856L3.71634 26.5223H7.33313H10.9499L11.2702 26.856C11.4838 27.0562 11.6039 27.3364 11.6039 27.59C11.6039 28.1372 12.1244 28.6577 12.6716 28.6577C13.2321 28.6577 13.7393 28.1372 13.7393 27.5767C13.7393 26.8293 13.4323 26.1086 12.8451 25.4546C12.0843 24.6138 11.4304 24.3869 9.70874 24.3869H8.40082V23.3192V22.2516H9.1749C10.336 22.2516 11.0967 21.9446 11.7774 21.1839C12.5248 20.3564 12.6716 19.8226 12.6716 17.9808C12.6716 16.139 12.5248 15.6052 11.7774 14.7777C10.8965 13.8035 10.4962 13.71 7.27975 13.7234C5.7316 13.7367 4.39699 13.8035 4.13007 13.8835ZM10.2025 16.1791C10.5229 16.486 10.5362 16.5928 10.5362 17.9808C10.5362 19.3688 10.5229 19.4756 10.2025 19.7825C9.88224 20.1162 9.85555 20.1162 7.33313 20.1162C4.81072 20.1162 4.78403 20.1162 4.46372 19.7825C4.14341 19.4756 4.13007 19.3688 4.13007 17.9808C4.13007 16.5928 4.14341 16.486 4.46372 16.1791C4.78403 15.8454 4.81072 15.8454 7.33313 15.8454C9.85555 15.8454 9.88224 15.8454 10.2025 16.1791Z" fill="#1F3F98"/>
<path d="M57.2476 27.8035C55.8062 28.324 54.9253 29.2983 54.4182 30.9265C54.0579 32.0609 53.4439 32.7282 52.6165 32.8617C51.6155 33.0218 51.5087 33.0752 51.3086 33.4622C51.0149 34.0228 51.055 34.2363 51.5221 34.6901C51.8958 35.0771 51.9759 35.0905 52.6432 35.0237C53.564 34.9303 54.4049 34.5566 55.0988 33.916C55.7662 33.3154 56.0064 32.9151 56.4468 31.6071C56.9006 30.2725 57.4611 29.7921 58.5688 29.7921C59.2095 29.7921 59.423 29.8588 59.8367 30.1791C60.3973 30.5928 60.7176 31.2201 60.7176 31.8607C60.7176 32.4213 61.2381 32.9284 61.7986 32.9284C63.4402 32.9284 64.9883 34.4899 64.9883 36.1315C64.9883 37.773 63.4402 39.3345 61.7986 39.3345C61.2381 39.3345 60.7176 39.8417 60.7176 40.4022C60.7176 41.3498 59.9435 42.3107 59.0493 42.4842C57.8081 42.7111 56.8072 41.9904 56.4068 40.5624C55.8729 38.6272 54.4716 37.4127 52.5764 37.2392C51.9225 37.1725 51.7757 37.1992 51.5354 37.4394C51.1217 37.8531 51.0416 38.3336 51.2952 38.7473C51.5488 39.121 51.8691 39.2812 52.6165 39.4013C53.4439 39.5347 54.0579 40.202 54.4182 41.3365C54.7785 42.5109 55.3391 43.3384 56.0865 43.8589C58.422 45.4604 61.4649 44.5529 62.546 41.937C62.6928 41.5767 62.8663 41.3365 62.9997 41.3365C63.1199 41.3365 63.6404 41.1229 64.1475 40.8693C65.2953 40.2955 66.0694 39.4947 66.6299 38.2935C67.0169 37.4794 67.057 37.2792 67.057 36.1315C67.057 34.9837 67.0169 34.7835 66.6299 33.9694C66.0694 32.7683 65.2953 31.9675 64.1475 31.3936C63.6404 31.14 63.1199 30.9265 62.9997 30.9265C62.8663 30.9265 62.6661 30.6329 62.4526 30.1524C62.0522 29.2315 61.2781 28.4308 60.3839 28.0037C59.5164 27.59 58.0884 27.4965 57.2476 27.8035Z" fill="#1F3F98"/>
<path d="M15.9419 29.9259C10.5367 31.2872 9.74931 31.5808 8.80173 32.6218C8.49477 32.9421 8.05435 33.6094 7.82747 34.1032L7.40039 34.9974V46.8755V58.7535L7.82747 59.6477C8.41469 60.8889 9.16208 61.6629 10.3766 62.2635L11.3909 62.7573H24.9505H38.5102L39.5245 62.2635C40.739 61.6629 41.4864 60.8889 42.0736 59.6477C42.474 58.8069 42.5007 58.6467 42.5407 56.9117C42.6074 54.5495 42.4873 54.0423 41.5798 53.1481C40.8724 52.4408 40.2051 52.1472 39.3109 52.1472C39.044 52.1472 38.8305 52.0938 38.8305 52.0271C38.8305 51.7601 43.0879 40.0156 43.3014 39.6952C43.7018 39.0813 44.3691 38.6943 46.4511 37.8668C47.5855 37.4131 48.6132 36.9326 48.7333 36.7724C49.2404 36.1852 48.7733 35.0641 48.0126 35.0641C47.6789 35.0641 44.4092 36.332 43.3815 36.8659C42.5807 37.2663 41.6065 38.2939 41.1927 39.1347C41.0192 39.4951 39.8848 42.578 38.6837 45.9679L36.4949 52.1472H26.512H16.5291L16.2088 52.4808C15.7684 52.9079 15.7684 53.5218 16.2088 53.9489L16.5291 54.2825H24.2165H31.8905V57.4856V60.6887H22.0678C14.7408 60.6887 12.0982 60.6486 11.6845 60.5285C10.9505 60.315 9.84273 59.2073 9.62919 58.4732C9.40231 57.6991 9.40231 36.0651 9.62919 35.3044C9.81604 34.6638 10.6435 33.7028 11.2307 33.4226C11.6578 33.2224 20.0925 31.0603 20.4395 31.0603C20.533 31.0603 21.0134 32.088 21.5473 33.4092C22.4681 35.7448 22.7084 36.1318 23.2823 36.1318C23.4291 36.1318 24.6969 35.6647 26.1116 35.1042L28.6874 34.0765L31.2632 35.1042C32.6779 35.6647 33.9458 36.1318 34.0926 36.1318C34.6665 36.1318 34.9067 35.7448 35.8276 33.4092C36.3481 32.1013 36.8419 31.0603 36.9353 31.0603C37.0288 31.0603 39.0574 31.5541 41.4463 32.1413C46.1308 33.3158 46.1708 33.3292 46.6513 32.6085C46.9049 32.2081 46.8248 31.7143 46.4511 31.3673C46.2776 31.2071 44.3825 30.6733 41.0993 29.8592C36.3348 28.6714 36.0011 28.6046 35.6674 28.7915C35.3872 28.9516 35.1336 29.4454 34.3996 31.2472C33.9058 32.4883 33.4653 33.5293 33.4253 33.5694C33.3853 33.6094 32.3443 33.2491 31.1164 32.7553C29.8886 32.2615 28.7942 31.8611 28.6874 31.8611C28.5673 31.8611 27.4996 32.2481 26.3118 32.7286C25.124 33.209 24.0964 33.5961 24.0296 33.5961C23.9629 33.5961 23.5091 32.5951 23.0287 31.3539C22.5349 30.1261 22.0144 29.0184 21.8542 28.8849C21.7074 28.7648 21.4272 28.658 21.227 28.6714C21.0401 28.6714 18.6645 29.2452 15.9419 29.9259ZM40.0984 54.6162C40.4187 54.9232 40.432 55.0299 40.432 56.4313C40.432 58.3531 40.2852 58.8469 39.4311 59.6877C38.5636 60.5686 38.1098 60.6887 35.841 60.6887H34.0259V57.4856V54.2825H36.8953C39.7781 54.2825 39.7781 54.2825 40.0984 54.6162Z" fill="#1F3F98"/>
<path d="M56.5806 48.0765C53.6979 48.6637 51.2288 50.332 49.6406 52.7743C46.4376 57.659 47.879 64.3854 52.777 67.4283C59.2632 71.4722 67.7113 67.6018 68.9525 60.0079C69.4329 57.0851 68.5788 53.9488 66.6703 51.6399C66.39 51.2929 66.0297 50.9459 65.8695 50.8525C65.2156 50.4788 65.0154 50.5989 62.8666 52.7343L60.7846 54.7896L60.3175 54.4559C58.5558 53.188 56.247 52.761 54.899 53.455C52.7636 54.5627 52.5501 57.4721 54.4319 60.1948L54.8323 60.782L53.3242 62.2767L51.8161 63.7849L51.4023 63.1309C50.8018 62.1967 50.4814 61.3559 50.2279 60.128C49.4805 56.4712 51.3756 52.6275 54.7389 50.9592C56.6073 50.0384 58.3957 49.8115 60.411 50.2252C61.6655 50.4788 61.9991 50.4121 62.2794 49.8115C62.5864 49.1575 62.3461 48.6237 61.5988 48.3568C60.2641 47.8629 58.1955 47.7562 56.5806 48.0765ZM66.2432 54.883C67.8447 58.1795 67.1908 61.9698 64.6016 64.5723C61.7456 67.415 57.3814 67.8955 54.0048 65.7334L53.3509 65.3197L54.859 63.8115L56.3671 62.3034L56.7675 62.6104C57.9286 63.4912 59.8504 64.1052 61.0649 63.985C62.2394 63.8649 63.1736 63.2243 63.7341 62.1566C63.921 61.7963 63.9877 61.4092 63.9744 60.5551C63.9744 59.5808 63.9076 59.2739 63.5473 58.4197C63.3071 57.8725 62.9334 57.1785 62.7198 56.8849L62.3328 56.3511L63.8276 54.843L65.3223 53.3482L65.5626 53.6418C65.6827 53.8153 66.003 54.3625 66.2432 54.883ZM58.1822 55.6971C58.6226 55.8973 59.0363 56.1242 59.103 56.2043C59.1965 56.3244 58.8228 56.7915 57.7951 57.8058L56.3404 59.2472L55.9934 58.6599C55.3394 57.5389 55.0992 56.4979 55.3661 55.8306C55.633 55.1366 56.8075 55.0698 58.1822 55.6971ZM61.4786 59.0603C62.6931 61.6495 61.145 62.7038 58.4758 61.1423L57.8885 60.7953L59.3299 59.3406C60.9715 57.699 60.8514 57.7124 61.4786 59.0603Z" fill="#1F3F98"/>
</svg>
