<svg width="70" height="70" viewBox="0 0 70 70" fill="none" xmlns="http://www.w3.org/2000/svg">
<path d="M51.7283 1.12997C50.9408 1.50366 50.407 2.01081 50.0066 2.75819C49.753 3.252 49.7263 3.53227 49.6863 6.06803L49.6463 8.84402L48.8188 8.80398L47.9913 8.76394L47.9513 7.76299C47.9113 6.65526 47.7911 6.42838 47.2707 6.42838C46.6567 6.42838 46.59 6.62857 46.59 8.31018C46.59 10.2854 46.6033 10.2987 48.4184 10.2987H49.6596V11.3664V12.4341H44.8684C39.6901 12.4341 39.4231 12.4608 38.4889 13.1815C38.2487 13.355 37.8883 13.7954 37.6881 14.1424C37.3678 14.6896 37.3145 14.9165 37.3145 15.8374C37.3145 16.7583 37.3678 16.9851 37.6748 17.5323C38.0752 18.1996 38.9427 18.907 39.5032 19.0405C39.8235 19.1072 39.8903 19.214 40.1038 20.1482C40.4108 21.5228 41.4651 23.6449 42.3726 24.7392C43.8274 26.4876 46.0161 27.8756 48.2583 28.4628C49.3793 28.7698 52.142 28.8899 52.9027 28.6763L53.2631 28.5829V32.9338C53.2631 37.1778 53.2764 37.2979 53.5567 37.8184C53.7168 38.0987 54.0638 38.4724 54.3307 38.6325C54.7845 38.9128 54.958 38.9262 59.3355 38.9929L63.8732 39.0596L64.674 39.4733C65.6616 39.9938 66.6492 41.0215 67.1163 42.0358L67.4767 42.7965L67.5167 48.175C67.5567 54.1808 67.53 54.4477 66.6625 55.7689C65.6082 57.3838 64.1134 58.0778 61.6578 58.0778C60.3765 58.0778 60.1763 58.1045 59.9361 58.3447C59.6025 58.6784 59.6025 58.9453 59.9361 59.279C60.163 59.5059 60.3765 59.5459 61.591 59.5459C63.3661 59.5459 64.1935 59.3857 65.3546 58.8119C67.1163 57.9444 68.5443 56.0759 68.8913 54.1674C68.9714 53.6736 69.0115 51.4048 68.9848 48.0282C68.9447 42.7431 68.9314 42.6497 68.6244 41.8623C67.7836 39.7269 66.1954 38.2589 64.1401 37.725C63.5129 37.5649 62.5119 37.5248 59.3355 37.5248C55.9189 37.5248 55.2783 37.4981 55.0247 37.3113C54.7311 37.1111 54.7311 37.1111 54.7311 32.6802V28.2359L55.5986 27.8622C56.9599 27.275 58.041 26.5143 59.1353 25.3799C60.1096 24.3922 60.8436 23.3246 61.1639 22.4704C61.2974 22.1101 61.2841 22.0166 61.0705 21.7897C60.9371 21.6296 60.6968 21.5095 60.5233 21.5095C60.203 21.5095 60.0963 21.6296 59.2955 22.8841C57.9742 24.9127 55.9323 26.4075 53.5033 27.0615C52.182 27.4352 49.7397 27.3951 48.4585 26.9947C46.1362 26.274 44.161 24.846 42.9065 22.9509C42.2926 22.03 41.6252 20.5219 41.4784 19.6677L41.3984 19.2406H51.7016C58.388 19.2406 62.1783 19.1873 62.4986 19.1072C63.2459 18.8936 64.1001 18.1863 64.5138 17.3989C65.4881 15.5972 64.5672 13.3016 62.6187 12.6343C62.1249 12.4742 61.1106 12.4341 56.5729 12.4341H51.1277V8.12333C51.1277 3.39881 51.1544 3.23866 51.9685 2.63808C52.489 2.25104 53.6367 2.25104 54.1439 2.62473C54.7845 3.10519 54.998 3.69242 54.998 4.987C54.998 6.09472 55.0114 6.16145 55.3317 6.37499C55.7721 6.66861 56.2926 6.45507 56.4127 5.94791C56.5729 5.34734 56.386 3.31873 56.1325 2.82492C55.2917 1.15666 53.2897 0.382587 51.7283 1.12997ZM62.5519 14.2492C63.1926 14.7163 63.4328 15.1434 63.4328 15.8107C63.4328 16.5714 63.1125 17.132 62.4719 17.4923C61.9781 17.7726 61.8846 17.7726 51.0476 17.7726C40.3707 17.7726 40.1038 17.7592 39.6767 17.5056C39.4365 17.3588 39.1295 17.0519 38.9827 16.8116C38.4489 15.9308 38.7692 14.7297 39.6767 14.1691C40.1038 13.9022 40.3307 13.9022 51.1544 13.9289C62.0581 13.9689 62.1916 13.9689 62.5519 14.2492Z" fill="#1F3F98"/>
<path d="M20.2581 1.19677C20.0713 1.41031 20.0312 1.77065 20.0312 3.39888V5.36075H18.9102H17.7891L17.749 4.21299C17.709 3.26541 17.6556 3.03853 17.4421 2.87838C17.2285 2.71822 16.1475 2.69153 11.1561 2.69153C4.08263 2.69153 4.6832 2.54472 4.6832 4.26637V5.36075H3.10836C1.33333 5.36075 0.946289 5.50756 0.946289 6.14817C0.946289 6.76209 1.13313 6.82882 2.9749 6.82882H4.6832V12.4208C4.6832 17.3322 4.70989 18.0396 4.89674 18.2264C5.08358 18.4132 5.83097 18.4399 11.2228 18.4399H17.3487L17.5489 18.1463C17.7224 17.9061 17.7624 17.4123 17.7624 15.5572C17.7624 13.5019 17.7357 13.235 17.5088 12.9547L17.2552 12.6344L11.7033 12.5943L6.15127 12.5543V8.36363V4.1596H11.2228H16.2943V7.0824C16.2943 9.56478 16.321 10.0452 16.5079 10.2187C16.7881 10.5124 17.1752 10.4857 17.4955 10.1654C17.7357 9.92512 17.7624 9.72493 17.7624 8.36363V6.82882H19.404C20.832 6.82882 21.0856 6.80213 21.2724 6.5886C21.5927 6.22825 21.6061 1.70392 21.2858 1.25015C21.0455 0.889807 20.5517 0.863113 20.2581 1.19677ZM16.2676 15.5305L16.3077 16.9719H11.2228H6.15127V15.5038V14.0357L11.1961 14.0624L16.2276 14.1025L16.2676 15.5305Z" fill="#1F3F98"/>
<path d="M59.963 5.18754C59.6827 5.29431 59.3891 6.00165 59.4825 6.362C59.5893 6.77572 60.1365 7.22949 60.5502 7.22949C61.4177 7.22949 61.8982 5.9883 61.2709 5.36104C61.0173 5.10746 60.3767 5.01404 59.963 5.18754Z" fill="#1F3F98"/>
<path d="M55.6122 8.44372C54.8915 9.00426 55.3319 10.2988 56.2528 10.2988C56.7733 10.2988 57.0669 10.0986 57.2671 9.63152C57.6942 8.60387 56.5064 7.74972 55.6122 8.44372Z" fill="#1F3F98"/>
<path d="M25.9171 16.8519C23.5015 17.1321 20.939 18.2132 19.6445 19.4944C18.3232 20.8023 18.0429 21.83 18.0296 25.3266V27.3286L17.5758 27.5421C15.4004 28.5831 14.7331 31.3591 16.2012 33.2676C16.7083 33.9215 17.7627 34.5622 18.5768 34.6956L19.164 34.8024L19.2574 35.6432C19.4576 37.4716 20.2184 39.0198 21.593 40.4611L22.5673 41.4621V42.7567V44.0379L20.6054 44.812C17.1354 46.1599 15.8008 46.974 14.4662 48.5889C13.7855 49.4297 12.5577 51.6185 12.5577 52.0189C12.5577 52.1657 12.1573 52.2057 10.3956 52.2057C7.69971 52.2057 6.73878 52.3525 5.55098 52.9397C3.89606 53.7405 2.85507 54.9016 2.17442 56.69L1.82742 57.6109L1.77403 62.6424L1.72065 67.6605L1.40034 67.7406C0.906535 67.874 0.71969 68.3945 0.999958 68.8216L1.2135 69.1553H31.5092C61.6313 69.1553 61.8048 69.1553 62.0718 68.8884C62.4054 68.5547 62.4054 68.2878 62.0718 67.9541C61.8048 67.6872 61.6313 67.6872 52.3958 67.6872H42.9868V63.6166V59.5461H46.3901H49.7933V59.9198C49.7933 60.12 49.8868 60.4269 50.0069 60.5871C50.2071 60.8807 50.2604 60.8807 53.25 60.8807C55.4654 60.8807 56.3463 60.8406 56.5064 60.7205C56.7066 60.5604 56.7333 60.1466 56.76 57.1438L56.8 53.7405L59.2958 53.6738C62.0584 53.5937 62.1919 53.5537 62.8458 52.6061C63.1261 52.179 63.1394 52.0856 63.1394 48.5756C63.1394 44.5184 63.0861 44.2514 62.1118 43.6509C61.618 43.3305 61.5379 43.3305 57.067 43.2638L52.5293 43.1971L51.7152 42.77C50.6742 42.2362 49.6465 41.1017 49.2461 40.0874C48.9792 39.4201 48.9392 39.0198 48.8858 36.9511C48.8324 34.7223 48.8191 34.5755 48.5521 34.3887C48.1651 34.1217 47.9783 34.1351 47.658 34.4554C47.4177 34.6956 47.391 34.8958 47.391 36.7509C47.391 38.9797 47.5645 40.0341 48.1117 41.1017C48.9258 42.7166 50.3806 43.9578 52.0221 44.465C52.8096 44.7052 53.2633 44.7319 56.9869 44.7319C60.4702 44.7319 61.1242 44.7586 61.3778 44.9454C61.6714 45.1456 61.6714 45.1857 61.6714 48.5222C61.6714 50.9645 61.6313 51.9254 61.5112 52.0456C61.4044 52.1523 60.6571 52.2057 59.0422 52.2057H56.7333V51.5384C56.7333 51.0313 56.6799 50.8444 56.4797 50.7376C56.3196 50.6576 55.0517 50.6042 53.2767 50.6042C50.5007 50.6042 50.3138 50.6175 50.0603 50.8711C49.8868 51.0446 49.7933 51.3115 49.7933 51.6719V52.2057L46.1765 52.179L42.5731 52.139L42.2528 51.3649C41.7857 50.1904 41.1451 49.2028 40.1975 48.1885C38.9563 46.8272 37.7151 46.0798 34.8857 44.9721L32.4434 44.0112V42.7567V41.5021L33.3109 40.6346C34.7256 39.2333 35.5931 37.4583 35.8333 35.483C35.9267 34.8157 35.9668 34.7223 36.2337 34.7223C37.4348 34.7223 39.023 33.4811 39.4501 32.1999C39.7437 31.3057 39.6636 30.0779 39.2766 29.3038C38.9563 28.6765 38.0221 27.7823 37.4215 27.5288L37.0078 27.3553L36.9544 24.5926L36.9143 21.8433L36.4873 20.9625C35.8867 19.7346 35.0058 18.9605 33.3376 18.1731C31.7627 17.4257 30.3481 17.012 28.6397 16.8385C27.2918 16.6917 27.2918 16.6917 25.9171 16.8519ZM29.3204 18.3466C29.3738 18.3867 30.0411 24.259 30.0411 24.5926C30.0411 24.6593 30.1879 24.8061 30.3614 24.9129C30.7351 25.1665 31.309 25.0063 31.4291 24.6193C31.4691 24.4858 31.3624 23.1379 31.2022 21.6031C31.0287 20.0816 30.9486 18.8404 31.002 18.8404C31.2823 18.8404 33.2442 19.6812 33.8047 20.0282C35.1793 20.9091 35.513 21.7899 35.513 24.606V26.5812L27.5454 26.5545L19.5644 26.5144V24.5793C19.5644 23.5116 19.6044 22.4305 19.6712 22.1636C19.8313 21.3895 20.512 20.4953 21.3394 19.9749C22.1002 19.4944 24.022 18.6402 24.1154 18.747C24.1421 18.7737 24.0353 19.9749 23.8885 21.4296C23.6083 23.952 23.6083 24.0588 23.8351 24.3123C24.1555 24.6727 24.6493 24.646 24.8895 24.2723C25.0096 24.0855 25.1965 22.9377 25.3833 21.1493L25.6769 18.3199L26.1574 18.2666C26.6779 18.1998 29.2403 18.2666 29.3204 18.3466ZM34.7122 28.116C34.7122 28.3028 33.1908 30.3448 32.7904 30.6918C31.8695 31.4925 31.5759 31.5326 27.2918 31.4925L23.4081 31.4525L22.7541 31.0521C22.1802 30.6918 21.0058 29.3038 20.4185 28.2761C20.2984 28.0626 20.6721 28.0493 27.5053 28.0493C31.4691 28.0493 34.7122 28.0759 34.7122 28.116ZM19.0973 28.9701C19.164 29.1169 19.2307 30.1179 19.2307 31.239C19.2307 33.1475 19.2174 33.2542 18.9772 33.2542C17.8961 33.2542 16.8284 32.0664 16.8284 30.8653C16.8284 30.278 17.3222 29.4639 17.9228 29.0769C18.5901 28.6498 18.8971 28.6231 19.0973 28.9701ZM37.2613 29.1303C38.1555 29.7576 38.4358 31.1322 37.8753 32.1198C37.555 32.6804 36.7275 33.2542 36.2203 33.2542C35.9134 33.2542 35.9134 33.2409 35.9134 31.0788C35.9134 29.8777 35.9534 28.85 36.0068 28.7966C36.167 28.6365 36.8209 28.8233 37.2613 29.1303ZM21.2327 31.7061C21.4862 31.9597 22.0334 32.3334 22.4338 32.5469L23.1678 32.9206H27.4386C32.2966 32.9206 32.4167 32.8939 33.7246 31.8395L34.4453 31.2523V33.2142C34.4453 36.4173 33.9515 37.912 32.39 39.4735C29.6807 42.1828 25.3833 42.1961 22.7007 39.5269C21.8332 38.6594 21.3661 37.8987 20.9657 36.7242C20.7255 36.0169 20.6588 35.4296 20.6054 33.5612C20.552 32.2933 20.5787 31.2523 20.6454 31.2523C20.6988 31.2523 20.9657 31.4525 21.2327 31.7061ZM25.0096 42.6232C25.6769 42.8634 26.144 42.9168 27.4386 42.9168C28.9334 42.9302 29.6407 42.81 30.7885 42.3696C31.1221 42.2495 31.0154 45.1189 30.6417 45.8663C29.267 48.6423 25.1164 48.322 24.2355 45.3458C24.0487 44.7319 23.9419 42.3296 24.1021 42.3296C24.1421 42.3296 24.5558 42.4631 25.0096 42.6232ZM23.0744 46.4002C23.5682 47.4412 24.4357 48.322 25.4767 48.8291C26.144 49.1628 26.3843 49.2028 27.5053 49.2028C28.5997 49.2028 28.88 49.1495 29.5339 48.8425C30.6016 48.3487 31.4424 47.5212 31.9496 46.4535L32.39 45.5593L33.5111 45.9998L34.6455 46.4268L34.6855 47.8148C34.7256 49.2963 34.8323 49.5365 35.4596 49.5365C35.9534 49.5365 36.1803 49.056 36.1803 48.0284C36.1803 46.974 36.1403 46.9874 37.3681 47.7081C38.9696 48.6556 40.4911 50.5908 41.105 52.4326C41.5588 53.7806 41.6522 55.3287 41.6522 61.6414V67.6872H40.3309H38.9963L38.9563 61.9083L38.9163 56.1428L38.5426 55.5155C38.1555 54.8349 37.7018 54.4746 36.9944 54.2343C36.6741 54.1142 33.9648 54.0742 27.4786 54.0742C17.5892 54.0742 17.8961 54.0475 17.0553 54.8482C16.8418 55.0484 16.5615 55.4355 16.4147 55.7024C16.1745 56.1695 16.1611 56.5565 16.1611 61.9484V67.6872H14.8265H13.4786L13.5186 60.5737L13.572 53.4736L13.919 52.4993C14.4128 51.1514 14.9867 50.2038 15.8809 49.2429C16.6149 48.4421 18.4166 47.1342 18.777 47.1342C18.9238 47.1342 18.9638 47.3878 18.9638 48.1752C18.9638 49.3096 19.0706 49.5365 19.6445 49.5365C20.2184 49.5365 20.3652 49.2295 20.4319 47.7615L20.4986 46.4135L21.5663 45.9864C22.1535 45.7462 22.6473 45.5593 22.6607 45.546C22.6607 45.5327 22.8609 45.9197 23.0744 46.4002ZM55.3987 55.7424V59.4126H53.3301H51.2614V55.7424V52.0723H53.3301H55.3987V55.7424ZM12.1039 53.9674C12.0639 54.1409 12.0238 55.1285 12.0238 56.1695V58.078H10.7159C9.07435 58.078 8.40705 58.3716 7.92659 59.2792C7.63297 59.8263 7.61963 59.9998 7.61963 62.4422C7.61963 64.8445 7.63297 65.0313 7.88655 65.2849C8.20686 65.6052 8.51382 65.6186 8.84747 65.3249C9.06101 65.1381 9.0877 64.8578 9.0877 62.5756C9.0877 59.426 9.02097 59.5461 10.7827 59.5461H12.0238V63.6166V67.6872H7.60628H3.18872L3.2421 62.7091C3.29549 57.9045 3.29549 57.7177 3.60245 56.9836C3.94945 56.0894 4.99044 54.8883 5.80456 54.4078C6.76548 53.8473 7.64632 53.6871 10.0086 53.6871L12.184 53.6738L12.1039 53.9674ZM49.7933 55.8759V58.078H46.3901H42.9868V55.8759V53.6738H46.3901H49.7933V55.8759ZM37.0078 55.9293L37.4482 56.3163L37.4882 62.0018L37.5283 67.6872H27.5721H17.6292V62.0018V56.3163L18.0162 55.9293L18.4033 55.5422H27.492H36.5807L37.0078 55.9293Z" fill="#1F3F98"/>
<path d="M18.9642 51.0311C18.8174 51.1913 18.6973 51.4582 18.6973 51.6317C18.6973 52.0187 19.2578 52.606 19.6048 52.606C20.0452 52.606 20.5657 52.0988 20.5657 51.6584C20.5657 50.8309 19.5247 50.4305 18.9642 51.0311Z" fill="#1F3F98"/>
<path d="M34.7926 50.9512C33.9785 51.7653 34.9795 53.0599 35.887 52.3792C36.3541 52.0322 36.4342 51.3916 36.0605 51.0179C35.7269 50.6843 35.0863 50.6576 34.7926 50.9512Z" fill="#1F3F98"/>
<path d="M20.7256 58.6385C20.6055 58.7586 20.5654 59.586 20.5654 61.5613C20.5654 63.8968 20.5921 64.3639 20.779 64.5374C20.9658 64.7243 21.7532 64.751 27.5188 64.751C33.8715 64.751 34.0583 64.7376 34.3119 64.4841C34.5655 64.2305 34.5788 64.0436 34.5788 61.6413C34.5788 59.5326 34.5388 59.0121 34.3653 58.7719L34.1651 58.4783H27.5188C22.5407 58.4783 20.8457 58.5183 20.7256 58.6385ZM33.1108 61.6146V63.2829H27.5721H22.0335V61.6146V59.9464H27.5721H33.1108V61.6146Z" fill="#1F3F98"/>
<path d="M64.3672 27.0214C63.1793 27.4752 62.4453 28.5296 62.4453 29.7841C62.4453 32.8404 66.5426 33.8013 67.8772 31.0653C68.3443 30.1177 68.3043 29.1969 67.7704 28.276C67.1165 27.1816 65.5149 26.581 64.3672 27.0214ZM66.3824 28.8499C67.4234 30.011 66.0488 31.7994 64.6741 31.052C63.2594 30.3046 63.9 28.1826 65.4749 28.3694C65.8486 28.4094 66.1155 28.5563 66.3824 28.8499Z" fill="#1F3F98"/>
<path d="M47.4839 30.8254C46.9634 31.3993 47.3905 32.4536 48.1245 32.4536C48.5249 32.4536 49.1255 31.9064 49.1255 31.5461C49.1255 31.3993 49.0054 31.1323 48.8452 30.9322C48.5115 30.5051 47.8176 30.4517 47.4839 30.8254Z" fill="#1F3F98"/>
<path d="M7.08569 38.3123C6.40504 38.5258 5.92458 38.8595 5.37739 39.4334C3.28205 41.7156 4.95032 45.4258 8.08665 45.4258C10.5156 45.4258 12.2506 43.1436 11.57 40.8347C11.3164 39.9672 10.5023 38.9796 9.70153 38.5659C9.1143 38.2589 7.65958 38.1255 7.08569 38.3123ZM9.03423 39.8738C9.59476 40.1407 9.96845 40.6078 10.1686 41.2618C10.3822 41.9825 10.222 42.6631 9.67484 43.2504C8.794 44.238 7.37931 44.238 6.49847 43.2504C4.91028 41.502 6.8855 38.8595 9.03423 39.8738Z" fill="#1F3F98"/>
<path d="M65.6751 67.9541C65.5283 68.1009 65.4082 68.3145 65.4082 68.4212C65.4082 68.528 65.5283 68.7415 65.6751 68.8884C65.902 69.1152 66.1155 69.1553 67.33 69.1553C68.6246 69.1553 68.7447 69.1286 68.9316 68.8617C69.2118 68.4613 69.1985 68.2744 68.8782 67.9541C68.6513 67.7272 68.4378 67.6872 67.2767 67.6872C66.1155 67.6872 65.902 67.7272 65.6751 67.9541Z" fill="#1F3F98"/>
</svg>
