<svg width="25" height="25" viewBox="0 0 25 25" fill="none" xmlns="http://www.w3.org/2000/svg">
<path d="M12.0684 0C5.41441 0 0 5.4129 0 12.0676C0 18.7224 5.41441 24.1353 12.0684 24.1353C18.7224 24.1353 24.1368 18.7224 24.1368 12.0676C24.1368 5.4129 18.7224 0 12.0684 0ZM12.0684 23.3315C5.85771 23.3315 0.805312 18.2783 0.805312 12.0676C0.805312 5.85695 5.85771 0.803807 12.0684 0.803807C18.2791 0.803807 23.3315 5.85695 23.3315 12.0676C23.3315 18.2783 18.2791 23.3315 12.0684 23.3315Z" fill="white"/>
<path d="M14.703 5.29399H12.695C10.1376 5.2684 9.81094 6.85117 9.81094 8.56416V9.80976H8.682C8.63097 9.80294 8.57906 9.80798 8.5303 9.82448C8.48153 9.84098 8.43723 9.8685 8.40083 9.9049C8.36443 9.9413 8.33691 9.98561 8.32041 10.0344C8.30391 10.0831 8.29887 10.135 8.30568 10.1861V12.444C8.29887 12.495 8.30391 12.5469 8.32041 12.5957C8.33691 12.6444 8.36443 12.6887 8.40083 12.7251C8.43723 12.7615 8.48153 12.789 8.5303 12.8055C8.57906 12.822 8.63097 12.8271 8.682 12.8203H9.81094V18.465C9.80467 18.5161 9.81016 18.568 9.82701 18.6166C9.84385 18.6653 9.87159 18.7095 9.90812 18.7458C9.94464 18.7821 9.98899 18.8096 10.0378 18.8261C10.0865 18.8427 10.1384 18.8479 10.1895 18.8413H12.4888C12.7108 18.8669 12.8907 18.687 12.8199 18.465L12.8215 12.8203H14.703C14.754 12.8271 14.806 12.822 14.8547 12.8055C14.9035 12.789 14.9478 12.7615 14.9842 12.7251C15.0206 12.6887 15.0481 12.6444 15.0646 12.5957C15.0811 12.5469 15.0862 12.495 15.0793 12.444V10.1861C15.0862 10.135 15.0811 10.0831 15.0646 10.0344C15.0481 9.98561 15.0206 9.9413 14.9842 9.9049C14.9478 9.8685 14.9035 9.84098 14.8547 9.82448C14.806 9.80798 14.754 9.80294 14.703 9.80976H12.8192L12.8215 8.68081C12.8945 8.19988 12.8945 8.27816 13.3408 8.3045H14.6872C14.7918 8.28117 14.9032 8.29396 14.9815 8.21795C15.0598 8.14193 15.1049 8.03807 15.0786 7.92818V5.6703C15.0855 5.61931 15.0806 5.56741 15.0642 5.51864C15.0478 5.46987 15.0204 5.42555 14.984 5.38913C14.9477 5.35271 14.9034 5.32517 14.8547 5.30867C14.8059 5.29217 14.754 5.28714 14.703 5.29399ZM14.3004 7.50972L13.3566 7.4736C12.1877 7.4736 12.0899 8.10806 12.0899 8.75758L12.0869 10.1846C12.0868 10.2374 12.0971 10.2897 12.1173 10.3386C12.1374 10.3874 12.167 10.4318 12.2043 10.4692C12.2417 10.5066 12.286 10.5363 12.3348 10.5566C12.3836 10.5768 12.4359 10.5872 12.4888 10.5872H14.3267V12.0413H12.4903C12.3836 12.0413 12.2813 12.0836 12.2058 12.159C12.1304 12.2343 12.0878 12.3365 12.0876 12.4432L12.0869 18.0887H10.5636V12.444C10.5636 12.2219 10.4123 12.0421 10.1895 12.0421H9.05831V10.588H10.1895C10.2423 10.5881 10.2946 10.5777 10.3434 10.5576C10.3923 10.5374 10.4366 10.5079 10.474 10.4706C10.5493 10.3945 10.5628 10.2922 10.5628 10.1853V8.5634C10.5628 6.87601 10.9038 6.0722 12.6943 6.0722H14.2996V7.50972H14.3004Z" fill="white"/>
</svg>
