<svg width="25" height="25" viewBox="0 0 25 25" fill="none" xmlns="http://www.w3.org/2000/svg">
<circle cx="12.9581" cy="12.0677" r="11.612" stroke="white" strokeWidth="0.860147"/>
<path d="M12.9574 7.25073C11.6503 7.25073 11.4859 7.25675 10.9723 7.27963C10.4587 7.30372 10.1089 7.3844 9.80243 7.50362C9.48096 7.62453 9.18978 7.8142 8.94925 8.05936C8.70424 8.30001 8.5146 8.59116 8.39351 8.91254C8.27429 9.2184 8.19301 9.56883 8.16953 10.0806C8.14665 10.5954 8.14062 10.7592 8.14062 12.0682C8.14062 13.3759 8.14665 13.5397 8.16953 14.0533C8.19361 14.5663 8.27429 14.9161 8.39351 15.2226C8.51694 15.5393 8.68131 15.8078 8.94925 16.0758C9.21658 16.3437 9.48512 16.5087 9.80183 16.6315C10.1089 16.7507 10.4581 16.832 10.9711 16.8555C11.4853 16.8784 11.6491 16.8844 12.9574 16.8844C14.2658 16.8844 14.429 16.8784 14.9432 16.8555C15.4556 16.8314 15.8066 16.7507 16.1131 16.6315C16.4343 16.5105 16.7253 16.3209 16.9656 16.0758C17.2336 15.8078 17.398 15.5393 17.5214 15.2226C17.64 14.9161 17.7213 14.5663 17.7454 14.0533C17.7682 13.5397 17.7743 13.3759 17.7743 12.0676C17.7743 10.7592 17.7682 10.5954 17.7454 10.0812C17.7213 9.56883 17.64 9.2184 17.5214 8.91254C17.4003 8.59115 17.2107 8.3 16.9656 8.05936C16.7252 7.81411 16.434 7.62442 16.1125 7.50362C15.8054 7.3844 15.455 7.30312 14.9426 7.27963C14.4284 7.25675 14.2652 7.25073 12.9562 7.25073H12.958H12.9574ZM12.5257 8.11896H12.958C14.2441 8.11896 14.3965 8.12318 14.904 8.14666C15.3737 8.16773 15.629 8.24661 15.7988 8.31224C16.0234 8.39954 16.1841 8.50431 16.3527 8.6729C16.5213 8.84149 16.6255 9.00165 16.7128 9.22683C16.779 9.39602 16.8573 9.65132 16.8783 10.121C16.9018 10.6285 16.9066 10.7809 16.9066 12.0663C16.9066 13.3518 16.9018 13.5048 16.8783 14.0123C16.8573 14.482 16.7784 14.7367 16.7128 14.9065C16.6355 15.1156 16.5123 15.3047 16.3521 15.4598C16.1835 15.6284 16.0234 15.7326 15.7982 15.8199C15.6296 15.8861 15.3743 15.9644 14.904 15.986C14.3965 16.0089 14.2441 16.0143 12.958 16.0143C11.672 16.0143 11.519 16.0089 11.0115 15.986C10.5418 15.9644 10.2871 15.8861 10.1173 15.8199C9.9081 15.7427 9.71881 15.6197 9.56339 15.4598C9.40308 15.3045 9.27964 15.1152 9.20213 14.9059C9.1365 14.7367 9.05763 14.4814 9.03655 14.0117C9.01367 13.5042 9.00886 13.3518 9.00886 12.0651C9.00886 10.7791 9.01367 10.6273 9.03655 10.1198C9.05823 9.65011 9.1365 9.39482 9.20273 9.22503C9.29004 9.00044 9.3948 8.83968 9.56339 8.67109C9.73198 8.5025 9.89214 8.39834 10.1173 8.31104C10.2871 8.2448 10.5418 8.16653 11.0115 8.14485C11.4558 8.12438 11.628 8.11836 12.5257 8.11776V8.11896ZM15.529 8.91856C15.4531 8.91856 15.378 8.93351 15.3078 8.96256C15.2377 8.9916 15.174 9.03418 15.1203 9.08785C15.0666 9.14153 15.0241 9.20525 14.995 9.27538C14.966 9.34551 14.951 9.42067 14.951 9.49658C14.951 9.57248 14.966 9.64764 14.995 9.71777C15.0241 9.7879 15.0666 9.85162 15.1203 9.9053C15.174 9.95897 15.2377 10.0015 15.3078 10.0306C15.378 10.0596 15.4531 10.0746 15.529 10.0746C15.6823 10.0746 15.8293 10.0137 15.9377 9.9053C16.0461 9.7969 16.107 9.64988 16.107 9.49658C16.107 9.34328 16.0461 9.19625 15.9377 9.08785C15.8293 8.97946 15.6823 8.91856 15.529 8.91856ZM12.958 9.59412C12.6299 9.589 12.3041 9.6492 11.9995 9.77122C11.6949 9.89324 11.4176 10.0746 11.1837 10.3049C10.9499 10.5351 10.7642 10.8095 10.6374 11.1122C10.5107 11.4148 10.4454 11.7397 10.4454 12.0679C10.4454 12.396 10.5107 12.7209 10.6374 13.0235C10.7642 13.3262 10.9499 13.6006 11.1837 13.8309C11.4176 14.0611 11.6949 14.2425 11.9995 14.3645C12.3041 14.4865 12.6299 14.5467 12.958 14.5416C13.6074 14.5315 14.2268 14.2664 14.6825 13.8036C15.1381 13.3408 15.3935 12.7173 15.3935 12.0679C15.3935 11.4184 15.1381 10.795 14.6825 10.3321C14.2268 9.86933 13.6074 9.60425 12.958 9.59412ZM12.958 10.4617C13.3839 10.4617 13.7924 10.6309 14.0935 10.9321C14.3947 11.2332 14.5639 11.6417 14.5639 12.0676C14.5639 12.4934 14.3947 12.9019 14.0935 13.203C13.7924 13.5042 13.3839 13.6734 12.958 13.6734C12.5322 13.6734 12.1237 13.5042 11.8226 13.203C11.5214 12.9019 11.3522 12.4934 11.3522 12.0676C11.3522 11.6417 11.5214 11.2332 11.8226 10.9321C12.1237 10.6309 12.5322 10.4617 12.958 10.4617Z" fill="white"/>
</svg>
