<svg width="25" height="25" viewBox="0 0 25 25" fill="none" xmlns="http://www.w3.org/2000/svg">
<path fill-rule="evenodd" clip-rule="evenodd" d="M25 12.5C25 19.4036 19.4036 25 12.5 25C5.59644 25 0 19.4036 0 12.5C0 5.59644 5.59644 0 12.5 0C19.4036 0 25 5.59644 25 12.5ZM12.5 10C11.837 10 11.2011 10.2634 10.7322 10.7322C10.2634 11.2011 10 11.837 10 12.5C10 13.163 10.2634 13.7989 10.7322 14.2678C11.2011 14.7366 11.837 15 12.5 15C13.163 15 13.7989 14.7366 14.2678 14.2678C14.7366 13.7989 15 13.163 15 12.5C15 11.837 14.7366 11.2011 14.2678 10.7322C13.7989 10.2634 13.163 10 12.5 10ZM6.31802 6.31802C7.16193 5.47411 8.30653 5 9.5 5H15.5C16.6935 5 17.8381 5.47411 18.682 6.31802C19.5259 7.16193 20 8.30653 20 9.5V15.5C20 16.6935 19.5259 17.8381 18.682 18.682C17.8381 19.5259 16.6935 20 15.5 20H9.5C8.30653 20 7.16193 19.5259 6.31802 18.682C5.47411 17.8381 5 16.6935 5 15.5V9.5C5 8.30653 5.47411 7.16193 6.31802 6.31802ZM10.0251 10.0251C9.36875 10.6815 9 11.5717 9 12.5C9 13.4283 9.36875 14.3185 10.0251 14.9749C10.6815 15.6313 11.5717 16 12.5 16C13.4283 16 14.3185 15.6313 14.9749 14.9749C15.6313 14.3185 16 13.4283 16 12.5C16 11.5717 15.6313 10.6815 14.9749 10.0251C14.3185 9.36875 13.4283 9 12.5 9C11.5717 9 10.6815 9.36875 10.0251 10.0251ZM17 9H16V8H17V9Z" fill="white"/>
</svg>
