<svg width="45" height="29" viewBox="0 0 45 29" fill="none" xmlns="http://www.w3.org/2000/svg">
<path d="M22.4996 25.98C25.8887 25.98 28.636 20.8402 28.636 14.5C28.636 8.15979 25.8887 3.02002 22.4996 3.02002C19.1106 3.02002 16.3633 8.15979 16.3633 14.5C16.3633 20.8402 19.1106 25.98 22.4996 25.98Z" fill="#ED1B26"/>
<path d="M13.2955 14.5C13.2955 12.56 13.7659 6.18 19.4932 1.5C17.8977 0.88 16.1591 0.5 14.3182 0.5C6.42273 0.5 0 6.78 0 14.5C0 22.22 6.42273 28.5 14.3182 28.5C16.1591 28.5 17.8977 28.12 19.4932 27.5C13.7659 22.82 13.2955 16.44 13.2955 14.5ZM30.6818 0.5C28.8409 0.5 27.1023 0.88 25.5068 1.5C26.7545 2.52 27.7568 3.64 28.5545 4.76C29.2295 4.6 29.9455 4.5 30.6818 4.5C36.3273 4.5 40.9091 8.98 40.9091 14.5C40.9091 20.02 36.3273 24.5 30.6818 24.5C29.9455 24.5 29.2295 24.4 28.5545 24.24C27.7568 25.36 26.7545 26.48 25.5068 27.5C27.1023 28.12 28.8409 28.5 30.6818 28.5C38.5773 28.5 45 22.22 45 14.5C45 6.78 38.5773 0.5 30.6818 0.5Z" fill="#ED1B26"/>
</svg>
