<svg width="25" height="25" viewBox="0 0 25 25" fill="none" xmlns="http://www.w3.org/2000/svg">
<path d="M15.1719 9.02092C14.6616 9.02092 14.2838 9.14961 13.988 9.31218C13.9406 9.14359 13.7848 9.02016 13.6012 9.05704H11.3553C11.1333 9.02016 10.9534 9.20004 11.0219 9.43336V17.7123C10.9534 17.923 11.1333 18.1036 11.3553 18.0886H13.6012C13.8232 18.1036 14.0031 17.923 14.0031 17.701L14.0023 12.6975C14.0016 12.6952 13.9933 12.4559 14.1446 12.2911C14.2657 12.1601 14.4742 12.0931 14.7625 12.0931C15.2426 12.0931 15.4564 12.2896 15.5362 12.7291V17.701C15.4571 17.923 15.637 18.1036 15.859 18.0886H18.2261C18.4481 18.1036 18.628 17.923 18.5482 17.701V12.562C18.6272 9.94891 16.766 9.02092 15.1719 9.02092ZM17.8234 17.336H16.261V12.7291C16.261 11.8403 15.6867 11.2893 14.7632 11.2893C14.2409 11.2893 13.8345 11.4429 13.5545 11.7454C13.1654 12.1669 13.1955 12.7013 13.279 12.8202V17.336H11.7572V9.82472H13.1993V10.0776C13.1987 10.1529 13.2193 10.2269 13.2589 10.291C13.2985 10.3551 13.3553 10.4068 13.4229 10.44C13.4905 10.4733 13.5661 10.4868 13.6411 10.479C13.716 10.4712 13.7872 10.4424 13.8465 10.396L13.9519 10.3147C14.2567 10.0746 14.5721 9.82548 15.1727 9.82548C15.7943 9.82548 17.8242 10.0234 17.8242 12.5628V17.336H17.8234ZM8.76327 5.26831C7.91882 5.26831 7.23242 5.95471 7.23242 6.79916C7.23242 7.64361 7.91882 8.33 8.76327 8.33C9.60772 8.33 10.2941 7.64361 10.2941 6.79916C10.2941 5.95471 9.60772 5.26831 8.76327 5.26831ZM8.76327 7.5262C8.36287 7.5262 8.03623 7.19955 8.03623 6.79916C8.03623 6.39876 8.36287 6.07212 8.76327 6.07212C9.16367 6.07212 9.49031 6.39876 9.49031 6.79916C9.49031 7.19955 9.16367 7.5262 8.76327 7.5262ZM9.83802 9.02016H7.60422C7.3822 9.02016 7.20232 9.20004 7.25801 9.43336V17.7123C7.20232 17.923 7.3822 18.1036 7.60422 18.0886H9.83802C10.06 18.1036 10.2399 17.923 10.2399 17.701V9.42207C10.2399 9.31547 10.1976 9.21325 10.1222 9.13788C10.0468 9.06251 9.94461 9.02016 9.83802 9.02016ZM9.5159 17.336H8.00612V9.82472H9.5159V17.336Z" fill="white"/>
<path d="M12.5266 0C5.87189 0 0.458984 5.4129 0.458984 12.0676C0.458984 18.7224 5.87189 24.1353 12.5266 24.1353C19.1814 24.1353 24.5943 18.7224 24.5943 12.0676C24.5943 5.4129 19.1814 0 12.5266 0ZM12.5266 23.3315C6.31594 23.3315 1.26279 18.2783 1.26279 12.0676C1.26279 5.85695 6.31594 0.803807 12.5266 0.803807C18.7373 0.803807 23.7905 5.85695 23.7905 12.0676C23.7905 18.2783 18.7373 23.3315 12.5266 23.3315Z" fill="white"/>
</svg>
