<svg width="21" height="28" viewBox="0 0 21 28" fill="none" xmlns="http://www.w3.org/2000/svg">
<path d="M10.5 28C8.60539 26.3244 6.84927 24.4875 5.24999 22.5084C2.84999 19.5363 1.31834e-06 15.1101 1.31834e-06 10.8922C-0.00103953 8.73814 0.614262 6.63215 1.76804 4.84078C2.92181 3.04941 4.5622 1.65318 6.48159 0.828806C8.40098 0.00442736 10.5131 -0.211048 12.5506 0.209651C14.5882 0.630349 16.4596 1.66831 17.928 3.19217C18.9056 4.20131 19.6805 5.40146 20.2078 6.72317C20.7351 8.04489 21.0043 9.46191 20.9999 10.8922C20.9999 15.1101 18.15 19.5363 15.75 22.5084C14.1507 24.4875 12.3946 26.3244 10.5 28ZM10.5 6.22647C9.3065 6.22647 8.16191 6.71804 7.318 7.59304C6.47409 8.46804 5.99999 9.65479 5.99999 10.8922C5.99999 12.1297 6.47409 13.3164 7.318 14.1914C8.16191 15.0664 9.3065 15.558 10.5 15.558C11.6934 15.558 12.838 15.0664 13.6819 14.1914C14.5259 13.3164 15 12.1297 15 10.8922C15 9.65479 14.5259 8.46804 13.6819 7.59304C12.838 6.71804 11.6934 6.22647 10.5 6.22647Z" fill="#ED1B26"/>
</svg>
