<svg width="12" height="11" viewBox="0 0 12 11" fill="none" xmlns="http://www.w3.org/2000/svg">
<path fillRule="evenodd" clipRule="evenodd" d="M6.80267 0.0378123C5.56467 -0.196217 4.66667 0.697351 4.66667 1.58084V9.41916C4.66667 10.3026 5.56467 11.1962 6.80267 10.9622C9.77733 10.4001 12 8.16839 12 5.5C12 2.83161 9.77733 0.599932 6.80267 0.0378123ZM6.862 3.42453C6.98702 3.31956 7.15656 3.2606 7.33333 3.2606C7.51011 3.2606 7.67965 3.31956 7.80467 3.42453L9.80467 5.10417C9.92965 5.20916 9.99986 5.35154 9.99986 5.5C9.99986 5.64846 9.92965 5.79084 9.80467 5.89584L7.80467 7.57547C7.67893 7.67746 7.51053 7.73389 7.33573 7.73262C7.16093 7.73134 6.99373 7.67246 6.87012 7.56865C6.74652 7.46485 6.6764 7.32442 6.67488 7.17762C6.67337 7.03083 6.74056 6.8894 6.862 6.7838L7.724 6.05988H0.666667C0.489856 6.05988 0.320286 6.00089 0.195262 5.8959C0.0702379 5.7909 0 5.64849 0 5.5C0 5.35151 0.0702379 5.2091 0.195262 5.10411C0.320286 4.99911 0.489856 4.94012 0.666667 4.94012H7.724L6.862 4.2162C6.73702 4.1112 6.66681 3.96882 6.66681 3.82036C6.66681 3.6719 6.73702 3.52952 6.862 3.42453Z" fill="#FDFEFF"/>
</svg>
