<svg width="38" height="38" viewBox="0 0 38 38" fill="none" xmlns="http://www.w3.org/2000/svg">
<path d="M11.0215 0.905469C10.4469 1.09719 10.2128 1.2889 8.7869 2.70193L7.33262 4.14337L6.5239 3.3836L5.70808 2.62383H3.40961H1.11114L0.976353 2.79424C0.799002 3.00726 0.806096 3.23448 0.990541 3.46881L1.13242 3.65342H3.19679H5.25406L5.91381 4.27118L6.57356 4.89604L5.63714 5.85462C4.52338 6.99783 4.3815 7.24635 4.33184 8.12683C4.28927 9.00021 4.44534 9.36945 5.18312 10.1576L5.75774 10.7612L5.3321 11.2014C4.8497 11.6914 4.77167 11.8618 4.89227 12.1245C4.99158 12.3375 6.55227 13.3955 6.97082 13.5233C7.36809 13.6511 7.99237 13.5801 8.43929 13.3671L8.81527 13.1754L9.08485 13.4239C9.79425 14.063 10.454 13.9352 11.3266 13.005C12.0573 12.2239 12.0998 11.592 11.4755 10.9245C11.2769 10.7186 11.2698 10.7044 11.3975 10.5908C11.5181 10.4771 11.5394 10.4843 11.738 10.6902C12.0289 11.0026 12.2772 11.1091 12.6744 11.1091C13.1072 11.1091 13.4973 10.8748 14.0294 10.2854C14.753 9.49726 14.7956 8.94341 14.1926 8.31855C13.9514 8.07003 13.9443 8.04873 14.0578 7.93512C14.1713 7.82151 14.1855 7.82151 14.3699 7.99192C14.8452 8.41796 15.1644 8.51737 15.6468 8.39666C16.1789 8.26885 17.1508 7.26055 17.2643 6.728C17.3352 6.39427 17.1792 5.93983 16.8812 5.6274L16.6187 5.34338L16.8315 4.91734C17.1011 4.37769 17.1153 3.79543 16.8883 3.27709C16.718 2.89365 15.8597 1.60843 15.6823 1.46642C15.4269 1.2676 15.1786 1.35991 14.6821 1.84276L14.2067 2.2972L13.7102 1.80015C13.0646 1.14689 12.5255 0.869966 11.8161 0.841563C11.5181 0.827362 11.1918 0.855764 11.0215 0.905469ZM12.2914 2.02027C12.4545 2.09838 12.7808 2.3611 13.022 2.60252L13.469 3.04987L9.99289 6.52919L6.5168 10.0085L6.08407 9.58247C5.49526 9.00021 5.36047 8.71619 5.39594 8.15524C5.41723 7.82151 5.46688 7.65109 5.61586 7.44517C5.71518 7.28896 6.92826 6.04634 8.3045 4.66882C10.9293 2.04867 11.135 1.88536 11.7238 1.87826C11.8799 1.87826 12.1353 1.94216 12.2914 2.02027ZM15.6043 3.16348C15.7603 3.3978 15.9235 3.69603 15.959 3.81674C16.1009 4.32798 16.1292 4.29958 11.965 8.45346C9.80844 10.6121 7.97108 12.4085 7.88595 12.4511C7.588 12.6002 7.26877 12.5434 6.79347 12.2381C6.54518 12.0748 6.31108 11.9186 6.26851 11.8831C6.22595 11.8405 7.87886 10.1363 10.7378 7.27476C13.2349 4.77532 15.285 2.73034 15.2921 2.73034C15.2992 2.73034 15.4411 2.92205 15.6043 3.16348ZM16.0938 6.31617L16.264 6.50078L15.8029 6.96233L15.3418 7.42387L15.1503 7.27476C15.0438 7.18955 14.9587 7.09724 14.9587 7.06884C14.9587 7.00493 15.8242 6.13865 15.888 6.13865C15.9093 6.13865 16.0015 6.21676 16.0938 6.31617ZM13.398 9.01442L13.5683 9.19193L13.1497 9.61797C12.9156 9.85229 12.6957 10.044 12.6602 10.044C12.6248 10.044 12.5184 9.973 12.4261 9.8878L12.2559 9.73158L12.7028 9.28424C12.944 9.03572 13.1639 8.8369 13.1852 8.8369C13.2136 8.8369 13.3058 8.91501 13.398 9.01442ZM10.8442 11.8476C10.8442 11.9399 10.0567 12.7423 9.96451 12.7423C9.92904 12.7423 9.82263 12.6713 9.73041 12.586L9.56015 12.4298L10.0425 11.947L10.5178 11.4641L10.681 11.6204C10.7732 11.7056 10.8442 11.805 10.8442 11.8476Z" fill="#2591B2"/>
<path d="M20.2407 3.62469C19.9356 3.7809 19.7867 3.93711 19.6306 4.23534C19.4958 4.49807 19.4958 4.70399 19.51 9.78805L19.5313 15.0709L19.7512 15.3479C20.1981 15.9088 19.4816 15.8662 28.4059 15.852L36.3584 15.8307L36.6208 15.6248C37.1813 15.1988 37.16 15.4757 37.16 9.70285C37.16 5.24364 37.1458 4.54067 37.0536 4.31345C36.9117 3.97262 36.7627 3.8093 36.4364 3.64599C36.2023 3.52528 36.0037 3.51108 34.5778 3.51108H32.9816L32.8397 3.69569C32.7546 3.8022 32.6907 3.93001 32.6907 3.97972C32.6907 4.13593 32.8468 4.42706 32.9674 4.48386C33.0313 4.51227 33.7549 4.55487 34.5707 4.57617L36.0604 4.61168V9.68864V14.7656H28.3279H20.5954V9.68864V4.61168L25.9727 4.57617L31.3571 4.54067L31.4918 4.37025C31.6763 4.14303 31.6621 3.85191 31.4635 3.66729L31.3003 3.51108H25.8734C21.0991 3.51108 20.4251 3.52528 20.2407 3.62469Z" fill="#2591B2"/>
<path d="M21.782 5.59138C21.5762 5.8115 21.5833 6.10263 21.8032 6.31565C21.9664 6.48606 22.0232 6.49316 22.7468 6.49316C23.4207 6.49316 23.5484 6.47186 23.7115 6.34405C23.9527 6.15233 23.9669 5.7973 23.7328 5.58428C23.5839 5.44227 23.4916 5.42807 22.7538 5.42807C21.9877 5.42807 21.9238 5.44227 21.782 5.59138Z" fill="#2591B2"/>
<path d="M21.9308 7.41655C21.6116 7.55147 21.5265 8.02721 21.7677 8.26863C21.8954 8.39644 22.0018 8.41064 22.7608 8.41064C23.5199 8.41064 23.6263 8.39644 23.754 8.26863C23.9314 8.09112 23.9385 7.76449 23.7611 7.55147C23.6334 7.39525 23.5696 7.38105 22.8531 7.36685C22.4345 7.35265 22.016 7.38105 21.9308 7.41655Z" fill="#2591B2"/>
<path d="M32.8263 7.42344C32.6986 7.47315 32.5638 7.63646 32.4078 7.93469C32.2801 8.17611 32.0318 8.63765 31.8615 8.96428L31.5423 9.54654L31.2798 9.24831C31.0528 8.99979 30.9677 8.95008 30.7407 8.95008C30.3505 8.95008 30.2512 9.1205 30.1022 10.0365C30.0313 10.4696 29.9461 10.8247 29.9249 10.8247C29.9036 10.8247 29.5843 10.1643 29.2155 9.36192C28.8466 8.55245 28.4848 7.85658 28.4067 7.79978C28.1797 7.64356 27.9172 7.67907 27.7115 7.89208C27.6193 8.0057 27.3213 8.36783 27.0589 8.70866L26.5765 9.33352H25.8742C25.0796 9.33352 24.9448 9.37612 24.8242 9.68145C24.7533 9.85187 24.7533 9.92287 24.8455 10.1004C24.9023 10.214 25.0087 10.3276 25.0654 10.356C25.1293 10.3773 25.5904 10.3986 26.087 10.3986C27.1298 10.3986 27.1298 10.3986 27.6264 9.72405C27.8108 9.46843 27.9882 9.28381 28.0095 9.31222C28.0378 9.34772 28.4138 10.1643 28.8608 11.1442C29.3006 12.117 29.7262 12.9904 29.8043 13.0756C29.9887 13.2815 30.3505 13.2957 30.5279 13.0969C30.6485 12.962 30.7691 12.4578 30.989 11.1229L31.0741 10.5974L31.2656 10.7821C31.4501 10.9596 31.7055 11.0164 31.9396 10.9241C32.0034 10.9028 32.1879 10.6258 32.351 10.3134C32.649 9.75956 32.6561 9.75246 32.7057 9.96548C32.798 10.3205 32.9895 10.3986 33.7627 10.3986C34.3445 10.3986 34.4721 10.3773 34.6353 10.2495C34.7701 10.143 34.8198 10.0365 34.8198 9.86607C34.8198 9.52524 34.5573 9.33352 34.0749 9.33352H33.706L33.6209 8.53114C33.5428 7.79268 33.4222 7.41634 33.2662 7.41634C33.2307 7.41634 33.1597 7.40214 33.103 7.38794C33.0533 7.36664 32.9256 7.38794 32.8263 7.42344Z" fill="#2591B2"/>
<path d="M21.8095 9.48294C21.5683 9.67466 21.5612 9.98709 21.8024 10.2214C21.9656 10.3918 22.0223 10.3989 22.7459 10.3989C23.4198 10.3989 23.5475 10.3776 23.7107 10.2498C23.9519 10.0581 23.9661 9.70306 23.732 9.49004C23.583 9.34803 23.4908 9.33383 22.7814 9.33383C22.1003 9.33383 21.9726 9.35513 21.8095 9.48294Z" fill="#2591B2"/>
<path d="M21.9359 11.3502C21.5954 11.4993 21.5103 11.9183 21.7657 12.1739C21.8934 12.3017 21.9998 12.3159 22.7588 12.3159C23.5179 12.3159 23.6243 12.3017 23.752 12.1739C24.0216 11.9041 23.9081 11.4638 23.5321 11.3289C23.22 11.2224 22.2055 11.2366 21.9359 11.3502Z" fill="#2591B2"/>
<path d="M3.45755 18.3729C3.28729 18.4653 3.05319 18.6783 2.93259 18.8416C2.74814 19.1114 2.71977 19.2179 2.69848 19.7363L2.67011 20.3256L2.41472 20.3753C2.04583 20.4463 1.76916 20.6026 1.42156 20.9292C0.960443 21.3836 0.839844 21.7813 0.839844 22.9032C0.839844 23.4144 0.86822 23.8902 0.910784 23.9612C1.02429 24.1742 1.37899 24.2452 2.30122 24.2452H3.18088V24.6854C3.18088 25.5304 3.71293 26.2547 4.48618 26.4819C4.80542 26.5742 5.1814 26.5884 6.58602 26.5742C8.28859 26.5529 8.30278 26.5529 8.43757 26.3825C8.62201 26.1624 8.60782 25.8641 8.40919 25.6795C8.26022 25.5375 8.17509 25.5304 6.45833 25.5091L4.65644 25.4878L4.45071 25.2535C4.27336 25.0618 4.24499 24.9624 4.24499 24.6357V24.2452H19.0006H33.7562V24.6357C33.7562 24.9624 33.7278 25.0618 33.5505 25.2535L33.3448 25.4878L21.6325 25.5091L9.92732 25.5233L9.78544 25.7079C9.61518 25.9209 9.60099 26.0133 9.7145 26.2547C9.85638 26.5671 10.0195 26.5884 12.1265 26.5884H14.1128L15.1911 27.2701C15.787 27.6464 16.2765 27.9659 16.2907 27.973C16.3049 27.9801 15.7586 28.1932 15.0847 28.4488C14.0986 28.8109 13.8432 28.9387 13.7723 29.0807C13.7155 29.1872 13.6801 29.5636 13.6801 30.0819V30.9127L11.2113 30.934L8.73552 30.9553L8.44466 31.1612C7.96936 31.4879 7.86295 31.8003 7.86295 32.8583V33.753L7.65722 33.8595C6.85559 34.2784 6.4867 35.1305 6.74209 35.9897C6.85559 36.3802 7.4444 36.9696 7.83457 37.0832C8.9909 37.424 10.0621 36.6216 10.0621 35.4358C10.0621 35.1731 10.0054 34.8891 9.92732 34.7187C9.79253 34.4133 9.32432 33.9447 9.07603 33.8666C8.93415 33.824 8.92706 33.7743 8.92706 32.9861C8.92706 32.4322 8.95543 32.1269 9.01219 32.0701C9.13278 31.9494 27.8043 31.9494 27.9249 32.0701C27.9817 32.1269 28.01 32.4322 28.01 32.979V33.7956L27.7901 33.895C27.407 34.0654 27.024 34.5198 26.9034 34.953C26.6622 35.7767 27.0027 36.5719 27.7617 36.9767C28.159 37.1897 28.9252 37.1897 29.3366 36.9696C29.9822 36.6287 30.3724 35.8335 30.2234 35.1305C30.117 34.6334 29.7977 34.179 29.4005 33.966L29.0741 33.7956V32.908C29.0741 31.9423 28.9819 31.6086 28.6414 31.2961C28.2441 30.934 28.1235 30.9198 25.4349 30.9198H22.9165L20.8238 29.592C19.4546 28.7257 18.7523 28.2429 18.8162 28.2074C18.8658 28.179 19.859 27.8026 21.0153 27.3695L23.1222 26.5884H28.1448C33.7562 26.5884 33.6498 26.5955 34.196 26.1056C34.6004 25.7434 34.8203 25.2464 34.8203 24.6854V24.2452H35.7C36.608 24.2452 36.906 24.1884 37.062 23.9754C37.2039 23.7907 37.1968 22.0937 37.0479 21.6677C36.9131 21.2629 36.459 20.7375 36.0689 20.5315L35.778 20.3753L26.577 20.354C17.4328 20.3398 17.369 20.3398 17.2271 20.4818C17.0143 20.6949 17.0356 21.0712 17.2697 21.2558C17.4612 21.4049 17.4612 21.4049 26.4423 21.4049C35.2247 21.4049 35.4304 21.412 35.6503 21.5469C35.9837 21.7458 36.0973 22.0227 36.0973 22.6475V23.1801H19.0006H1.90395V22.6475C1.90395 22.0227 2.01746 21.7458 2.35088 21.5469C2.57079 21.412 2.75524 21.4049 9.04766 21.4049C13.7013 21.4049 15.5671 21.3836 15.6948 21.3268C16.0566 21.1635 16.0849 20.5955 15.7444 20.4179C15.6522 20.3682 14.3895 20.3398 11.9491 20.3398H8.28859V19.8073C8.28859 19.0262 8.02611 18.5718 7.42312 18.3161C7.2103 18.2309 6.83431 18.2096 5.46516 18.2096C3.82644 18.2096 3.76259 18.2167 3.45755 18.3729ZM7.0897 19.3457C7.2032 19.4096 7.22449 19.502 7.22449 19.8783V20.3398H5.48644H3.7484V19.9209C3.7484 19.2605 3.71293 19.2747 5.45807 19.2747C6.35192 19.2747 7.00457 19.3031 7.0897 19.3457ZM18.7949 27.057L17.5605 27.5186L16.8653 27.0784C16.4751 26.8369 16.163 26.6239 16.163 26.6097C16.163 26.6026 17.0356 26.5884 18.0997 26.5955H20.0292L18.7949 27.057ZM19.1496 29.7908C20.086 30.3802 20.8451 30.8772 20.8451 30.8914C20.8451 30.9056 19.4688 30.9198 17.7946 30.9198H14.7371L14.7584 30.3091L14.7796 29.6985L16.0566 29.2156C16.7589 28.9458 17.3619 28.7257 17.3973 28.7257C17.4328 28.7186 18.2203 29.2014 19.1496 29.7908ZM8.84193 35.0098C9.08313 35.2867 9.05475 35.6843 8.77808 35.9187C8.48723 36.1672 8.18928 36.1601 7.9268 35.8974C7.58628 35.5494 7.66432 35.0453 8.09705 34.8536C8.38791 34.7329 8.6362 34.7826 8.84193 35.0098ZM29.0245 35.0453C29.2373 35.2796 29.2657 35.45 29.1096 35.7412C28.8897 36.1743 28.2512 36.2027 28.0029 35.798C27.8256 35.5068 27.8327 35.3151 28.0171 35.0808C28.3151 34.6974 28.6911 34.6832 29.0245 35.0453Z" fill="#2591B2"/>
</svg>
