<svg width="16" height="10" viewBox="0 0 16 10" fill="none" xmlns="http://www.w3.org/2000/svg">
<path fill-rule="evenodd" clip-rule="evenodd" d="M0 0.75C0 0.551088 0.0790175 0.360322 0.21967 0.21967C0.360322 0.0790175 0.551088 0 0.75 0H15.25C15.4489 0 15.6397 0.0790175 15.7803 0.21967C15.921 0.360322 16 0.551088 16 0.75C16 0.948912 15.921 1.13968 15.7803 1.28033C15.6397 1.42098 15.4489 1.5 15.25 1.5H0.75C0.551088 1.5 0.360322 1.42098 0.21967 1.28033C0.0790175 1.13968 0 0.948912 0 0.75ZM0 5C0 4.80109 0.0790175 4.61032 0.21967 4.46967C0.360322 4.32902 0.551088 4.25 0.75 4.25H13.25C13.4489 4.25 13.6397 4.32902 13.7803 4.46967C13.921 4.61032 14 4.80109 14 5C14 5.19891 13.921 5.38968 13.7803 5.53033C13.6397 5.67098 13.4489 5.75 13.25 5.75H0.75C0.551088 5.75 0.360322 5.67098 0.21967 5.53033C0.0790175 5.38968 0 5.19891 0 5ZM0.75 8.5C0.551088 8.5 0.360322 8.57902 0.21967 8.71967C0.0790175 8.86032 0 9.05109 0 9.25C0 9.44891 0.0790175 9.63968 0.21967 9.78033C0.360322 9.92098 0.551088 10 0.75 10H15.25C15.4489 10 15.6397 9.92098 15.7803 9.78033C15.921 9.63968 16 9.44891 16 9.25C16 9.05109 15.921 8.86032 15.7803 8.71967C15.6397 8.57902 15.4489 8.5 15.25 8.5H0.75Z" fill="#414141"/>
</svg>
