<svg width="56" height="70" viewBox="0 0 56 70" fill="none" xmlns="http://www.w3.org/2000/svg">
<path d="M6.97971 0.989197C6.61936 1.05593 5.80525 1.34954 5.17798 1.6565C3.17607 2.61742 1.6813 4.44584 1.10742 6.6346C0.933919 7.3286 0.907227 9.91774 0.907227 28.3354V49.2621L1.25423 49.529C1.78807 49.9561 2.46872 49.8493 2.7223 49.3155C2.78903 49.182 2.8691 39.6128 2.90914 28.0551L2.97587 7.03498L3.3896 6.16749C3.9101 5.08645 4.67083 4.2323 5.59171 3.67177C7.04644 2.80427 6.43252 2.83096 22.0875 2.83096C31.9503 2.83096 36.4746 2.87099 36.9684 2.97777C38.4632 3.29807 39.8779 4.35242 40.7187 5.7938C41.4127 6.96825 41.4794 7.64891 41.4794 14.6022V20.9683L39.5843 22.5965C37.3421 24.505 36.9951 24.852 36.6481 25.6395C36.2611 26.4936 36.2878 27.4812 36.7415 29.0961L37.1286 30.4708L30.1886 37.4107L23.262 44.3374L21.8606 43.9236C20.7662 43.6033 20.2858 43.5366 19.6452 43.5766C18.1504 43.6834 17.8167 43.9503 14.4268 47.9141C12.7586 49.8626 11.2505 51.7311 11.0903 52.0648C10.3963 53.4261 10.81 54.7607 12.4383 56.3222C13.9063 57.7502 13.8129 57.7769 16.5222 55.081C18.5508 53.0791 18.7777 52.8789 19.2047 52.8789C19.7786 52.8789 20.2591 53.3326 20.2591 53.8798C20.2591 54.1868 19.872 54.6539 18.0703 56.469C16.8692 57.6835 15.8415 58.8179 15.8015 58.978C15.668 59.4185 15.9883 59.9256 17.0961 60.98C18.2438 62.061 19.0846 62.448 20.0722 62.3012C21.1666 62.1544 21.2734 62.0743 26.8921 57.1897C29.7749 54.6939 29.9884 54.08 29.0809 50.9437C28.7606 49.876 28.4269 48.9685 28.2801 48.8216C27.7196 48.2611 26.6652 48.6615 26.6652 49.4356C26.6652 49.6491 26.8788 50.5833 27.1457 51.5042C27.5728 52.999 27.6128 53.2392 27.4793 53.693C27.3459 54.1201 26.812 54.6406 23.8492 57.1763C21.9407 58.8179 20.2724 60.2059 20.1256 60.2726C19.9922 60.3393 19.7252 60.3527 19.5384 60.2993C19.1914 60.2192 18.2572 59.4718 18.2572 59.285C18.2572 59.2183 19.0446 58.3908 19.9922 57.4432C21.0999 56.3355 21.8206 55.4947 21.9941 55.121C22.8883 53.1591 21.4335 50.877 19.2982 50.877C18.8711 50.877 18.2972 50.9704 18.0303 51.0771C17.7367 51.1973 16.7624 52.0514 15.6814 53.1191L13.8263 54.9475L13.3058 54.3603C12.3982 53.346 12.3582 53.3994 15.7614 49.4356C17.3897 47.5271 18.8844 45.8722 19.0846 45.752C19.5918 45.4451 20.0322 45.4851 21.8072 46.0056C22.6747 46.2592 23.5155 46.4727 23.6623 46.4727C23.8358 46.4727 26.5718 43.8302 31.5632 38.8388C38.2897 32.1257 39.2106 31.1514 39.2106 30.7911C39.2106 30.5775 38.997 29.6433 38.7301 28.7224L38.2363 27.0408L38.4899 26.4936C38.6901 26.0665 39.5042 25.2925 42.12 23.0637C43.9618 21.4755 45.63 20.1142 45.8169 20.0474C46.0171 19.9674 46.2707 19.9674 46.4575 20.0341C46.8712 20.1942 47.6186 20.8349 47.6186 21.0351C47.6186 21.1151 46.8979 21.9025 46.0037 22.7834C44.202 24.5718 43.8684 25.119 43.8684 26.2667C43.8684 28.0151 45.1629 29.2563 46.9647 29.2563C47.9389 29.2429 48.5528 28.8559 50.3679 27.0675L52.0896 25.3859L52.5967 25.9331C53.2106 26.6271 53.2507 27.1476 52.7302 27.8149C51.182 29.7367 47.018 34.4479 46.7511 34.568C46.2039 34.8216 45.7101 34.7682 43.9751 34.261C43.0809 34.0075 42.2668 33.7939 42.1601 33.7939C42.0399 33.7939 39.2639 36.4765 35.9808 39.7596C30.5356 45.2049 30.0017 45.7787 30.0017 46.1658C30.0017 46.7397 30.4021 47.14 30.976 47.14C31.3631 47.14 31.7367 46.8064 34.6062 43.937C36.3678 42.1753 37.8493 40.7339 37.9026 40.7339C37.9694 40.7339 38.0094 42.3354 38.0094 44.2973V47.8474L36.2878 50.6634C34.2992 53.9466 34.1924 54.1334 34.0723 54.7607C33.8988 55.6816 34.4327 56.816 35.3135 57.4299C35.6738 57.6701 36.0208 57.7635 36.8616 57.8169L37.9427 57.8837L37.9827 59.592C38.0228 61.5538 37.9026 62.1678 37.3021 62.8484C36.5146 63.7426 37.4088 63.6892 22.1676 63.6892C8.92824 63.6892 8.28763 63.6759 7.76713 63.4356C7.46017 63.3022 7.04644 62.9552 6.8329 62.6749L6.44586 62.1811V34.9951V7.80906L6.8329 7.31525C7.5269 6.39437 7.91393 6.30095 11.2104 6.30095H14.0932L14.8539 7.70229C15.4278 8.74329 15.7614 9.18371 16.1618 9.46398L16.6957 9.83767L21.914 9.8777C28.5604 9.93109 28.2401 10.0245 29.548 7.48875L30.1619 6.30095H33.0847C35.2468 6.30095 36.1276 6.35433 36.4479 6.48779C37.0218 6.71468 37.6891 7.5021 37.8626 8.12936C37.956 8.44967 38.0094 10.7319 38.0094 14.2018C38.0094 19.607 38.0228 19.7939 38.2763 20.0474C38.6367 20.4078 39.3574 20.3944 39.691 20.0341C39.9313 19.7672 39.9446 19.4602 39.9446 13.7881C39.9446 7.87579 39.9446 7.83575 39.6376 7.07502C39.2506 6.10076 38.3564 5.19322 37.3688 4.7261C36.6081 4.36576 36.5947 4.36576 32.9779 4.32572C30.5623 4.29903 29.2544 4.32572 29.0809 4.4325C28.9341 4.51257 28.4669 5.23326 28.0532 6.03403C27.6395 6.84814 27.2124 7.59552 27.1056 7.70229C26.9455 7.87579 26.1581 7.90248 22.1409 7.90248C17.7634 7.90248 17.3496 7.88913 17.1628 7.66225C17.0427 7.54214 16.6423 6.82145 16.2553 6.06072C15.8682 5.29999 15.4144 4.59264 15.2543 4.48588C14.9874 4.31238 14.3601 4.28568 11.2905 4.32572C7.88724 4.36576 7.60697 4.37911 7.01975 4.65938C6.17894 5.04642 5.23137 5.94061 4.80429 6.76806L4.44395 7.43537V34.9951V62.5548L4.80429 63.2221C5.23137 64.0496 6.17894 64.9437 7.01975 65.3308L7.64701 65.6244L21.8473 65.6644C37.4889 65.7045 36.7549 65.7312 38.0628 64.877C38.4098 64.6368 38.9036 64.143 39.1572 63.7693C39.8111 62.7683 40.0113 61.8074 40.0113 59.6453V57.8036L40.7187 57.8436L41.4127 57.8837L41.4527 59.7788C41.5061 62.7416 41.1457 63.9828 39.7844 65.4376C39.4775 65.7712 38.9303 66.1983 38.57 66.3985C37.1286 67.1859 37.6357 67.1592 22.1275 67.1592C6.43252 67.1592 7.05978 67.1859 5.59171 66.3184C4.67083 65.7579 3.9101 64.9037 3.3896 63.8227L2.97587 62.9552L2.90914 58.0838C2.8691 55.4013 2.78903 53.1058 2.7223 52.9723C2.46872 52.4384 1.78807 52.3317 1.25423 52.7588L0.907227 53.0257V57.8036C0.907227 61.6606 0.947265 62.7149 1.10742 63.3556C1.6813 65.5443 3.17607 67.3727 5.17798 68.3337C5.80525 68.6273 6.67275 68.9342 7.09982 69.0143C7.63367 69.1077 12.6251 69.1611 22.1809 69.1611C37.876 69.1611 37.4222 69.1745 39.1705 68.347C40.3316 67.7998 41.9332 66.2383 42.5204 65.0906C43.2678 63.6091 43.3745 63.0219 43.4413 60.326L43.508 57.8169H44.4155C45.8836 57.8169 46.8445 57.1363 47.2316 55.8017C47.5252 54.8274 47.325 54.3202 45.3498 51.0771L43.4813 48.0209V42.0952C43.4813 37.2773 43.508 36.1829 43.6548 36.2363C45.3097 36.8635 46.8445 36.8635 47.8588 36.2363C48.6062 35.7825 54.4385 29.0961 54.8389 28.2553C54.9857 27.935 55.0924 27.4145 55.0924 26.9741C55.0924 25.9331 54.6387 25.1056 53.4375 23.9445C51.9694 22.5165 52.0629 22.4898 49.4203 25.119C47.2316 27.2944 47.0314 27.4278 46.3507 27.1743C46.0037 27.0408 45.7502 26.3335 45.9103 25.9197C45.977 25.7329 46.9647 24.6518 48.0991 23.5041C49.2335 22.3697 50.1544 21.3287 50.1544 21.1952C50.1544 20.7681 49.7673 20.2343 48.8064 19.3268C47.6987 18.2724 47.1648 18.0055 46.1505 18.0055C45.283 18.0055 44.6424 18.2457 43.9751 18.8329L43.4947 19.26L43.4546 13.2142C43.4012 6.56787 43.4012 6.67464 42.5204 4.8996C41.9332 3.75184 40.3316 2.19035 39.1705 1.64316C37.4222 0.815697 37.8893 0.829041 22.0608 0.842392C13.6928 0.855736 7.36674 0.909119 6.97971 0.989197ZM41.4794 41.6548V46.0323L40.7454 46.019H40.0113V42.2821V38.5451L40.6386 37.9045C40.9856 37.5575 41.3192 37.2639 41.3726 37.2639C41.426 37.2639 41.4794 39.2391 41.4794 41.6548ZM41.1324 48.2344C41.5461 48.6081 45.3498 54.8407 45.3498 55.1477C45.3498 55.2678 45.243 55.468 45.1095 55.6015C44.8827 55.8017 44.4155 55.815 40.5986 55.7883L36.3545 55.7483L36.1543 55.4013C35.9675 55.0543 36.0075 54.9609 37.9293 51.7978C39.7444 48.8083 40.3583 47.9408 40.6786 47.9408C40.7454 47.9408 40.9456 48.0743 41.1324 48.2344Z" fill="#1F3F98"/>
<path d="M40.4114 51.3706C39.8643 51.5708 39.7441 51.8377 39.7441 52.8787C39.7441 53.7729 39.7842 53.933 40.0511 54.1866C40.6383 54.7338 41.4791 54.4402 41.6927 53.6127C41.8395 53.0255 41.6793 51.9445 41.3991 51.6775C41.1054 51.3973 40.6917 51.2771 40.4114 51.3706Z" fill="#1F3F98"/>
<path d="M19.6187 4.39229C19.5253 4.43233 19.3651 4.63252 19.245 4.8594C19.0715 5.19305 19.0715 5.32652 19.205 5.64682C19.285 5.87371 19.4719 6.10059 19.6053 6.16732C19.7388 6.2474 20.8999 6.30078 22.1945 6.30078C24.5034 6.30078 24.5434 6.30078 24.8637 5.96713C25.0506 5.79363 25.1974 5.48667 25.1974 5.29982C25.1974 5.11298 25.0506 4.80602 24.8637 4.63252C24.5434 4.29886 24.5167 4.29886 22.1678 4.31221C20.8599 4.31221 19.7121 4.35225 19.6187 4.39229Z" fill="#1F3F98"/>
<path d="M19.365 13.1073C18.8846 13.3876 18.5242 13.9881 18.5242 14.4819C18.5242 15.4562 18.4175 15.5763 17.2964 16.0301L16.2287 16.4705L15.7482 16.0835C15.0409 15.5096 14.7339 15.3761 14.1734 15.3761C13.5194 15.3761 12.9589 15.7365 11.998 16.8042C10.8235 18.0854 10.7701 18.686 11.7177 19.8871L12.2516 20.5678L11.8645 21.4086C11.651 21.8757 11.4508 22.3428 11.4108 22.4629C11.3574 22.6231 11.1038 22.7031 10.5032 22.7565C8.98176 22.89 8.51465 23.5439 8.51465 25.5192C8.51465 27.4944 8.99511 28.1617 10.5166 28.3085L11.3307 28.3886L11.7711 29.4696L12.1982 30.5506L11.691 31.1913C10.7168 32.4058 10.8102 33.0063 12.1581 34.4077C13.6129 35.9158 14.4136 36.0759 15.6415 35.0616L16.2554 34.5545L17.0295 34.9015C17.4432 35.0883 17.9237 35.2752 18.0838 35.3152C18.3107 35.3953 18.3908 35.5421 18.4575 36.0359C18.6177 37.197 18.671 37.3572 19.0714 37.7442C19.4585 38.1179 19.5252 38.1312 21.06 38.1713C22.3145 38.2113 22.7149 38.1713 23.0486 37.9978C23.6358 37.7042 23.9961 37.0635 23.9961 36.3028C23.9961 35.7022 24.2364 35.2618 24.5567 35.2618C24.6367 35.2618 25.0505 35.1017 25.4776 34.9148L26.2516 34.5678L26.8522 35.0616C28.08 36.0759 28.8408 35.9425 30.2955 34.4611C31.0429 33.7003 31.3365 33.2999 31.4032 32.9529C31.51 32.4191 31.2965 31.6317 30.9895 31.3781C30.8827 31.2847 30.6692 31.0445 30.5357 30.8443L30.2688 30.4839L30.6558 29.6431C30.8694 29.176 31.0696 28.6955 31.1096 28.5754C31.163 28.4153 31.4166 28.3352 31.9905 28.2818C33.4852 28.1483 33.8989 27.6412 33.979 25.8662C34.0724 23.6641 33.632 22.9567 32.0305 22.7565L31.1897 22.6498L30.7359 21.5954L30.2822 20.5411L30.8027 19.8738C31.4032 19.1397 31.5767 18.4858 31.3365 17.9252C31.2564 17.7117 30.6825 17.0577 30.0686 16.4572C28.9876 15.3895 28.9609 15.3761 28.2936 15.3761C27.7464 15.3761 27.5195 15.4429 27.1725 15.7498C26.2383 16.5239 26.3717 16.5105 25.2373 16.0434C24.6634 15.8032 24.1563 15.5363 24.1029 15.4562C24.0495 15.3761 23.9961 15.0558 23.9961 14.7355C23.9961 14.0015 23.7025 13.4276 23.1553 13.1073C22.795 12.8804 22.4747 12.8404 21.2602 12.8404C20.0457 12.8404 19.7254 12.8804 19.365 13.1073ZM22.0476 15.256C22.0876 15.4829 22.1277 15.91 22.1277 16.1902C22.1277 16.8976 22.5414 17.3113 23.529 17.5782C23.9694 17.6983 24.7035 18.0053 25.1706 18.2589C26.2917 18.8728 26.612 18.8461 27.4795 18.1121C27.8665 17.7784 28.2269 17.5115 28.2669 17.5115C28.3069 17.5115 28.5738 17.7384 28.8408 18.0187L29.3346 18.5258L28.734 19.2331C27.9065 20.2074 27.8799 20.3809 28.4671 21.4619C28.7207 21.9691 29.0677 22.7832 29.2145 23.2637C29.5748 24.4381 29.7617 24.5849 30.9628 24.6917L31.9371 24.7851V25.5192V26.2532L30.9361 26.36C30.3622 26.4267 29.8417 26.5602 29.7083 26.6803C29.5882 26.787 29.3613 27.3075 29.2011 27.828C29.041 28.3619 28.7073 29.1627 28.4537 29.6164C28.2002 30.0702 28 30.5506 28 30.6975C28 30.8443 28.2936 31.3247 28.6673 31.7518L29.3212 32.5259L28.8408 33.0197C28.5605 33.2999 28.3069 33.5268 28.2535 33.5268C28.2002 33.5268 27.8398 33.2599 27.4528 32.9263C27.0524 32.5793 26.612 32.3257 26.4385 32.3257C26.265 32.3257 25.571 32.5926 24.8903 32.9129C24.2097 33.2466 23.4356 33.5535 23.1553 33.6069C22.5147 33.7137 22.1277 34.1941 22.1277 34.8614C22.1277 35.1417 22.0876 35.5554 22.0476 35.7823C21.9675 36.1827 21.9408 36.1961 21.2602 36.1961C20.4594 36.1961 20.3927 36.1026 20.3927 34.9816C20.3927 34.3276 20.019 33.6603 19.6586 33.6603C19.325 33.6603 18.2173 33.2466 17.283 32.7794C16.7892 32.5259 16.242 32.3257 16.0685 32.3257C15.8817 32.3257 15.4546 32.5793 15.0409 32.9263C14.6539 33.2599 14.2935 33.5268 14.2535 33.5268C14.2134 33.5268 13.9465 33.2999 13.6796 33.0197L13.1858 32.5125L13.7864 31.8052C14.12 31.4181 14.427 30.9644 14.467 30.8042C14.5071 30.6174 14.3336 30.1102 13.9332 29.3495C13.6129 28.7089 13.3059 27.9348 13.2525 27.6412C13.0924 26.7203 12.7454 26.4667 11.5442 26.36L10.5032 26.2799L10.5433 25.5325L10.5833 24.7851L11.5576 24.6917C12.1848 24.6383 12.6252 24.5316 12.7854 24.3847C12.9189 24.2646 13.1591 23.7308 13.3192 23.2103C13.4794 22.6764 13.8131 21.8757 14.08 21.4086C14.6405 20.3809 14.6138 20.1807 13.773 19.2331L13.1591 18.5392L13.6929 18.0053L14.2401 17.4715L15.0009 18.0854C15.9084 18.8461 16.1753 18.8595 17.3231 18.2589C17.8035 18.0053 18.5509 17.6983 18.9913 17.5782C20.0323 17.2846 20.3927 16.9109 20.3927 16.0701C20.3927 14.9357 20.4594 14.8423 21.2602 14.8423C21.9408 14.8423 21.9675 14.8556 22.0476 15.256Z" fill="#1F3F98"/>
<path d="M19.7923 20.488C18.8714 20.7949 18.2175 21.2087 17.5502 21.8626C15.0011 24.4251 15.7618 28.6825 19.0583 30.244C19.8457 30.6177 20.0459 30.6577 21.2604 30.6577C22.4749 30.6577 22.6751 30.6177 23.4625 30.244C26.799 28.6558 27.5197 24.305 24.8372 21.7692C23.8095 20.7949 22.8619 20.4079 21.4606 20.3545C20.7666 20.3278 20.1126 20.3812 19.7923 20.488ZM22.2747 22.4766C22.9554 22.6767 23.7962 23.4108 24.1565 24.1048C24.5569 24.8522 24.5569 26.1734 24.1698 26.9208C23.5559 28.0819 22.5283 28.7225 21.2604 28.7225C19.432 28.7225 18.0707 27.3612 18.0707 25.5195C18.0707 24.4785 18.4043 23.7444 19.1784 23.1038C20.0592 22.3564 21.1536 22.1296 22.2747 22.4766Z" fill="#1F3F98"/>
</svg>
