<svg width="15" height="18" viewBox="0 0 15 18" fill="none" xmlns="http://www.w3.org/2000/svg">
<path opacity="0.8" d="M15 14.1667V15H0V14.1667L1.66667 12.5V7.5C1.66667 4.91667 3.35833 2.64167 5.83333 1.90833V1.66667C5.83333 1.22464 6.00893 0.800716 6.32149 0.488155C6.63405 0.175595 7.05797 0 7.5 0C7.94203 0 8.36595 0.175595 8.67851 0.488155C8.99107 0.800716 9.16667 1.22464 9.16667 1.66667V1.90833C11.6417 2.64167 13.3333 4.91667 13.3333 7.5V12.5L15 14.1667ZM9.16667 15.8333C9.16667 16.2754 8.99107 16.6993 8.67851 17.0118C8.36595 17.3244 7.94203 17.5 7.5 17.5C7.05797 17.5 6.63405 17.3244 6.32149 17.0118C6.00893 16.6993 5.83333 16.2754 5.83333 15.8333" fill="#414141"/>
</svg>
