<svg width="44" height="48" viewBox="0 0 44 48" fill="none" xmlns="http://www.w3.org/2000/svg">
<path d="M35.109 0.711571C32.7728 1.31293 30.9017 3.06232 30.2484 5.24907L30.1156 5.68642L22.0442 5.74109C14.4489 5.79576 13.9507 5.80669 13.5853 6.0035C13.0428 6.28778 12.3895 6.92194 12.1127 7.43582C11.8802 7.86224 11.8692 7.98251 11.836 12.7605L11.8027 17.6589H7.52901C3.34385 17.6589 3.25528 17.6589 2.83455 17.8994C2.55775 18.0525 2.32525 18.304 2.18131 18.5992C1.95987 19.0365 1.95987 19.2224 1.98202 24.9079C2.01523 30.6263 2.01523 30.7684 2.24774 31.0636C2.36953 31.2276 2.61311 31.4682 2.77919 31.5884C3.07813 31.818 3.15563 31.818 13.6739 31.818H24.2696L24.6129 31.5775C24.8011 31.4463 25.0557 31.1948 25.1664 31.0308C25.3657 30.7356 25.3768 30.4185 25.3768 24.7439C25.3768 18.8506 25.3768 18.7632 25.1443 18.457C25.0225 18.293 24.7457 18.0415 24.5464 17.8994L24.1811 17.6589H18.7116H13.2421L13.2753 13.0339C13.3085 8.61666 13.3196 8.39799 13.5299 8.03717C13.6628 7.82943 13.9285 7.56702 14.1389 7.43582C14.5153 7.21714 14.6814 7.21714 22.2213 7.21714H29.9163L29.9938 7.8841C30.0934 8.81347 30.2706 9.39296 30.6913 10.2239C31.5992 12.0171 33.3375 13.34 35.264 13.7337L35.9504 13.8758V26.5917V39.3077L24.635 39.2858L13.3085 39.253L13.2753 36.5305C13.2531 34.1797 13.2199 33.7752 13.0649 33.6002C12.8324 33.3378 12.312 33.3488 12.0352 33.6221C11.8249 33.8299 11.8138 33.9829 11.8138 39.3951C11.8138 45.8132 11.7917 45.6383 12.7549 46.6005C13.7403 47.5736 13.0206 47.5189 24.8896 47.4861L35.2307 47.4533L35.7954 47.1581C36.4154 46.841 36.8251 46.4146 37.2015 45.7148L37.4451 45.2665L37.4783 29.5766L37.5005 13.8867L38.1758 13.7555C41.1431 13.1979 43.4682 10.3879 43.5014 7.32648C43.5125 6.10191 43.3575 5.39121 42.8149 4.26504C41.442 1.4332 38.1537 -0.0865898 35.109 0.711571ZM38.6409 2.3407C40.4899 3.05139 41.8074 4.80079 42.0067 6.7798C42.2392 9.22895 40.3902 11.7328 37.9433 12.2904C34.9872 12.9683 31.9867 10.9455 31.5217 7.97157C31.1342 5.48962 32.6953 3.02953 35.1754 2.22043C36.039 1.93615 37.744 2.00175 38.6409 2.3407ZM23.8821 20.283V21.3763H13.696H3.50993V20.283V19.1896H13.696H23.8821V20.283ZM23.8821 23.6177V24.3284H13.696H3.50993V23.6177V22.9071H13.696H23.8821V23.6177ZM23.8821 28.1006V30.342H13.696H3.50993V28.1006V25.8592H13.696H23.8821V28.1006ZM35.9504 42.8174C35.9504 45.0369 35.8729 45.3649 35.2307 45.7586C34.8764 45.9772 34.7104 45.9772 24.6461 45.9772C14.6925 45.9772 14.4046 45.9663 14.0614 45.7586C13.3971 45.3649 13.3196 45.0588 13.2753 42.8283L13.231 40.8384H24.5907H35.9504V42.8174Z" fill="#2591B2"/>
<path d="M38.5828 4.3415C38.4832 4.41804 37.841 5.33647 37.1435 6.36424L35.8813 8.25578L35.4938 7.86216C34.8184 7.16241 34.4087 7.064 33.9327 7.46855C33.5119 7.81843 33.678 8.22298 34.6302 9.18515C35.5491 10.1254 35.9034 10.3113 36.2799 10.1145C36.6453 9.91771 39.7122 5.30367 39.7122 4.95379C39.7122 4.3743 39.0146 4.00256 38.5828 4.3415Z" fill="#2591B2"/>
<path d="M5.25606 27.576C4.94604 27.9259 4.9239 28.2102 5.17855 28.5163L5.39999 28.8115H8.00187C10.4487 28.8115 10.6038 28.8006 10.8141 28.5928C10.9359 28.4726 11.0356 28.2539 11.0356 28.1008C11.0356 27.9478 10.9359 27.7291 10.8141 27.6088C10.6038 27.4011 10.4487 27.3901 8.01294 27.3901C5.68786 27.3901 5.41106 27.412 5.25606 27.576Z" fill="#2591B2"/>
<path d="M12.0343 27.6088C11.7685 27.8712 11.7464 28.232 11.99 28.571C12.145 28.8006 12.2336 28.8115 13.6507 28.8115C14.9904 28.8115 15.1565 28.7897 15.3558 28.5928C15.4776 28.4726 15.5772 28.2539 15.5772 28.1008C15.5772 27.9478 15.4776 27.7291 15.3558 27.6088C15.1565 27.412 14.9904 27.3901 13.695 27.3901C12.3996 27.3901 12.2335 27.412 12.0343 27.6088Z" fill="#2591B2"/>
<path d="M23.7347 41.6255C22.4061 41.9754 21.9521 43.7467 22.9375 44.7198C24.2551 46.0209 26.4694 44.7963 26.0708 42.9813C25.8383 41.9426 24.8086 41.3413 23.7347 41.6255Z" fill="#2591B2"/>
<path d="M8.2351 5.93794C8.06902 6.11288 8.04688 6.45182 8.04688 8.33243C8.04688 10.3661 8.05795 10.5301 8.26831 10.716C8.37903 10.8144 8.61154 10.9019 8.76654 10.9019C8.92155 10.9019 9.15406 10.8144 9.26478 10.716C9.47514 10.5301 9.48621 10.3661 9.48621 8.31056C9.48621 6.30969 9.46407 6.09101 9.28692 5.92701C9.01012 5.68646 8.45653 5.6974 8.2351 5.93794Z" fill="#2591B2"/>
<path d="M2.64592 7.66563C2.47985 7.77497 2.40234 7.93897 2.40234 8.19045C2.40234 8.49659 2.60164 8.7262 3.98562 10.0929C4.93779 11.0223 5.65746 11.6455 5.79033 11.6455C6.19998 11.6455 6.49892 11.3394 6.49892 10.902C6.49892 10.5412 6.37713 10.3881 4.97101 8.99954C3.36559 7.41415 3.1663 7.30481 2.64592 7.66563Z" fill="#2591B2"/>
<path d="M16.14 9.61162C15.6085 9.90683 15.4424 10.5301 15.7414 11.0986C16.2618 12.0936 17.7897 11.6781 17.7897 10.5519C17.7897 9.69909 16.9039 9.19614 16.14 9.61162Z" fill="#2591B2"/>
<path d="M19.0302 9.73191C18.6427 10.049 18.5098 10.4973 18.6648 10.9018C19.0523 11.9077 20.4031 11.9077 20.7906 10.9018C21.0453 10.2567 20.4585 9.45857 19.7277 9.45857C19.4952 9.45857 19.2406 9.55697 19.0302 9.73191Z" fill="#2591B2"/>
<path d="M21.9874 9.77584C21.301 10.4537 21.766 11.6455 22.7182 11.6455C22.9396 11.6455 23.2164 11.5908 23.3382 11.5362C23.5818 11.405 23.8807 10.8692 23.8807 10.5631C23.8807 9.6009 22.6739 9.09795 21.9874 9.77584Z" fill="#2591B2"/>
<path d="M0.817521 13.2966C0.341432 13.5699 0.418935 14.4118 0.928239 14.6086C1.07217 14.6633 2.07971 14.707 3.16475 14.707C4.9916 14.707 5.15768 14.6852 5.43448 14.4774C5.78878 14.2041 5.82199 13.7121 5.50091 13.395C5.29054 13.1872 5.13554 13.1763 3.15368 13.1763C1.85827 13.1763 0.939311 13.231 0.817521 13.2966Z" fill="#2591B2"/>
</svg>
