<svg width="67" height="48" viewBox="0 0 67 48" fill="none" xmlns="http://www.w3.org/2000/svg">
<path d="M50.593 39.7137L50.593 39.7137L50.5961 39.7072L54.8883 30.7618L55.232 30.0455H54.4375H46.0625C43.9 30.0455 42.0582 29.249 40.5108 27.6337L40.5102 27.6331C38.9596 26.02 38.1875 24.0909 38.1875 21.8182V8.72727C38.1875 6.45456 38.9596 4.52545 40.5102 2.91232L40.5108 2.91171C42.0582 1.29644 43.9 0.5 46.0625 0.5H58.625C60.7875 0.5 62.6308 1.29648 64.1812 2.91202C65.7291 4.52509 66.5 6.45429 66.5 8.72727V28.4727C66.5 29.1002 66.4492 29.7483 66.3466 30.4174L66.3464 30.419C66.2525 31.0455 66.048 31.6187 65.7337 32.1428L65.7222 32.162L65.7125 32.1822L59.7453 44.5094L59.7445 44.511C59.2941 45.4497 58.657 46.1771 57.8317 46.7064C57.0024 47.2382 56.1186 47.5 55.1703 47.5C53.2589 47.5 51.8128 46.6714 50.7829 44.9623C49.7559 43.255 49.6909 41.5266 50.593 39.7137ZM12.9055 39.7137L12.9055 39.7137L12.9086 39.7072L17.2008 30.7618L17.5445 30.0455H16.75H8.375C6.21252 30.0455 4.37073 29.249 2.8233 27.6337L2.82271 27.6331C1.27206 26.02 0.5 24.0909 0.5 21.8182V8.72727C0.5 6.45456 1.27206 4.52545 2.82271 2.91232L2.8233 2.91171C4.37073 1.29644 6.21252 0.5 8.375 0.5H20.9375C23.1 0.5 24.9434 1.29648 26.4937 2.91202C28.0416 4.52509 28.8125 6.45429 28.8125 8.72727V28.4727C28.8125 29.1006 28.763 29.749 28.6632 30.4183C28.5666 31.0451 28.3607 31.6185 28.0462 32.1428L28.0347 32.162L28.025 32.1822L22.0578 44.5094L22.057 44.511C21.6066 45.4497 20.9695 46.1771 20.1442 46.7064C19.3149 47.2382 18.4311 47.5 17.4828 47.5C15.5714 47.5 14.1253 46.6714 13.0954 44.9623C12.0684 43.255 12.0034 41.5266 12.9055 39.7137Z" stroke="#ED1B26"/>
</svg>
