<svg width="45" height="29" viewBox="0 0 45 29" fill="none" xmlns="http://www.w3.org/2000/svg">
<path d="M22.5004 25.98C19.1113 25.98 16.364 20.8402 16.364 14.5C16.364 8.15979 19.1113 3.02002 22.5004 3.02002C25.8894 3.02002 28.6367 8.15979 28.6367 14.5C28.6367 20.8402 25.8894 25.98 22.5004 25.98Z" fill="#ED1B26"/>
<path d="M31.7045 14.5C31.7045 12.56 31.2341 6.18 25.5068 1.5C27.1023 0.88 28.8409 0.5 30.6818 0.5C38.5773 0.5 45 6.78 45 14.5C45 22.22 38.5773 28.5 30.6818 28.5C28.8409 28.5 27.1023 28.12 25.5068 27.5C31.2341 22.82 31.7045 16.44 31.7045 14.5ZM14.3182 0.5C16.1591 0.5 17.8977 0.88 19.4932 1.5C18.2455 2.52 17.2432 3.64 16.4455 4.76C15.7705 4.6 15.0545 4.5 14.3182 4.5C8.67273 4.5 4.09091 8.98 4.09091 14.5C4.09091 20.02 8.67273 24.5 14.3182 24.5C15.0545 24.5 15.7705 24.4 16.4455 24.24C17.2432 25.36 18.2455 26.48 19.4932 27.5C17.8977 28.12 16.1591 28.5 14.3182 28.5C6.42273 28.5 0 22.22 0 14.5C0 6.78 6.42273 0.5 14.3182 0.5Z" fill="#ED1B26"/>
</svg>
