<svg width="25" height="25" viewBox="0 0 25 25" fill="none" xmlns="http://www.w3.org/2000/svg">
<path fill-rule="evenodd" clip-rule="evenodd" d="M12.5 25C19.4036 25 25 19.4036 25 12.5C25 5.59644 19.4036 0 12.5 0C5.59644 0 0 5.59644 0 12.5C0 19.4036 5.59644 25 12.5 25ZM18.2361 8.89882C18.8528 8.82118 19.4479 8.65882 20 8.41177C19.5841 9.02588 19.0679 9.56235 18.4656 9.98588C18.4728 10.12 18.4728 10.2471 18.4728 10.3812C18.4728 14.3835 15.3681 19 9.71797 19C7.98279 19 6.36233 18.4988 5 17.6376C5.24379 17.6659 5.48757 17.68 5.73136 17.68C7.11807 17.6866 8.4658 17.2285 9.55306 16.3812C8.91165 16.3697 8.29003 16.1606 7.77559 15.7832C7.26114 15.4059 6.87974 14.8794 6.68499 14.2776C7.14395 14.3667 7.61763 14.3498 8.06883 14.2282C6.66348 13.9529 5.60229 12.7247 5.60229 11.2565V11.2353C6.01816 11.4471 6.4914 11.5882 7.00048 11.5882C6.16874 11.0588 5.63098 10.1271 5.63098 9.07529C5.63098 8.52471 5.78155 8.00235 6.04685 7.55765C7.55975 9.38588 9.8327 10.5929 12.3853 10.72C12.3351 10.5012 12.3064 10.2682 12.3064 10.0282C12.3064 8.35529 13.6831 7 15.3681 7C16.2715 7 17.0674 7.35294 17.6338 7.96C18.3294 7.81882 18.989 7.57176 19.5841 7.21882C19.3547 7.93176 18.8671 8.52471 18.2361 8.89882Z" fill="white"/>
</svg>
