<svg width="48" height="40" viewBox="0 0 48 40" fill="none" xmlns="http://www.w3.org/2000/svg">
<path d="M16.4394 0.608925C13.0017 1.28214 10.7163 3.05786 9.82331 5.78974C9.58325 6.50198 9.56404 6.69712 9.56404 8.03378C9.57365 9.17532 9.61205 9.6534 9.76569 10.1998L9.94814 10.912H9.50643C8.74783 10.912 8.32533 11.4194 8.33493 12.3463C8.33493 12.8048 8.58459 14.0927 8.9975 15.7709C9.18955 16.5807 9.61205 17.0587 10.1114 17.0587C10.3995 17.0587 10.4667 17.0978 10.5051 17.2734C10.966 19.9175 11.2733 20.4834 13.2226 22.142L13.6163 22.4835L13.5203 23.2835C13.4722 23.7323 13.357 24.386 13.2706 24.747L13.1073 25.4007L8.87267 26.8252C5.99193 27.7911 4.38832 28.3863 3.84098 28.679C2.40061 29.4498 1.00826 31.0206 0.480123 32.4548C0.0960245 33.4793 0 34.3184 0 36.5039C0 38.3869 0.0192049 38.6016 0.192049 38.8845C0.58575 39.548 -0.893028 39.4992 18.5807 39.4992C34.7417 39.4992 36.2397 39.4894 36.4893 39.3431C36.8542 39.1187 37.0655 38.7187 37.0655 38.2308C37.0655 37.7235 36.9982 37.704 38.6499 38.7284C39.3412 39.148 39.975 39.4992 40.0614 39.4992C40.2055 39.4992 42.9134 37.8601 44.0945 37.0503C45.6885 35.9673 46.8696 34.6989 47.4361 33.4891C47.9835 32.3475 48.0219 31.889 47.9931 27.6838L47.9643 23.8885L47.6762 23.6055C47.4361 23.3616 46.7639 23.0982 43.8448 22.0835C41.8955 21.4102 40.2055 20.8639 40.0902 20.8639C39.7542 20.8639 32.7348 23.2835 32.5235 23.4689C32.1298 23.8299 32.0722 24.1812 32.0722 26.191C32.0722 27.6741 32.0434 28.0936 31.957 28.0643C31.8897 28.0351 30.0749 27.4301 27.9239 26.7179C23.4396 25.2251 23.9389 25.5471 23.67 23.947C23.43 22.4932 23.4012 22.5615 24.3998 21.6834C25.7538 20.4834 26.2531 19.5565 26.522 17.771L26.618 17.0587H26.9349C27.3478 17.0587 27.7799 16.6978 27.9815 16.1709C28.1256 15.8196 28.308 14.9806 28.7305 12.8536C28.8746 12.1218 28.7689 11.634 28.3752 11.234C28.116 10.9706 27.9815 10.912 27.6647 10.912C27.4438 10.912 27.271 10.8827 27.271 10.8437C27.271 10.8144 27.4438 10.2486 27.6551 9.59486C28.817 5.94585 28.4521 3.56521 26.5796 2.70662C26.1283 2.50173 25.9266 2.47246 24.7263 2.4627L23.382 2.45294L22.9211 2.00414C22.3929 1.46751 21.6055 1.04798 20.6261 0.755276C19.7138 0.491844 17.4765 0.413788 16.4394 0.608925ZM19.9539 1.60411C20.9333 1.79924 21.8456 2.2383 22.3065 2.73589C22.6138 3.06762 22.6714 3.1847 22.633 3.43837C22.6042 3.60424 22.4793 4.4921 22.3641 5.40923L22.1529 7.08738L21.4231 7.24349C21.0198 7.3313 19.8291 7.4679 18.7728 7.54595C16.1801 7.74108 15.2967 7.9167 14.1924 8.48259C13.8851 8.6387 13.6355 8.74603 13.6355 8.71675C13.6355 8.68748 13.7219 8.49235 13.8275 8.2777C14.0676 7.79962 14.0676 7.67279 13.8275 7.44838C13.6451 7.28252 13.5875 7.28252 13.2706 7.3996C12.3392 7.73133 11.4461 8.54113 10.9852 9.46802L10.7259 9.98513L10.6395 9.69243C10.5915 9.52656 10.5243 8.94116 10.4955 8.37527C10.3995 6.40442 10.87 5.13604 12.1951 3.78961C13.0593 2.90175 13.9332 2.35538 15.1431 1.94559C16.5642 1.45776 18.5711 1.32116 19.9539 1.60411ZM26.0322 3.5457C27.511 4.08231 27.7607 5.94585 26.7812 9.17532C26.6276 9.70218 26.474 10.1315 26.4548 10.1315C26.4356 10.1315 26.2819 9.85829 26.1187 9.51681C25.9554 9.18508 25.725 8.81432 25.6097 8.68748C25.3217 8.36551 24.9568 8.43381 24.7743 8.83384C24.6975 9.00946 24.6111 9.15581 24.5823 9.15581C24.5535 9.15581 24.4478 8.95092 24.3518 8.69724C24.2462 8.44357 23.9293 7.99476 23.6412 7.6923L23.1227 7.15568L23.3436 5.36044C23.5356 3.76034 23.5836 3.56521 23.7565 3.49691C24.1022 3.35056 25.5809 3.38959 26.0322 3.5457ZM22.9691 8.346C23.2955 8.68748 23.6604 9.44851 23.8045 10.0827C23.8717 10.3461 23.9677 10.6193 24.0253 10.6876C24.2078 10.912 24.5247 10.8144 24.928 10.4144L25.3313 10.0046L25.5425 10.6779C25.7346 11.3023 25.7538 11.5364 25.7442 13.6927C25.725 17.2344 25.5137 18.7369 24.9184 19.6833C24.4959 20.3565 22.7002 21.9469 21.2406 22.942L20.4532 23.4787H18.6096C16.4298 23.4689 16.5834 23.5275 14.9126 22.2396C12.608 20.4736 12.0127 19.7614 11.667 18.3759C11.3309 17.0197 11.2061 11.9365 11.4749 10.8632C11.6286 10.2778 12.0319 9.429 12.2527 9.24362C12.3584 9.15581 12.368 9.23386 12.3199 9.62413C12.2431 10.2876 12.3392 10.5998 12.6272 10.6779C12.8289 10.7266 12.9729 10.6388 13.4434 10.19C14.1252 9.55583 15.1143 9.04848 16.1129 8.82408C16.497 8.73627 17.7261 8.59967 18.8496 8.51186C19.9635 8.43381 21.1254 8.30697 21.4135 8.23868C22.3065 8.01427 22.681 8.04354 22.9691 8.346ZM10.0442 12.0438L10.3706 12.1999L10.3899 13.8976C10.3995 14.8342 10.4091 15.6928 10.4091 15.8099C10.4187 16.1221 10.1402 16.1416 10.0058 15.8489C9.94814 15.7123 9.82331 15.2147 9.73689 14.7464C9.65047 14.2781 9.49683 13.5268 9.4008 13.078C9.29517 12.6292 9.23756 12.1804 9.26637 12.0731C9.34319 11.8487 9.61205 11.8389 10.0442 12.0438ZM27.8279 12.1901C27.8471 12.3267 27.7511 12.9219 27.6263 13.5073C27.4918 14.0927 27.3382 14.844 27.271 15.1757C27.1365 15.8489 26.9733 16.1514 26.81 16.0441C26.7236 15.9953 26.6948 15.4099 26.6948 14.122V12.278L27.0117 12.0828C27.4342 11.8096 27.7895 11.8584 27.8279 12.1901ZM43.2687 22.9225C44.9971 23.5177 46.5623 24.0641 46.7351 24.1324L47.052 24.269V27.8204C47.052 29.7718 47.0136 31.6158 46.956 31.8987C46.7735 32.8841 46.2454 33.8013 45.2852 34.7769C44.3729 35.6941 43.5951 36.2697 41.3674 37.6357L40.0422 38.4455L38.4386 37.4503C37.5456 36.9039 36.4893 36.2112 36.0668 35.9087C35.1066 35.2062 34.0311 34.0452 33.6278 33.2744C33.0901 32.25 33.0324 31.7621 33.0324 27.8107V24.2787L33.2533 24.1812C33.5894 24.025 39.8886 21.8591 40.0038 21.8493C40.0614 21.8395 41.5306 22.3274 43.2687 22.9225ZM15.1719 23.6543C15.4119 23.8299 15.8248 24.0836 16.0841 24.2104C16.545 24.4446 16.6314 24.4543 18.5327 24.4543C20.7605 24.4543 20.7893 24.4446 21.9128 23.664C22.537 23.225 22.5658 23.2152 22.6042 23.4299C22.6234 23.547 22.7194 24.0348 22.8058 24.5226C22.9018 25.0007 22.9979 25.4886 23.0171 25.6056C23.1227 26.074 21.4231 27.6838 20.2516 28.2302C18.3887 29.0888 16.545 28.5424 14.7014 26.5618C14.1444 25.9666 14.01 25.7813 14.0676 25.6154C14.0964 25.4983 14.2212 24.9129 14.3365 24.308C14.4613 23.6153 14.5765 23.2445 14.6341 23.2835C14.6918 23.3128 14.9318 23.4787 15.1719 23.6543ZM24.4382 27.6253L25.0912 28.4839L23.8045 30.4352C23.1035 31.4987 22.5081 32.3768 22.4697 32.3768C22.4409 32.3768 21.7784 31.7231 21.0006 30.9328L19.5794 29.4888L19.9923 29.362C20.991 29.0498 22.4313 28.0643 23.2091 27.1472C23.4588 26.8545 23.6893 26.6496 23.7181 26.6886C23.7565 26.7374 24.0733 27.157 24.4382 27.6253ZM14.1636 27.4106C14.9702 28.2399 15.9209 28.9034 16.8139 29.2546L17.4669 29.5083L16.0457 30.9523L14.6245 32.3963L13.7123 31.0401C13.213 30.2986 12.6272 29.4205 12.4064 29.0985L12.0127 28.4936L12.6944 27.6058C13.0689 27.1179 13.405 26.7179 13.4338 26.7179C13.4722 26.7179 13.7987 27.0301 14.1636 27.4106ZM12.0031 26.8643C12.0031 26.8935 11.158 28.0155 10.1306 29.3522C8.16208 31.928 7.98924 32.2304 8.11407 33.0012C8.14288 33.2354 8.72863 34.455 9.50643 35.938L10.8316 38.4747L6.02074 38.504C3.37046 38.5138 1.14269 38.504 1.07547 38.4747C0.989053 38.4455 0.960245 37.9381 0.960245 36.4063C0.960245 34.0647 1.06587 33.4208 1.59401 32.2987C2.04532 31.3426 3.17841 30.1523 4.17707 29.5864C4.60918 29.3425 6.12636 28.7766 8.35413 28.0253C12.0031 26.7862 12.0031 26.7862 12.0031 26.8643ZM28.6153 27.9668L32.0242 29.1181L32.0818 30.523C32.149 32.1134 32.2834 32.7476 32.8212 33.7915C33.2437 34.6208 34.3672 35.8307 35.385 36.5819L36.1052 37.1088L36.0764 37.7918L36.0572 38.4747L31.1888 38.504C28.5001 38.5138 26.3107 38.4943 26.3107 38.465C26.3107 38.4357 26.762 37.5381 27.3094 36.4844C29.009 33.2451 28.9994 33.2549 28.9994 32.7183C28.9994 32.4353 28.9226 32.0743 28.8266 31.889C28.7305 31.7036 27.9623 30.6499 27.1173 29.5473C25.1008 26.913 25.024 26.8155 25.12 26.8252C25.168 26.8252 26.7428 27.3423 28.6153 27.9668ZM12.8673 31.528C14.4805 33.9281 14.4901 33.9281 15.2199 33.2451C15.4599 33.0207 15.6712 32.8549 15.6904 32.8744C15.7096 32.8939 15.8729 33.1378 16.0553 33.4208L16.3818 33.9281L16.1705 36.0551C16.0457 37.2259 15.9497 38.2601 15.9497 38.3479C15.9401 38.5138 15.7768 38.5235 13.9332 38.5235H11.9358L10.5147 35.8112C9.4008 33.694 9.09352 33.0207 9.08392 32.7183C9.07432 32.3573 9.17034 32.1914 10.217 30.8352C10.8412 30.0157 11.3789 29.3717 11.4173 29.401C11.4461 29.4303 12.0991 30.3864 12.8673 31.528ZM26.7428 30.6303C27.9527 32.2207 28.0392 32.3573 28.0392 32.7183C28.0392 32.9037 27.5302 33.9769 26.618 35.7429L25.1968 38.4747L23.1803 38.504L21.1638 38.5235L20.9429 36.2307L20.7221 33.9281L21.0774 33.3915C21.279 33.0988 21.4615 32.8646 21.4999 32.8646C21.5383 32.8646 21.74 33.0403 21.9416 33.2549C22.6234 33.9671 22.6426 33.9574 24.2558 31.4987C25.0336 30.3181 25.6962 29.3522 25.725 29.3522C25.7538 29.362 26.2147 29.9279 26.7428 30.6303ZM20.7413 32.1134C20.7413 32.1524 20.5589 32.4548 20.338 32.7671L19.9347 33.3525H18.5423H17.1404L16.7371 32.7378L16.3434 32.1329L17.4573 30.9913L18.5807 29.84L19.6562 30.9328C20.2516 31.5377 20.7413 32.0646 20.7413 32.1134ZM19.8195 34.7379C19.9155 35.4209 20.1651 38.0454 20.1651 38.2894V38.5235H18.5327C17.6397 38.5235 16.9003 38.5138 16.9003 38.4943C16.9003 38.4747 16.9867 37.6162 17.0924 36.5722C17.198 35.5282 17.2844 34.6013 17.2844 34.5038C17.2844 34.3477 17.3996 34.3281 18.5231 34.3281H19.7715L19.8195 34.7379Z" fill="#2591B2"/>
</svg>
