<svg width="66" height="66" viewBox="0 0 66 66" fill="none" xmlns="http://www.w3.org/2000/svg">
<path d="M14.3692 1.12959C14.0489 1.2764 13.782 1.7702 13.782 2.19728C13.782 2.37078 14.2891 2.99804 15.1433 3.8522L16.5046 5.24019H10.1252H3.75906L3.43876 5.57384L3.1051 5.89415V10.5786V15.2631L3.43876 15.5834C3.86583 16.0238 4.47975 16.0238 4.90683 15.5834L5.24048 15.2631V11.3127V7.37557H8.44355H11.6466V12.714V18.0525H6.64182H1.62369L1.30338 18.3861L0.969727 18.7064V29.797V40.8876L1.30338 41.208C1.50357 41.4215 1.78384 41.5416 2.03742 41.5416C2.29099 41.5416 2.57126 41.4215 2.77145 41.208L3.1051 40.8876V34.8018V28.7293H19.8545H36.6172L36.9375 28.3957C37.3779 27.9686 37.3779 27.3547 36.9375 26.9276L36.6172 26.594H27.3283H18.0527V25.5263V24.4586H19.3206C20.4951 24.4586 20.6285 24.4319 20.9222 24.1249C21.1357 23.9247 21.2558 23.6445 21.2558 23.3909C21.2558 23.1373 21.1357 22.8571 20.9222 22.6569C20.6285 22.3499 20.4951 22.3232 19.3206 22.3232H18.0527V21.2555V20.1878H28.7296H39.4065V41.5416V62.8954H25.5266H11.6466V60.026C11.6466 57.1432 11.6466 57.1432 11.313 56.8229L10.9927 56.4893H7.04221H3.1051V50.4168V44.3309L2.77145 44.0106C2.34438 43.5702 1.73045 43.5702 1.30338 44.0106L0.969727 44.3309V54.3539V64.3768L1.30338 64.6971L1.62369 65.0308H21.2558H40.8879L41.2082 64.6971C41.5286 64.3901 41.5419 64.3101 41.5419 62.5751V60.7734L46.1997 60.7333C50.6706 60.6933 50.8842 60.6799 51.2312 60.413C51.4314 60.2662 51.725 59.9726 51.8718 59.7724C52.1387 59.4254 52.1521 59.2386 52.1521 55.4216C52.1521 51.6046 52.1387 51.4177 51.8718 51.0707C51.725 50.8705 51.4314 50.5769 51.2312 50.4301C50.8842 50.1632 50.6706 50.1498 46.1997 50.1098L41.5419 50.0698V49.0154V47.9477H50.0834H58.6249V55.4216V62.8954H51.4848H44.3312L44.0109 63.229C43.5705 63.6561 43.5705 64.27 44.0109 64.6971L44.3312 65.0308H52.2188H60.1063L60.4266 64.6971L60.7603 64.3768V55.4216V46.4663L60.4266 46.146L60.1063 45.8124H50.8174H41.5419V36.737V27.6617H52.2188H62.8957V46.0126V64.3768L63.2293 64.6971C63.6564 65.1375 64.2703 65.1375 64.6974 64.6971L65.0311 64.3768V33.0001V1.62339L64.6974 1.30309L64.3771 0.969437H47.4142H30.4513L30.131 1.30309L29.7973 1.62339V8.44326V15.2631L30.131 15.5834C30.5581 16.0238 31.172 16.0238 31.599 15.5834L31.9327 15.2631V9.17729V3.10481H47.4142H62.8957V14.3155V25.5263H52.2188H41.5419V22.123V18.7064L41.2082 18.3861L40.8879 18.0525H33.7344H26.5943V11.98V5.89415L26.2606 5.57384C25.9403 5.25354 25.8869 5.24019 23.845 5.24019H21.7363L23.0976 3.8522C24.2453 2.69109 24.4589 2.41082 24.4589 2.05047C24.4589 1.47659 23.9517 0.969437 23.3778 0.969437C23.0042 0.969437 22.6972 1.20967 21.0289 2.86458L19.1204 4.75973L17.2119 2.86458C15.2367 0.902702 15.0499 0.795937 14.3692 1.12959ZM15.9174 8.44326V9.51094H14.8497H13.782V8.44326V7.37557H14.8497H15.9174V8.44326ZM20.1881 8.44326V9.51094H19.1204H18.0527V8.44326V7.37557H19.1204H20.1881V8.44326ZM24.4589 8.44326V9.51094H23.3912H22.3235V8.44326V7.37557H23.3912H24.4589V8.44326ZM15.9174 12.714V13.7817H14.8497H13.782V12.714V11.6463H14.8497H15.9174V12.714ZM20.1881 12.714V13.7817H19.1204H18.0527V12.714V11.6463H19.1204H20.1881V12.714ZM24.4589 12.714V13.7817H23.3912H22.3235V12.714V11.6463H23.3912H24.4589V12.714ZM15.9174 16.9848V18.0525H14.8497H13.782V16.9848V15.9171H14.8497H15.9174V16.9848ZM20.1881 16.9848V18.0525H19.1204H18.0527V16.9848V15.9171H19.1204H20.1881V16.9848ZM24.4589 16.9848V18.0525H23.3912H22.3235V16.9848V15.9171H23.3912H24.4589V16.9848ZM15.9174 23.3909V26.594H9.51124H3.1051V23.3909V20.1878H9.51124H15.9174V23.3909ZM46.3465 52.2585C46.3465 52.2719 45.2655 53.3663 43.9442 54.6875L41.5419 57.0898V54.6475V52.2185H43.9442C45.2655 52.2185 46.3465 52.2318 46.3465 52.2585ZM50.0834 55.4216V58.6246H46.5867H43.0767L46.2798 55.4216C48.5753 53.126 49.5629 52.2185 49.7764 52.2185H50.0834V55.4216ZM9.51124 60.76V62.8954H6.30817H3.1051V60.76V58.6246H6.30817H9.51124V60.76Z" fill="#1F3F98"/>
<path d="M5.57389 22.6568C5.36035 22.857 5.24023 23.1372 5.24023 23.3908C5.24023 23.6444 5.36035 23.9247 5.57389 24.1248L5.89419 24.4585H9.51099H13.1278L13.4481 24.1248C13.8885 23.6978 13.8885 23.0838 13.4481 22.6568L13.1278 22.3231H9.51099H5.89419L5.57389 22.6568Z" fill="#1F3F98"/>
<path d="M56.4899 8.61679C55.8359 8.83032 54.7148 9.97809 54.5146 10.6587C54.2611 11.5129 54.3145 12.02 54.6881 12.3804C55.3421 13.0477 56.4899 12.5806 56.4899 11.6464C56.4899 11.0992 57.0104 10.5787 57.5576 10.5787C57.8111 10.5787 58.0914 10.6988 58.2916 10.9123C58.6252 11.2326 58.6252 11.2593 58.6252 13.7817C58.6252 16.3041 58.6252 16.3308 58.2916 16.6511C57.6376 17.3185 56.4899 16.8513 56.4899 15.9171C56.4899 15.3699 55.9694 14.8494 55.4222 14.8494C54.8616 14.8494 54.3545 15.3699 54.3545 15.9305C54.3545 16.7579 54.6615 17.4386 55.3555 18.1192C56.3297 19.1068 57.3707 19.3471 58.6653 18.9066C59.426 18.6531 60.3736 17.6654 60.6005 16.878C60.7072 16.5577 60.7606 15.3833 60.7606 13.7817C60.7606 12.1802 60.7072 11.0057 60.6005 10.6854C60.3736 9.89801 59.426 8.9104 58.6653 8.65683C57.9579 8.41659 57.1705 8.40325 56.4899 8.61679Z" fill="#1F3F98"/>
<path d="M7.70957 9.84427C7.04226 10.4982 7.50938 11.646 8.44361 11.646C8.9908 11.646 9.51129 11.1255 9.51129 10.5783C9.51129 10.0311 8.9908 9.51062 8.44361 9.51062C8.19003 9.51062 7.90976 9.63073 7.70957 9.84427Z" fill="#1F3F98"/>
<path d="M7.70957 14.1153C7.04226 14.7692 7.50938 15.917 8.44361 15.917C8.9908 15.917 9.51129 15.3965 9.51129 14.8493C9.51129 14.3021 8.9908 13.7816 8.44361 13.7816C8.19003 13.7816 7.90976 13.9017 7.70957 14.1153Z" fill="#1F3F98"/>
<path d="M25.86 22.6568C25.1927 23.3107 25.6598 24.4585 26.594 24.4585C27.1412 24.4585 27.6617 23.938 27.6617 23.3908C27.6617 22.8436 27.1412 22.3231 26.594 22.3231C26.3404 22.3231 26.0602 22.4432 25.86 22.6568Z" fill="#1F3F98"/>
<path d="M30.1305 22.6568C29.4632 23.3107 29.9303 24.4585 30.8645 24.4585C31.4117 24.4585 31.9322 23.938 31.9322 23.3908C31.9322 22.8436 31.4117 22.3231 30.8645 22.3231C30.6109 22.3231 30.3307 22.4432 30.1305 22.6568Z" fill="#1F3F98"/>
<path d="M34.402 22.6568C34.1885 22.857 34.0684 23.1372 34.0684 23.3908C34.0684 23.6444 34.1885 23.9247 34.402 24.1248C34.6022 24.3384 34.8825 24.4585 35.136 24.4585C35.3896 24.4585 35.6699 24.3384 35.8701 24.1248C36.0836 23.9247 36.2037 23.6444 36.2037 23.3908C36.2037 23.1372 36.0836 22.857 35.8701 22.6568C35.6699 22.4432 35.3896 22.3231 35.136 22.3231C34.8825 22.3231 34.6022 22.4432 34.402 22.6568Z" fill="#1F3F98"/>
<path d="M5.57389 31.1983C5.36035 31.3985 5.24023 31.6787 5.24023 31.9323C5.24023 32.1859 5.36035 32.4662 5.57389 32.6663C5.88085 32.9867 5.94758 33 7.90946 33C9.87133 33 9.93807 32.9867 10.245 32.6663C10.4586 32.4662 10.5787 32.1859 10.5787 31.9323C10.5787 31.6787 10.4586 31.3985 10.245 31.1983C9.93807 30.878 9.87133 30.8646 7.90946 30.8646C5.94758 30.8646 5.88085 30.878 5.57389 31.1983Z" fill="#1F3F98"/>
<path d="M32.2663 31.1983C32.0527 31.3985 31.9326 31.6787 31.9326 31.9323C31.9326 32.1859 32.0527 32.4662 32.2663 32.6663C32.5732 32.9867 32.64 33 34.6018 33C36.5637 33 36.6304 32.9867 36.9374 32.6663C37.1509 32.4662 37.2711 32.1859 37.2711 31.9323C37.2711 31.6787 37.1509 31.3985 36.9374 31.1983C36.6304 30.878 36.5637 30.8646 34.6018 30.8646C32.64 30.8646 32.5732 30.878 32.2663 31.1983Z" fill="#1F3F98"/>
<path d="M56.4899 31.0382C55.8359 31.2517 54.7148 32.3995 54.5146 33.0801C54.4079 33.4271 54.3545 34.5749 54.3545 36.2031C54.3545 39.2861 54.4346 39.6331 55.3555 40.5406C56.3297 41.5282 57.3707 41.7684 58.6653 41.328C59.426 41.0744 60.3736 40.0868 60.6005 39.2994C60.7072 38.9791 60.7606 37.8047 60.7606 36.2031C60.7606 34.6016 60.7072 33.4271 60.6005 33.1068C60.3736 32.3194 59.426 31.3318 58.6653 31.0782C57.9579 30.838 57.1705 30.8246 56.4899 31.0382ZM58.2916 33.3337C58.6252 33.654 58.6252 33.6807 58.6252 36.2031C58.6252 38.7255 58.6252 38.7522 58.2916 39.0725C58.0914 39.2861 57.8111 39.4062 57.5576 39.4062C57.304 39.4062 57.0237 39.2861 56.8235 39.0725C56.4899 38.7522 56.4899 38.7255 56.4899 36.2031C56.4899 33.6807 56.4899 33.654 56.8235 33.3337C57.0237 33.1202 57.304 33.0001 57.5576 33.0001C57.8111 33.0001 58.0914 33.1202 58.2916 33.3337Z" fill="#1F3F98"/>
<path d="M19.2273 32.0794C16.5581 32.4664 13.8355 33.7743 11.7535 35.6561C10.0719 37.1776 8.53705 39.7267 7.82971 42.1423C7.40263 43.6371 7.24248 46.4264 7.5094 48.0413C8.05659 51.4979 10.0318 54.7811 12.8478 56.9165C13.9556 57.7706 16.3445 58.9317 17.7192 59.2921C19.0938 59.6658 21.9232 59.7992 23.3646 59.559C29.9042 58.518 34.7221 53.1529 35.0958 46.5332C35.256 43.6237 34.4552 40.6876 32.827 38.1785C32.173 37.1909 31.3589 37.0441 30.8117 37.8315C30.4914 38.2853 30.5448 38.5522 31.1854 39.5932C34.1482 44.3444 33.3875 50.457 29.3703 54.3006C27.1148 56.4627 24.4056 57.5571 21.2959 57.5571C18.8402 57.5571 16.7583 56.9565 14.8097 55.6886C8.79063 51.7248 7.69625 43.3568 12.4875 37.9917C13.9956 36.3234 16.0643 35.0422 18.2664 34.455C19.6677 34.0679 22.6305 34.0279 23.8984 34.3749C25.1796 34.7219 26.4208 35.2424 27.4885 35.8963C28.5829 36.5503 28.8365 36.5903 29.3436 36.1633C29.8374 35.7362 29.8374 35.1223 29.3303 34.6018C28.8231 34.0813 26.6878 32.9869 25.3265 32.5598C23.458 31.9726 21.1625 31.7991 19.2273 32.0794Z" fill="#1F3F98"/>
<path d="M19.1739 36.39C13.4217 37.6979 10.2187 43.7704 12.3407 49.3224C12.8745 50.7104 13.2482 51.1508 13.9155 51.1508C14.3159 51.1508 14.4894 51.0707 14.703 50.8038C15.0767 50.3367 15.0633 50.1365 14.5829 49.1355C12.9146 45.5988 14.0223 41.6617 17.3188 39.513C19.6277 38.0049 22.8841 38.0182 25.233 39.5263C26.7812 40.5273 27.7955 41.8619 28.4094 43.677C28.7564 44.6913 28.7564 46.9334 28.4094 47.9477C27.5686 50.4435 25.887 52.1251 23.3913 52.9659C22.8574 53.1527 22.2702 53.2194 21.2559 53.2194C19.7745 53.2194 19.0405 53.0459 17.7592 52.4053C16.9852 52.0183 16.7182 52.005 16.2645 52.3653C15.9975 52.5788 15.9175 52.7523 15.9175 53.1527C15.9175 53.82 16.3579 54.1937 17.7459 54.7276C22.7774 56.6494 28.2626 54.2604 30.2378 49.2823C30.7183 48.0545 30.9051 46.8 30.8384 45.2251C30.7183 42.8095 29.744 40.6608 27.9957 38.9391C26.8479 37.818 25.9137 37.2442 24.3655 36.697C23.3512 36.35 22.9642 36.2832 21.5896 36.2432C20.5619 36.2299 19.6944 36.2699 19.1739 36.39Z" fill="#1F3F98"/>
<path d="M54.6881 50.4165C54.0208 51.0705 54.4879 52.2183 55.4221 52.2183C55.9693 52.2183 56.4898 51.6978 56.4898 51.1506C56.4898 50.6034 55.9693 50.0829 55.4221 50.0829C55.1685 50.0829 54.8883 50.203 54.6881 50.4165Z" fill="#1F3F98"/>
<path d="M54.6881 54.6875C54.0208 55.3415 54.4879 56.4893 55.4221 56.4893C55.9693 56.4893 56.4898 55.9688 56.4898 55.4216C56.4898 54.8744 55.9693 54.3539 55.4221 54.3539C55.1685 54.3539 54.8883 54.474 54.6881 54.6875Z" fill="#1F3F98"/>
</svg>
