<svg width="46" height="46" viewBox="0 0 46 46" fill="none" xmlns="http://www.w3.org/2000/svg">
<path d="M0 16.1058V32.2027L5.39373 37.5743L10.7784 42.9369H20.1498H29.5212L32.209 44.464L34.8969 46L38.0808 44.1855C41.842 42.0476 42.311 41.7333 43.2671 40.7541C44.3314 39.6583 44.9718 38.6432 45.4859 37.215C45.991 35.8227 46 35.661 46 28.6456V22.1871H44.2051C42.2659 22.1871 41.3549 22.0793 40.2725 21.711C38.2882 21.0373 36.6286 19.7528 35.42 17.9473C35.1584 17.561 34.9329 17.2556 34.9059 17.2466C34.8788 17.2466 34.5902 17.6149 34.2745 18.073C32.8314 20.1121 31.1357 21.2978 28.7725 21.9356C28.2043 22.0883 27.7353 22.1242 25.9133 22.1601L23.7216 22.205V28.2863C23.7216 32.1578 23.7576 34.655 23.8208 35.167C24.0824 37.2958 25.0204 39.2451 26.5086 40.7811L27.122 41.4099H19.4643H11.8157L11.8337 39.9547L11.8608 38.4905L16.7133 38.4636L21.5569 38.4456L21.5388 31.8164L21.5118 25.1963L13.7369 25.1693L5.95294 25.1513V28.1156V31.0799H3.69804H1.44314L1.46118 16.2765L1.48824 1.48214H17.8137H34.1392L34.1663 8.14724L34.1843 14.8213H34.9059H35.6274V7.41066V3.8147e-06H17.8137H0V16.1058ZM37.2149 21.8457C39.0549 23.0584 40.7416 23.5704 43.2671 23.6872L44.5659 23.7411L44.5388 29.5438C44.5027 35.1849 44.5027 35.3646 44.3043 36.0473C43.8804 37.5653 43.0145 39.0115 41.9322 40.0086C41.1925 40.6913 41.0212 40.7991 37.7651 42.6585L34.8969 44.2933L31.9024 42.5866C28.5922 40.7003 28.52 40.6553 27.6992 39.8559C26.662 38.8409 26.0035 37.754 25.5525 36.3167L25.3 35.5263L25.2729 29.6337L25.2459 23.7411L26.4906 23.6872C28.0239 23.6153 29.0431 23.4446 30.0894 23.0764C31.6769 22.5284 33.3094 21.4774 34.3376 20.3546L34.8608 19.7797L35.7267 20.6061C36.1957 21.0642 36.8722 21.6212 37.2149 21.8457ZM20.0235 31.8434V37.0084L15.9467 36.9904L11.8608 36.9635L11.8337 34.0172L11.8157 31.0799H9.60588H7.39608V28.8791V26.6784H13.7098H20.0235V31.8434ZM10.3725 36.4425V40.3769L6.49412 36.5144C4.35647 34.3945 2.61569 32.6249 2.61569 32.5889C2.61569 32.544 4.35647 32.5171 6.49412 32.5171H10.3725V36.4425Z" fill="#2591B2"/>
<path d="M36.0796 30.3163L31.164 35.2118L29.9463 33.9992L28.7287 32.7865L28.2055 33.3075L27.6914 33.8195L29.4322 35.5532L31.164 37.2778L36.6208 31.8433L42.0777 26.4089L41.5816 25.9148C41.311 25.6453 41.0675 25.4208 41.0404 25.4208C41.0134 25.4208 38.7855 27.6215 36.0796 30.3163Z" fill="#2591B2"/>
<path d="M41.5625 32.3554C41.5354 35.0412 41.5264 35.0861 41.2919 35.7418C40.9041 36.7928 40.1645 37.7719 39.3076 38.3378L38.9648 38.5623L39.3076 39.1732C39.488 39.5145 39.6864 39.793 39.7405 39.793C39.948 39.793 41.0845 38.8408 41.5084 38.3108C42.0856 37.6012 42.6268 36.5323 42.8433 35.6969C43.0056 35.0861 43.0237 34.6908 43.0237 32.3194V29.6426H42.3111H41.5986L41.5625 32.3554Z" fill="#2591B2"/>
<path d="M8.85909 28.8521L8.88615 29.5977H13.7116H18.5371L18.5642 28.8521L18.5912 28.1155H13.7116H8.83203L8.85909 28.8521Z" fill="#2591B2"/>
<path d="M13.3477 31.7985V32.5171H15.9633H18.579V31.7985V31.0799H15.9633H13.3477V31.7985Z" fill="#2591B2"/>
<path d="M13.3477 34.7628V35.4814H15.9633H18.579V34.7628V34.0442H15.9633H13.3477V34.7628Z" fill="#2591B2"/>
<path d="M4.41797 5.16498V7.36572H17.8121H31.2062V5.16498V2.96424H17.8121H4.41797V5.16498ZM29.6729 5.16498V5.9285H17.8121H5.9513V5.16498V4.40146H17.8121H29.6729V5.16498Z" fill="#2591B2"/>
<path d="M4.41797 11.0934V11.8569H16.3239H28.2388L28.2117 11.1114L28.1846 10.3748L16.3058 10.3479L4.41797 10.3299V11.0934Z" fill="#2591B2"/>
<path d="M29.6758 11.0937V11.8662L30.4244 11.8393L31.164 11.8123V11.0937V10.3751L30.4244 10.3481L29.6758 10.3212V11.0937Z" fill="#2591B2"/>
<path d="M4.41797 14.0578V14.8213H16.3239H28.2388L28.2117 14.0757L28.1846 13.3392L16.3058 13.3122L4.41797 13.2942V14.0578Z" fill="#2591B2"/>
<path d="M29.6758 14.0576V14.8301L30.4244 14.8031L31.164 14.7762V14.0576V13.339L30.4244 13.312L29.6758 13.2851V14.0576Z" fill="#2591B2"/>
<path d="M4.41797 17.0221V17.7856L16.3058 17.7677L28.1846 17.7407L28.2117 16.9952L28.2388 16.2586H16.3239H4.41797V17.0221Z" fill="#2591B2"/>
<path d="M29.6758 17.0219V17.7944L30.4244 17.7675L31.164 17.7405V17.0219V16.3033L30.4244 16.2764L29.6758 16.2494V17.0219Z" fill="#2591B2"/>
<path d="M4.41797 19.9865V20.75L11.4803 20.732L18.5337 20.7051V19.9865V19.2679L11.4803 19.2409L4.41797 19.223V19.9865Z" fill="#2591B2"/>
<path d="M20.0234 19.9863V20.7588L20.7721 20.7318L21.5117 20.7049V19.9863V19.2677L20.7721 19.2407L20.0234 19.2138V19.9863Z" fill="#2591B2"/>
<path d="M4.41797 22.9503V23.7139L11.4803 23.6959L18.5337 23.669V22.9503V22.2317L11.4803 22.2048L4.41797 22.1868V22.9503Z" fill="#2591B2"/>
<path d="M20.0234 22.9506V23.7231L20.7721 23.6962L21.5117 23.6692V22.9506V22.232L20.7721 22.2051L20.0234 22.1781V22.9506Z" fill="#2591B2"/>
</svg>
