<svg width="25" height="25" viewBox="0 0 25 25" fill="none" xmlns="http://www.w3.org/2000/svg">
<path fill-rule="evenodd" clip-rule="evenodd" d="M12.5 25C19.4036 25 25 19.4036 25 12.5C25 5.59644 19.4036 0 12.5 0C5.59644 0 0 5.59644 0 12.5C0 19.4036 5.59644 25 12.5 25ZM13.14 7H13.051V7.001H12.858C11.9058 7.00437 10.9537 7.02137 10.002 7.052L9.831 7.059L9.745 7.062L9.573 7.068L9.403 7.075C8.293 7.125 7.236 7.205 6.749 7.335C6.40937 7.42689 6.09986 7.60645 5.85151 7.85568C5.60316 8.10491 5.42469 8.41505 5.334 8.755C5.233 9.134 5.162 9.638 5.114 10.157L5.104 10.261L5.082 10.521L5.074 10.625L5.071 10.677L5.064 10.78C5.01 11.6 5.002 12.343 5 12.558V12.681C5.0053 13.3604 5.03265 14.0394 5.082 14.717L5.09 14.821L5.098 14.926C5.148 15.498 5.222 16.067 5.333 16.484C5.42385 16.8238 5.60238 17.1337 5.85072 17.3827C6.09907 17.6318 6.40849 17.8112 6.748 17.903C7.235 18.035 8.292 18.114 9.402 18.163L9.573 18.17L9.744 18.177L9.831 18.181L10.001 18.187C11.341 18.233 12.619 18.239 12.928 18.239H13.07C13.681 18.238 18.09 18.216 19.25 17.904C19.5896 17.8121 19.8991 17.6325 20.1475 17.3833C20.3958 17.1341 20.5743 16.824 20.665 16.484C20.776 16.066 20.85 15.498 20.9 14.926L20.909 14.822L20.917 14.717C20.989 13.765 20.998 12.851 20.999 12.657V12.582C20.998 12.395 20.99 11.539 20.925 10.625L20.917 10.521L20.895 10.261L20.885 10.157C20.837 9.638 20.766 9.135 20.665 8.755C20.574 8.41518 20.3955 8.10519 20.1472 7.85601C19.8989 7.60682 19.5895 7.42717 19.25 7.335C18.127 7.033 13.962 7.003 13.14 7ZM11.4 15.028V10.21L15.557 12.62L11.4 15.028Z" fill="white"/>
</svg>
