<svg width="22" height="16" viewBox="0 0 22 16" fill="none" xmlns="http://www.w3.org/2000/svg">
<path opacity="0.5" d="M20.3077 0H1.69231C1.24348 0 0.813035 0.153246 0.495665 0.426026C0.178296 0.698807 0 1.06878 0 1.45455V14.5455C0 14.9312 0.178296 15.3012 0.495665 15.574C0.813035 15.8468 1.24348 16 1.69231 16H20.3077C20.7565 16 21.187 15.8468 21.5043 15.574C21.8217 15.3012 22 14.9312 22 14.5455V1.45455C22 1.06878 21.8217 0.698807 21.5043 0.426026C21.187 0.153246 20.7565 0 20.3077 0ZM20.3077 14.5455H1.69231V1.45455H20.3077V14.5455ZM16.0769 4.36364C16.0769 5.52095 15.542 6.63085 14.5899 7.44919C13.6378 8.26753 12.3465 8.72727 11 8.72727C9.65352 8.72727 8.36218 8.26753 7.41007 7.44919C6.45797 6.63085 5.92308 5.52095 5.92308 4.36364C5.92308 4.17075 6.01223 3.98577 6.17091 3.84938C6.32959 3.71299 6.54482 3.63636 6.76923 3.63636C6.99364 3.63636 7.20887 3.71299 7.36755 3.84938C7.52624 3.98577 7.61538 4.17075 7.61538 4.36364C7.61538 5.13518 7.97198 5.87511 8.60672 6.42067C9.24145 6.96624 10.1023 7.27273 11 7.27273C11.8977 7.27273 12.7585 6.96624 13.3933 6.42067C14.028 5.87511 14.3846 5.13518 14.3846 4.36364C14.3846 4.17075 14.4738 3.98577 14.6324 3.84938C14.7911 3.71299 15.0064 3.63636 15.2308 3.63636C15.4552 3.63636 15.6704 3.71299 15.8291 3.84938C15.9878 3.98577 16.0769 4.17075 16.0769 4.36364Z" fill="black"/>
</svg>
