<svg width="22" height="22" viewBox="0 0 22 22" fill="none" xmlns="http://www.w3.org/2000/svg">
<path d="M7.87356 0.377548C7.78243 0.468683 7.76507 0.52076 7.76507 0.759445V1.03719L7.58714 1.06757C7.28769 1.1153 6.74522 1.34531 6.38937 1.57966C5.5084 2.15251 4.88347 3.09423 4.70554 4.10973C4.67082 4.31804 4.64045 4.49597 4.64045 4.50031C4.64045 4.50465 4.57969 4.53503 4.51025 4.56541C4.21515 4.68692 3.94609 5.12524 3.94609 5.47676C3.94609 5.82828 4.21515 6.26659 4.51025 6.3881L4.64045 6.44018V6.82642V7.21266H4.39742C4.26289 7.21266 4.07194 7.23435 3.97212 7.26473C3.73344 7.33417 3.37324 7.69437 3.3038 7.93305C3.18229 8.34099 3.26908 8.66647 3.57721 8.97026C3.82891 9.22196 4.01986 9.29574 4.4278 9.29574H4.70554L4.78366 9.6299C5.02234 10.6845 5.88161 11.7824 6.84504 12.2641C7.06637 12.377 7.07071 12.3813 7.07071 12.5679V12.7589L5.8252 12.7806C4.89215 12.7979 4.50157 12.8196 4.28025 12.8717C3.22569 13.1191 2.39245 13.5747 1.66338 14.3038C1.06449 14.907 0.643535 15.584 0.39183 16.3609C0.166163 17.0639 0.148804 17.2245 0.148804 18.9126V20.4749L0.309374 20.8048C0.504663 21.1997 0.756369 21.4427 1.15997 21.6336L1.45073 21.7725H8.80661H16.1625L16.4532 21.6336C16.8525 21.447 17.1085 21.1997 17.2995 20.8091C17.4471 20.5097 17.4601 20.4532 17.4774 20.0106C17.4948 19.5723 17.5035 19.5332 17.5903 19.5159C17.6771 19.4942 19.7211 19.0949 20.8928 18.8692C21.7 18.713 21.6523 18.7998 21.6523 17.4935V16.452L21.5438 16.3478L21.4396 16.2393H19.3088C17.3212 16.2393 17.178 16.235 17.1519 16.1612C17.1389 16.1222 17.0608 15.9442 16.9827 15.7663C16.4185 14.5251 15.2121 13.4576 13.8841 13.0323C13.2418 12.824 13.0422 12.8023 11.7707 12.7806L10.5425 12.7589V12.5679C10.5425 12.3813 10.5468 12.377 10.7725 12.2641C11.7316 11.7824 12.5909 10.6845 12.8296 9.6299L12.9077 9.29574H13.1854C13.5934 9.29574 13.7843 9.22196 14.036 8.97026C14.4613 8.5493 14.4743 8.00683 14.0707 7.55984C13.8494 7.31247 13.602 7.21266 13.2245 7.21266H12.9728V6.82642V6.44018L13.103 6.3881C13.3981 6.26659 13.6671 5.82828 13.6671 5.47676C13.6671 5.12524 13.3981 4.68692 13.103 4.56541C13.0335 4.53503 12.9728 4.50465 12.9728 4.50031C12.9728 4.49597 12.9424 4.32238 12.9077 4.11841C12.7731 3.35462 12.4086 2.65158 11.8444 2.08741C11.341 1.57966 10.6944 1.21078 10.0999 1.08493L9.84815 1.03285V0.759445C9.84815 0.525099 9.83079 0.464342 9.73965 0.377548C9.6355 0.269054 9.62682 0.269054 8.80661 0.269054C7.98639 0.269054 7.97771 0.269054 7.87356 0.377548ZM9.15379 2.00496V3.0465H8.80661H8.45943V2.00496V0.963415H8.80661H9.15379V2.00496ZM7.76507 2.63422C7.76507 3.82331 7.68695 3.74086 8.80661 3.74086C9.92626 3.74086 9.84815 3.82331 9.84815 2.63422C9.84815 2.14383 9.86551 1.74457 9.88286 1.74457C9.98268 1.74457 10.4557 1.93552 10.7118 2.07873C11.085 2.28704 11.6491 2.85121 11.8575 3.22442C12.0484 3.56293 12.1786 3.92747 12.2177 4.22257L12.248 4.43521H8.80661H5.36518L5.39556 4.22257C5.43462 3.92747 5.56481 3.56293 5.75576 3.22442C5.94671 2.87724 6.51088 2.3044 6.87108 2.09175C7.09241 1.9659 7.62185 1.74891 7.73469 1.74457C7.75205 1.74457 7.76507 2.14383 7.76507 2.63422ZM12.8643 5.23807C12.9337 5.30317 12.9728 5.3943 12.9728 5.47676C12.9728 5.55921 12.9337 5.65035 12.8643 5.71544L12.7601 5.82394H8.80661H4.85309L4.74894 5.71544C4.6795 5.65035 4.64045 5.55921 4.64045 5.47676C4.64045 5.3943 4.6795 5.30317 4.74894 5.23807L4.85309 5.12958H8.80661H12.7601L12.8643 5.23807ZM12.2697 7.8506C12.248 9.25668 12.2437 9.31744 12.018 9.91198C11.9659 10.0509 11.8314 10.3069 11.7142 10.4805C10.6814 12.0688 8.5983 12.5375 6.99693 11.5524C6.21578 11.0707 5.71236 10.3894 5.43028 9.42593C5.3782 9.23498 5.36084 8.9095 5.34349 7.8506L5.32613 6.5183H8.80661H12.2871L12.2697 7.8506ZM4.64045 8.2542V8.60138H4.40176C4.111 8.60138 3.94609 8.47552 3.94609 8.2542C3.94609 8.03287 4.111 7.90702 4.40176 7.90702H4.64045V8.2542ZM13.5586 8.01551C13.6281 8.08061 13.6671 8.17174 13.6671 8.2542C13.6671 8.47552 13.5022 8.60138 13.2115 8.60138H12.9728V8.2542V7.90702H13.2115C13.4111 7.90702 13.4718 7.92438 13.5586 8.01551ZM8.13395 12.7024C8.32489 12.7372 8.62868 12.7632 8.80661 12.7632C8.98454 12.7632 9.28832 12.7372 9.47927 12.7024C9.67022 12.6677 9.83079 12.6373 9.83947 12.6373C9.87419 12.6373 9.83947 13.2883 9.79607 13.4359C9.68324 13.8091 9.20586 14.1563 8.80661 14.1563C8.40735 14.1563 7.92998 13.8091 7.81714 13.4359C7.77375 13.2883 7.73903 12.6373 7.77809 12.6373C7.78243 12.6373 7.943 12.6677 8.13395 12.7024ZM7.1141 13.5227C7.1141 13.553 7.18354 13.7179 7.266 13.8829C7.4526 14.2561 7.71299 14.5078 8.10357 14.69C8.36829 14.8159 8.43339 14.8289 8.80661 14.8289C9.17982 14.8289 9.24492 14.8159 9.50965 14.69C9.90022 14.5078 10.1606 14.2561 10.3472 13.8829C10.4297 13.7179 10.4991 13.553 10.4991 13.5227C10.4991 13.4706 10.6901 13.4619 11.5363 13.4619C12.1048 13.4619 12.6603 13.4749 12.7731 13.4879L12.9728 13.5183V14.8767V16.2393H9.43153C6.7756 16.2393 5.84256 16.2524 5.70802 16.2914C5.46934 16.3609 5.10914 16.7211 5.0397 16.9597C5.00932 17.0639 4.98763 17.3937 4.98763 17.7322V18.3224H4.64045H4.29327V15.9573V13.5921L4.40176 13.5661C4.68818 13.4923 5.05272 13.4706 6.04219 13.4662C6.92315 13.4619 7.1141 13.4706 7.1141 13.5227ZM14.3311 13.9653C15.1383 14.3776 15.8934 15.137 16.31 15.9659L16.4446 16.2393H15.0558H13.6671V14.9591V13.6789L13.8841 13.7657C14.0056 13.8134 14.2053 13.9046 14.3311 13.9653ZM3.59891 16.0657V18.3224H3.25173H2.90455V18.6696V19.0168H4.88347C6.31125 19.0168 6.91448 19.0298 7.04467 19.0689C7.41789 19.1817 7.76507 19.6591 7.76507 20.0583C7.76507 20.4576 7.41789 20.9349 7.04467 21.0478C6.78862 21.1216 1.79791 21.1216 1.54186 21.0478C1.30318 20.9783 0.942978 20.6181 0.873542 20.3795C0.808446 20.1495 0.799766 17.7973 0.869202 17.3547C1.08185 15.9095 1.9932 14.625 3.26474 13.974C3.434 13.8829 3.58155 13.8091 3.59023 13.8091C3.59457 13.8091 3.59891 14.8246 3.59891 16.0657ZM9.15379 19.0168V21.0999H8.6417H8.12961L8.2815 20.7874C8.42905 20.4966 8.43773 20.4489 8.43773 20.0583C8.43773 19.6634 8.42905 19.6243 8.27716 19.3119C8.08187 18.917 7.83016 18.6739 7.42657 18.483C7.14014 18.3485 7.11844 18.3441 6.41106 18.3311L5.68199 18.3137V17.7322C5.68199 17.168 5.68633 17.142 5.79048 17.0422L5.89463 16.9337H7.52638H9.15379V19.0168ZM20.9579 17.5369V18.1445L20.7322 18.1879C20.0466 18.3268 9.9089 20.3187 9.88286 20.3187C9.86117 20.3187 9.84815 19.5549 9.84815 18.6262V16.9337H15.403H20.9579V17.5369ZM16.7917 19.9325C16.7917 20.08 16.7701 20.2796 16.7397 20.3795C16.6702 20.6181 16.31 20.9783 16.0713 21.0478C15.9498 21.0825 15.5245 21.0999 14.7781 21.0999H13.6671V20.6919V20.2883L15.1991 19.9845C16.0366 19.8153 16.7397 19.6764 16.7614 19.6721C16.7787 19.6721 16.7917 19.7893 16.7917 19.9325ZM12.9728 20.7744V21.0999H11.4105C10.3993 21.0999 9.84815 21.0825 9.84815 21.0565C9.84815 21.0304 9.89154 21.0131 9.94796 21.0087C10 21.0087 10.651 20.8829 11.3888 20.7353C12.1309 20.5834 12.7862 20.4576 12.8556 20.4532L12.9728 20.4489V20.7744Z" fill="#2591B2"/>
</svg>
