<svg width="22" height="22" viewBox="0 0 22 22" fill="none" xmlns="http://www.w3.org/2000/svg">
<path fill-rule="evenodd" clip-rule="evenodd" d="M19.783 20.2233H21.127V21.2313H19.783V20.2233ZM15.751 18.4593V18.2073H19.531C19.9931 18.2073 20.455 17.7453 20.455 17.2833V12.8313H21.127V19.5513H16.843C16.2006 19.5513 15.751 19.1017 15.751 18.4593ZM14.743 16.5273H18.103V17.5353H14.743V16.5273ZM15.415 14.8473C15.415 14.0335 16.4591 13.4734 17.128 14.1423C18.0557 15.07 16.6458 16.4799 15.7181 15.5522C15.5819 15.416 15.415 15.0998 15.415 14.8473ZM13.735 12.4113C13.914 12.4073 14.036 12.3461 14.2136 12.3018C14.4042 12.2543 14.5283 12.2235 14.7179 12.1761C15.0668 12.0889 15.3436 12.0083 15.6836 11.9238L17.641 11.4453C17.6465 11.6911 17.725 11.7082 17.725 12.0333C17.725 12.8698 16.8293 12.9913 16.3724 13.1167C14.8973 13.5213 14.0787 13.8866 13.735 12.4113ZM3.90704 7.32927C4.23332 7.70465 4.83104 10.2342 4.83104 10.8993C4.7463 10.8018 4.70998 10.6598 4.65695 10.5274L4.24792 9.25639C4.11145 8.7926 3.90704 7.89423 3.90704 7.32927ZM3.86505 7.24528C3.86505 7.13784 3.93155 7.23853 3.89002 7.24528C3.88952 7.24536 3.86505 7.36251 3.86505 7.24528ZM4.32704 6.53127C4.40776 6.49255 4.88063 6.36591 4.99905 6.36327L5.62386 8.04846C5.81414 8.61363 5.96949 9.33317 6.0731 9.95122C6.21865 10.8195 6.21704 11.1037 6.21704 11.9493C6.21704 12.6173 6.06395 13.7973 5.41905 13.7973C4.98526 13.7973 4.38024 12.9277 4.18282 12.5975C3.29934 11.1196 2.52105 8.66081 2.52105 6.95127C2.64749 6.92182 2.69118 6.92239 2.84557 6.8978C2.93314 6.88385 3.05046 6.84871 3.15105 6.82527C3.15105 8.36428 3.89782 10.9277 4.69638 12.2099C4.85244 12.4605 4.99882 12.7836 5.32586 12.6581C5.48753 12.596 5.52564 12.4997 5.54719 12.2874C5.72027 10.5835 5.12588 8.041 4.32704 6.53127ZM5.67105 6.15327C5.8593 6.14908 6.2306 6.03766 6.39007 5.9903L8.56904 5.43927L9.01333 6.54899C9.5223 7.86571 9.99183 10.3116 9.72173 11.8419C9.52059 12.9815 9.19024 12.886 7.9642 13.1924L6.67905 13.5033C6.69216 13.3457 6.74074 13.2691 6.78028 13.1005C7.10006 11.7368 6.84598 9.96882 6.53621 8.7321C6.41547 8.25006 6.30551 7.84372 6.14928 7.39703L5.67105 6.15327ZM10.249 12.5793C10.2611 12.4344 10.3188 12.3003 10.359 12.1432C10.7313 10.6871 10.3143 8.24787 9.85527 6.88304C9.70964 6.44998 9.43805 5.68184 9.24105 5.27128C9.91055 4.95003 10.9472 5.01108 11.3121 5.88823C11.3687 6.02425 11.3887 6.12043 11.4423 6.26203C11.5038 6.42469 11.5388 6.49046 11.6209 6.62943C11.8683 7.0483 12.2656 7.37323 12.7857 7.52261C13.4372 7.70974 13.9386 7.52539 14.5 7.38019C14.7719 7.30987 15.0456 7.23196 15.2974 7.1696C15.5709 7.10181 15.8955 7.03664 16.1363 6.95853C16.4079 6.87046 16.5665 6.5528 16.3137 6.34659C16.1136 6.18331 15.6555 6.35233 15.4567 6.40496C14.9253 6.54572 14.3602 6.67783 13.8244 6.83066C13.5528 6.90816 13.267 6.9542 12.9551 6.84919C11.939 6.50703 12.2388 5.80949 11.6234 5.07294C11.358 4.75537 10.792 4.41652 10.2494 4.38865C9.6338 4.35705 7.60492 4.96804 6.88912 5.14534L2.80758 6.1878C2.45839 6.27806 2.20762 6.25869 1.90741 6.13691C1.38474 5.92489 1.18652 5.5168 1.05104 4.93527C2.70684 4.54952 4.80083 3.95781 6.49377 3.53199L14.7179 1.42411C15.7709 1.16092 16.591 0.943757 17.6682 1.29611C18.535 1.57963 19.1813 1.97308 19.754 2.65427C20.0337 2.98689 20.2404 3.27656 20.4253 3.70497C20.519 3.92194 20.571 4.08148 20.6412 4.32907C20.6933 4.51265 20.7704 4.88879 20.833 5.01927C20.2238 5.3116 18.7531 5.26045 19.0093 5.91544C19.1103 6.17365 19.4795 6.13261 19.699 6.02727C19.9897 7.27482 20.5033 8.32516 19.866 9.42828C19.7734 9.58867 19.5413 9.88205 19.388 10.0003C18.7185 10.5169 17.9767 10.6263 17.053 10.8573C16.8033 10.9197 10.5068 12.5735 10.249 12.5793ZM7.22504 1.95327L9.15704 1.44927C9.1926 1.60188 9.2686 1.96164 9.32504 2.07927C9.14496 2.16568 8.59389 2.2687 8.35873 2.33096C8.04374 2.41437 7.71983 2.50713 7.39305 2.58327C7.37014 2.48496 7.25675 2.02422 7.22504 1.95327ZM9.99705 1.91127C9.84589 1.59625 9.84253 0.693269 9.45104 0.693269C9.26353 0.693269 7.44672 1.18446 7.09054 1.27277C6.84454 1.33376 6.46904 1.37823 6.46904 1.65927C6.46904 1.83956 6.66335 2.63102 6.72104 2.75127C6.57398 2.82183 6.11532 2.9132 5.92304 2.96127L0.975504 4.22974C0.674067 4.30502 0.295044 4.33297 0.295044 4.64127C0.295044 5.0332 0.567847 5.79535 0.738606 6.04571C0.919341 6.31071 1.43265 6.79412 1.80705 6.82527C1.80705 8.21644 2.34552 10.2264 2.8388 11.4635C3.25236 12.5007 4.2485 14.5113 5.54504 14.5113C5.74205 14.5113 9.82043 13.4318 10.2406 13.3268C10.5438 13.251 10.8633 13.1599 11.173 13.0832C11.4716 13.0092 12.878 12.6254 13.063 12.6213C13.1196 12.864 13.1745 13.0526 13.2719 13.2524C13.5681 13.8598 14.1036 14.1753 14.869 14.1753C14.7701 14.5998 14.6426 14.9517 14.8434 15.4609C14.9047 15.6163 15.0018 15.7232 15.037 15.8553C14.7371 15.8553 14.5762 15.8189 14.3809 15.9551C13.9342 16.2666 14.071 16.777 14.071 17.6193C14.071 17.8816 14.3968 18.2073 14.659 18.2073H15.079V18.6693C15.079 19.4441 15.8582 20.2233 16.633 20.2233H19.111V21.5673C19.111 21.7704 19.2439 21.9033 19.447 21.9033H21.463C21.6662 21.9033 21.799 21.7704 21.799 21.5673V12.4953C21.799 12.2921 21.6662 12.1593 21.463 12.1593H20.119C19.8646 12.1593 19.7845 12.3175 19.7803 12.5766C19.7588 13.9124 19.8372 15.9123 19.7854 17.1176C19.7629 17.6417 19.3235 17.5353 18.775 17.5353C18.775 16.7359 18.9051 16.2619 18.4652 15.9551C18.2617 15.8131 18.0806 15.8553 17.767 15.8553C17.8602 15.7162 17.911 15.6808 17.9906 15.4908C18.1799 15.0384 18.1368 14.4318 17.8921 14.0083C17.7543 13.7699 17.6029 13.6972 17.473 13.5033C18.0241 13.2117 18.4708 12.6289 18.4338 11.9552C18.4206 11.7145 18.313 11.495 18.313 11.2353C18.5762 11.2294 19.1407 11.0028 19.3199 10.8981C19.649 10.7057 19.7999 10.5647 20.0669 10.3011C20.6122 9.76282 20.875 9.0151 20.875 8.12728C20.875 7.572 20.512 6.46439 20.371 5.85928C20.5861 5.84138 20.8459 5.74229 21.0428 5.69105C21.8202 5.48886 21.6276 5.39738 21.3625 4.32183C21.0304 2.97458 20.2305 1.86679 19.0611 1.16318C18.9291 1.08376 18.8058 0.9951 18.6618 0.932504C17.1528 0.276475 16.1313 0.32283 14.5747 0.734968L9.99705 1.91127Z" fill="#2591B2"/>
</svg>
