<svg width="25" height="26" viewBox="0 0 25 26" fill="none" xmlns="http://www.w3.org/2000/svg">
<path d="M12.5684 0.881104C5.91441 0.881104 0.5 6.29401 0.5 12.9487C0.5 19.6035 5.91441 25.0164 12.5684 25.0164C19.2224 25.0164 24.6368 19.6035 24.6368 12.9487C24.6368 6.29401 19.2224 0.881104 12.5684 0.881104ZM12.5684 24.2126C6.35771 24.2126 1.30531 19.1594 1.30531 12.9487C1.30531 6.73806 6.35771 1.68491 12.5684 1.68491C18.7791 1.68491 23.8315 6.73806 23.8315 12.9487C23.8315 19.1594 18.7791 24.2126 12.5684 24.2126Z" fill="white"/>
<path d="M15.2028 6.17509H13.1948C10.6373 6.1495 10.3107 7.73228 10.3107 9.44526V10.6909H9.18175C9.13073 10.684 9.07882 10.6891 9.03005 10.7056C8.98129 10.7221 8.93699 10.7496 8.90059 10.786C8.86418 10.8224 8.83666 10.8667 8.82016 10.9155C8.80366 10.9642 8.79862 11.0161 8.80544 11.0672V13.3251C8.79862 13.3761 8.80366 13.428 8.82016 13.4768C8.83666 13.5255 8.86418 13.5698 8.90059 13.6062C8.93699 13.6426 8.98129 13.6701 9.03005 13.6866C9.07882 13.7032 9.13073 13.7082 9.18175 13.7014H10.3107V19.3461C10.3044 19.3972 10.3099 19.4491 10.3268 19.4977C10.3436 19.5464 10.3713 19.5906 10.4079 19.6269C10.4444 19.6632 10.4887 19.6907 10.5375 19.7072C10.5863 19.7238 10.6382 19.729 10.6893 19.7224H12.9885C13.2106 19.748 13.3905 19.5681 13.3197 19.3461L13.3212 13.7014H15.2028C15.2538 13.7082 15.3057 13.7032 15.3545 13.6866C15.4032 13.6701 15.4475 13.6426 15.4839 13.6062C15.5203 13.5698 15.5479 13.5255 15.5644 13.4768C15.5809 13.428 15.5859 13.3761 15.5791 13.3251V11.0672C15.5859 11.0161 15.5809 10.9642 15.5644 10.9155C15.5479 10.8667 15.5203 10.8224 15.4839 10.786C15.4475 10.7496 15.4032 10.7221 15.3545 10.7056C15.3057 10.6891 15.2538 10.684 15.2028 10.6909H13.319L13.3212 9.56192C13.3942 9.08099 13.3942 9.15926 13.8405 9.1856H15.187C15.2916 9.16227 15.403 9.17507 15.4813 9.09905C15.5595 9.02304 15.6047 8.91917 15.5783 8.80929V6.5514C15.5853 6.50042 15.5804 6.44852 15.564 6.39975C15.5476 6.35098 15.5201 6.30665 15.4838 6.27023C15.4474 6.23381 15.4031 6.20627 15.3544 6.18977C15.3057 6.17327 15.2538 6.16824 15.2028 6.17509ZM14.8001 8.39083L13.8563 8.3547C12.6875 8.3547 12.5897 8.98917 12.5897 9.63869L12.5866 11.0657C12.5865 11.1185 12.5969 11.1709 12.617 11.2197C12.6372 11.2685 12.6668 11.3129 12.7041 11.3503C12.7414 11.3877 12.7858 11.4174 12.8346 11.4377C12.8834 11.4579 12.9357 11.4683 12.9885 11.4683H14.8265V12.9224H12.9901C12.8834 12.9224 12.7811 12.9647 12.7056 13.0401C12.6301 13.1154 12.5876 13.2176 12.5874 13.3243L12.5866 18.9698H11.0633V13.3251C11.0633 13.103 10.912 12.9232 10.6893 12.9232H9.55807V11.4691H10.6893C10.7421 11.4692 10.7944 11.4588 10.8432 11.4387C10.892 11.4185 10.9364 11.389 10.9738 11.3517C11.049 11.2757 11.0626 11.1733 11.0626 11.0664V9.44451C11.0626 7.75711 11.4035 6.95331 13.194 6.95331H14.7994V8.39083H14.8001Z" fill="white"/>
</svg>
