<svg width="18" height="20" viewBox="0 0 18 20" fill="none" xmlns="http://www.w3.org/2000/svg">
<path opacity="0.5" d="M18 18.3663C18 18.6316 17.8946 18.8859 17.7071 19.0735C17.5196 19.261 17.2652 19.3663 17 19.3663H1C0.734784 19.3663 0.48043 19.261 0.292893 19.0735C0.105357 18.8859 2.4071e-07 18.6316 2.4071e-07 18.3663V7.85635C-0.000105484 7.70396 0.0346172 7.55356 0.101516 7.41665C0.168415 7.27973 0.26572 7.15991 0.386 7.06635L8.386 0.844346C8.56154 0.707791 8.7776 0.633652 9 0.633652C9.2224 0.633652 9.43846 0.707791 9.614 0.844346L17.614 7.06635C17.7343 7.15991 17.8316 7.27973 17.8985 7.41665C17.9654 7.55356 18.0001 7.70396 18 7.85635V18.3663ZM16 17.3663V8.34435L9 2.90035L2 8.34435V17.3663H16ZM4 13.3663H14V15.3663H4V13.3663Z" fill="black"/>
</svg>
