<svg width="25" height="25" viewBox="0 0 25 25" fill="none" xmlns="http://www.w3.org/2000/svg">
<circle cx="12.4579" cy="12.9488" r="11.612" stroke="white" stroke-width="0.860147"/>
<path d="M12.4573 8.13184C11.1502 8.13184 10.9858 8.13786 10.4722 8.16074C9.9586 8.18482 9.60878 8.2655 9.30231 8.38472C8.98084 8.50563 8.68966 8.6953 8.44913 8.94046C8.20412 9.18112 8.01447 9.47226 7.89339 9.79364C7.77417 10.0995 7.69289 10.4499 7.6694 10.9617C7.64652 11.4765 7.6405 11.6403 7.6405 12.9493C7.6405 14.257 7.64652 14.4208 7.6694 14.9344C7.69349 15.4474 7.77417 15.7972 7.89339 16.1037C8.01682 16.4204 8.18119 16.6889 8.44913 16.9569C8.71646 17.2248 8.985 17.3898 9.3017 17.5126C9.60878 17.6318 9.958 17.7131 10.471 17.7366C10.9852 17.7595 11.149 17.7655 12.4573 17.7655C13.7657 17.7655 13.9289 17.7595 14.4431 17.7366C14.9554 17.7125 15.3065 17.6318 15.6129 17.5126C15.9342 17.3916 16.2252 17.202 16.4655 16.9569C16.7335 16.6889 16.8978 16.4204 17.0213 16.1037C17.1399 15.7972 17.2212 15.4474 17.2452 14.9344C17.2681 14.4208 17.2741 14.257 17.2741 12.9487C17.2741 11.6403 17.2681 11.4765 17.2452 10.9623C17.2212 10.4499 17.1399 10.0995 17.0213 9.79364C16.9002 9.47225 16.7105 9.18111 16.4655 8.94046C16.2251 8.69521 15.9339 8.50553 15.6123 8.38472C15.3053 8.2655 14.9548 8.18422 14.4425 8.16074C13.9283 8.13786 13.7651 8.13184 12.4561 8.13184H12.4579H12.4573ZM12.0256 9.00007H12.4579C13.744 9.00007 13.8963 9.00428 14.4039 9.02776C14.8736 9.04884 15.1289 9.12771 15.2986 9.19334C15.5232 9.28065 15.684 9.38541 15.8526 9.554C16.0212 9.72259 16.1253 9.88275 16.2126 10.1079C16.2789 10.2771 16.3571 10.5324 16.3782 11.0021C16.4017 11.5096 16.4065 11.662 16.4065 12.9475C16.4065 14.2329 16.4017 14.3859 16.3782 14.8934C16.3571 15.3631 16.2783 15.6178 16.2126 15.7876C16.1354 15.9967 16.0122 16.1858 15.852 16.3409C15.6834 16.5095 15.5232 16.6137 15.298 16.701C15.1295 16.7672 14.8742 16.8455 14.4039 16.8671C13.8963 16.89 13.744 16.8954 12.4579 16.8954C11.1718 16.8954 11.0189 16.89 10.5113 16.8671C10.0417 16.8455 9.787 16.7672 9.61721 16.701C9.40797 16.6238 9.21869 16.5008 9.06327 16.3409C8.90296 16.1856 8.77951 15.9963 8.70201 15.787C8.63638 15.6178 8.55751 15.3625 8.53643 14.8928C8.51355 14.3853 8.50873 14.2329 8.50873 12.9462C8.50873 11.6602 8.51355 11.5084 8.53643 11.0009C8.55811 10.5312 8.63638 10.2759 8.70261 10.1061C8.78992 9.88155 8.89468 9.72078 9.06327 9.5522C9.23186 9.38361 9.39202 9.27944 9.61721 9.19214C9.787 9.12591 10.0417 9.04763 10.5113 9.02596C10.9557 9.00549 11.1279 8.99947 12.0256 8.99886V9.00007ZM15.0289 9.79966C14.953 9.79966 14.8778 9.81461 14.8077 9.84366C14.7376 9.87271 14.6739 9.91528 14.6202 9.96896C14.5665 10.0226 14.5239 10.0864 14.4949 10.1565C14.4658 10.2266 14.4509 10.3018 14.4509 10.3777C14.4509 10.4536 14.4658 10.5287 14.4949 10.5989C14.5239 10.669 14.5665 10.7327 14.6202 10.7864C14.6739 10.8401 14.7376 10.8827 14.8077 10.9117C14.8778 10.9407 14.953 10.9557 15.0289 10.9557C15.1822 10.9557 15.3292 10.8948 15.4376 10.7864C15.546 10.678 15.6069 10.531 15.6069 10.3777C15.6069 10.2244 15.546 10.0774 15.4376 9.96896C15.3292 9.86056 15.1822 9.79966 15.0289 9.79966ZM12.4579 10.4752C12.1298 10.4701 11.804 10.5303 11.4994 10.6523C11.1948 10.7743 10.9175 10.9557 10.6836 11.186C10.4498 11.4162 10.2641 11.6906 10.1373 11.9933C10.0106 12.2959 9.94529 12.6208 9.94529 12.949C9.94529 13.2771 10.0106 13.602 10.1373 13.9046C10.2641 14.2073 10.4498 14.4817 10.6836 14.712C10.9175 14.9422 11.1948 15.1236 11.4994 15.2456C11.804 15.3676 12.1298 15.4278 12.4579 15.4227C13.1073 15.4126 13.7267 15.1475 14.1823 14.6847C14.638 14.2219 14.8934 13.5984 14.8934 12.949C14.8934 12.2995 14.638 11.6761 14.1823 11.2132C13.7267 10.7504 13.1073 10.4854 12.4579 10.4752ZM12.4579 11.3428C12.8838 11.3428 13.2923 11.512 13.5934 11.8132C13.8946 12.1143 14.0637 12.5228 14.0637 12.9487C14.0637 13.3745 13.8946 13.783 13.5934 14.0841C13.2923 14.3853 12.8838 14.5545 12.4579 14.5545C12.032 14.5545 11.6236 14.3853 11.3224 14.0841C11.0213 13.783 10.8521 13.3745 10.8521 12.9487C10.8521 12.5228 11.0213 12.1143 11.3224 11.8132C11.6236 11.512 12.032 11.3428 12.4579 11.3428Z" fill="white"/>
</svg>
