<svg width="26" height="26" viewBox="0 0 26 26" fill="none" xmlns="http://www.w3.org/2000/svg">
<path d="M15.6717 9.90202C15.1614 9.90202 14.7836 10.0307 14.4878 10.1933C14.4404 10.0247 14.2846 9.90127 14.1009 9.93815H11.8551C11.6331 9.90127 11.4532 10.0811 11.5217 10.3145V18.5934C11.4532 18.8041 11.6331 18.9847 11.8551 18.9697H14.1009C14.3229 18.9847 14.5028 18.8041 14.5028 18.5821L14.5021 13.5786C14.5013 13.5764 14.493 13.337 14.6443 13.1722C14.7655 13.0412 14.974 12.9742 15.2622 12.9742C15.7424 12.9742 15.9561 13.1707 16.0359 13.6102V18.5821C15.9569 18.8041 16.1368 18.9847 16.3588 18.9697H18.7258C18.9478 18.9847 19.1277 18.8041 19.0479 18.5821V13.4431C19.127 10.83 17.2657 9.90202 15.6717 9.90202ZM18.3232 18.2171H16.7607V13.6102C16.7607 12.7214 16.1865 12.1704 15.263 12.1704C14.7407 12.1704 14.3342 12.324 14.0543 12.6265C13.6651 13.048 13.6953 13.5824 13.7788 13.7013V18.2171H12.257V10.7058H13.699V10.9587C13.6984 11.034 13.7191 11.108 13.7587 11.1721C13.7982 11.2362 13.8551 11.2879 13.9227 11.3211C13.9903 11.3544 14.0659 11.3679 14.1408 11.3601C14.2158 11.3523 14.287 11.3235 14.3463 11.2771L14.4516 11.1958C14.7565 10.9557 15.0718 10.7066 15.6724 10.7066C16.2941 10.7066 18.3239 10.9045 18.3239 13.4439V18.2171H18.3232ZM9.26302 6.14941C8.41858 6.14941 7.73218 6.83581 7.73218 7.68026C7.73218 8.52471 8.41858 9.21111 9.26302 9.21111C10.1075 9.21111 10.7939 8.52471 10.7939 7.68026C10.7939 6.83581 10.1075 6.14941 9.26302 6.14941ZM9.26302 8.4073C8.86263 8.4073 8.53599 8.08066 8.53599 7.68026C8.53599 7.27986 8.86263 6.95322 9.26302 6.95322C9.66342 6.95322 9.99006 7.27986 9.99006 7.68026C9.99006 8.08066 9.66342 8.4073 9.26302 8.4073ZM10.3378 9.90127H8.10398C7.88195 9.90127 7.70207 10.0811 7.75777 10.3145V18.5934C7.70207 18.8041 7.88195 18.9847 8.10398 18.9697H10.3378C10.5598 18.9847 10.7397 18.8041 10.7397 18.5821V10.3032C10.7397 10.1966 10.6973 10.0944 10.622 10.019C10.5466 9.94361 10.4444 9.90127 10.3378 9.90127ZM10.0157 18.2171H8.50588V10.7058H10.0157V18.2171Z" fill="white"/>
<path d="M13.0264 0.881104C6.37164 0.881104 0.95874 6.29401 0.95874 12.9487C0.95874 19.6035 6.37164 25.0164 13.0264 25.0164C19.6811 25.0164 25.094 19.6035 25.094 12.9487C25.094 6.29401 19.6811 0.881104 13.0264 0.881104ZM13.0264 24.2126C6.81569 24.2126 1.76255 19.1594 1.76255 12.9487C1.76255 6.73806 6.81569 1.68491 13.0264 1.68491C19.2371 1.68491 24.2902 6.73806 24.2902 12.9487C24.2902 19.1594 19.2371 24.2126 13.0264 24.2126Z" fill="white"/>
</svg>
