<svg width="22" height="22" viewBox="0 0 22 22" fill="none" xmlns="http://www.w3.org/2000/svg">
<path d="M6.17527 0.308805C5.8351 0.422302 5.69651 0.535799 4.85238 1.37231L3.99144 2.22564L3.51268 1.77586L3.02972 1.32607H1.66902H0.308326L0.228532 1.42696C0.12354 1.55307 0.12774 1.68758 0.236932 1.8263L0.320925 1.93559H1.54303H2.76094L3.15151 2.30131L3.54208 2.67122L2.98772 3.23871C2.32837 3.91548 2.24438 4.06261 2.21498 4.58385C2.18978 5.10089 2.28217 5.31948 2.71894 5.78608L3.05911 6.14338L2.80713 6.40401C2.52156 6.69405 2.47536 6.79494 2.54675 6.95047C2.60555 7.07658 3.52948 7.70291 3.77726 7.77858C4.01244 7.85424 4.38201 7.81221 4.64659 7.6861L4.86917 7.5726L5.02876 7.71973C5.44873 8.09805 5.8393 8.02239 6.35586 7.47172C6.78843 7.00932 6.81362 6.6352 6.44405 6.24007C6.32646 6.11816 6.32226 6.10975 6.39786 6.0425C6.46925 5.97524 6.48185 5.97944 6.59944 6.10135C6.77163 6.28631 6.91862 6.34936 7.1538 6.34936C7.40998 6.34936 7.64096 6.21064 7.95594 5.86174C8.3843 5.39514 8.4095 5.06727 8.05253 4.69735C7.90974 4.55022 7.90554 4.53761 7.97273 4.47036C8.03993 4.4031 8.04833 4.4031 8.15752 4.50398C8.4389 4.7562 8.62788 4.81505 8.91346 4.74359C9.22844 4.66792 9.80379 4.07102 9.87099 3.75575C9.91298 3.55818 9.82059 3.28915 9.64421 3.10419L9.48882 2.93605L9.61481 2.68383C9.7744 2.36436 9.78279 2.01966 9.64841 1.7128C9.54761 1.48581 9.03945 0.72496 8.93446 0.640888C8.78327 0.523188 8.63628 0.577835 8.34231 0.863678L8.06093 1.13271L7.76695 0.838457C7.38478 0.451727 7.0656 0.287787 6.64564 0.270973C6.46925 0.262566 6.27607 0.27938 6.17527 0.308805ZM6.92702 0.968768C7.02361 1.01501 7.21679 1.17054 7.35958 1.31346L7.62416 1.57829L5.56632 3.63805L3.50848 5.6978L3.2523 5.44559C2.90373 5.10089 2.82393 4.93275 2.84493 4.60067C2.85753 4.4031 2.88693 4.30221 2.97512 4.18031C3.03392 4.08783 3.75206 3.3522 4.5668 2.53671C6.12068 0.985582 6.24247 0.8889 6.59104 0.884696C6.68343 0.884696 6.83462 0.922529 6.92702 0.968768ZM8.88826 1.64555C8.98066 1.78426 9.07725 1.96081 9.09825 2.03228C9.18224 2.33493 9.19904 2.31812 6.73383 4.77722C5.45713 6.05511 4.36941 7.11862 4.31902 7.14384C4.14263 7.23211 3.95364 7.19848 3.67227 7.01773C3.52528 6.92105 3.38669 6.82857 3.36149 6.80755C3.33629 6.78233 4.31482 5.77347 6.00729 4.07942C7.48557 2.59976 8.69928 1.38913 8.70348 1.38913C8.70768 1.38913 8.79167 1.50262 8.88826 1.64555ZM9.17804 3.51194L9.27883 3.62123L9.00585 3.89446L8.73288 4.1677L8.61948 4.07942C8.55649 4.02898 8.50609 3.97433 8.50609 3.95752C8.50609 3.91969 9.01845 3.40685 9.05625 3.40685C9.06885 3.40685 9.12345 3.45309 9.17804 3.51194ZM7.58216 5.1093L7.68296 5.21439L7.43518 5.46661C7.29659 5.60532 7.1664 5.71882 7.1454 5.71882C7.1244 5.71882 7.06141 5.67679 7.00681 5.62634L6.90602 5.53386L7.1706 5.26904C7.31339 5.12191 7.44358 5.00421 7.45617 5.00421C7.47297 5.00421 7.52757 5.05045 7.58216 5.1093ZM6.07028 6.78653C6.07028 6.84118 5.60412 7.31618 5.54952 7.31618C5.52852 7.31618 5.46553 7.27415 5.41093 7.22371L5.31014 7.13123L5.59572 6.84538L5.8771 6.55954L5.97369 6.65202C6.02829 6.70246 6.07028 6.76131 6.07028 6.78653Z" fill="#2591B2"/>
<path d="M11.6349 1.9187C11.4543 2.01118 11.3661 2.10366 11.2737 2.28021C11.1939 2.43574 11.1939 2.55764 11.2023 5.56741L11.2149 8.69488L11.3451 8.85882C11.6097 9.19091 11.1855 9.16568 16.4687 9.15728L21.1766 9.14467L21.332 9.02276C21.6637 8.77055 21.6511 8.93449 21.6511 5.51697C21.6511 2.87712 21.6427 2.46096 21.5881 2.32645C21.5041 2.12468 21.416 2.02799 21.2228 1.93131C21.0842 1.85985 20.9666 1.85144 20.1225 1.85144H19.1775L19.0935 1.96074C19.0431 2.02379 19.0053 2.09945 19.0053 2.12888C19.0053 2.22136 19.0977 2.3937 19.1691 2.42733C19.2069 2.44415 19.6353 2.46937 20.1183 2.48198L21.0002 2.503V5.50856V8.51413H16.4225H11.8449V5.50856V2.503L15.0282 2.48198L18.2158 2.46096L18.2956 2.36008C18.4048 2.22556 18.3964 2.05321 18.2788 1.94392L18.1822 1.85144H14.9695C12.1431 1.85144 11.7441 1.85985 11.6349 1.9187Z" fill="#2591B2"/>
<path d="M12.5462 3.08312C12.4244 3.21343 12.4286 3.38578 12.5588 3.51188C12.6554 3.61277 12.689 3.61697 13.1173 3.61697C13.5163 3.61697 13.5919 3.60436 13.6885 3.5287C13.8313 3.4152 13.8397 3.20502 13.7011 3.07891C13.6129 2.99484 13.5583 2.98644 13.1215 2.98644C12.668 2.98644 12.6302 2.99484 12.5462 3.08312Z" fill="#2591B2"/>
<path d="M12.6344 4.16348C12.4454 4.24335 12.3951 4.52499 12.5378 4.66791C12.6134 4.74358 12.6764 4.75198 13.1258 4.75198C13.5752 4.75198 13.6382 4.74358 13.7137 4.66791C13.8187 4.56282 13.8229 4.36946 13.7179 4.24335C13.6424 4.15087 13.6046 4.14246 13.1804 4.13406C12.9326 4.12565 12.6848 4.14246 12.6344 4.16348Z" fill="#2591B2"/>
<path d="M19.0851 4.16766C19.0095 4.19709 18.9297 4.29377 18.8373 4.47032C18.7617 4.61324 18.6147 4.88647 18.5139 5.07984L18.3249 5.42453L18.1695 5.24798C18.0351 5.10086 17.9847 5.07143 17.8504 5.07143C17.6194 5.07143 17.5606 5.17232 17.4724 5.71458C17.4304 5.971 17.38 6.18118 17.3674 6.18118C17.3548 6.18118 17.1658 5.79025 16.9474 5.31524C16.729 4.83603 16.5149 4.42408 16.4687 4.39045C16.3343 4.29797 16.1789 4.31899 16.0571 4.4451C16.0025 4.51236 15.8261 4.72674 15.6707 4.92851L15.3851 5.29843H14.9694C14.499 5.29843 14.4192 5.32365 14.3478 5.5044C14.3058 5.60529 14.3058 5.64732 14.3604 5.75241C14.394 5.81967 14.457 5.88693 14.4906 5.90374C14.5284 5.91635 14.8014 5.92896 15.0954 5.92896C15.7127 5.92896 15.7127 5.92896 16.0067 5.52962C16.1159 5.37829 16.2209 5.269 16.2335 5.28582C16.2503 5.30683 16.4729 5.79025 16.7374 6.37034C16.9978 6.94623 17.2498 7.46327 17.296 7.51372C17.4052 7.63562 17.6194 7.64403 17.7244 7.52633C17.7958 7.44646 17.8672 7.148 17.9973 6.35773L18.0477 6.04666L18.1611 6.15596C18.2703 6.26105 18.4215 6.29468 18.5601 6.24003C18.5979 6.22742 18.7071 6.06348 18.8037 5.87852C18.9801 5.55064 18.9843 5.54644 19.0137 5.67255C19.0683 5.88273 19.1817 5.92896 19.6394 5.92896C19.9838 5.92896 20.0594 5.91635 20.156 5.84069C20.2358 5.77764 20.2652 5.71458 20.2652 5.6137C20.2652 5.41192 20.1098 5.29843 19.8242 5.29843H19.6058L19.5554 4.82342C19.5092 4.38625 19.4378 4.16346 19.3454 4.16346C19.3244 4.16346 19.2824 4.15505 19.2488 4.14664C19.2195 4.13403 19.1439 4.14664 19.0851 4.16766Z" fill="#2591B2"/>
<path d="M12.5631 5.38672C12.4203 5.50022 12.4161 5.68518 12.5589 5.8239C12.6555 5.92478 12.6891 5.92899 13.1174 5.92899C13.5164 5.92899 13.592 5.91637 13.6886 5.84071C13.8314 5.72721 13.8398 5.51703 13.7012 5.39093C13.613 5.30685 13.5584 5.29845 13.1384 5.29845C12.7353 5.29845 12.6597 5.31106 12.5631 5.38672Z" fill="#2591B2"/>
<path d="M12.6387 6.49228C12.4371 6.58055 12.3867 6.82856 12.5379 6.97989C12.6135 7.05556 12.6764 7.06396 13.1258 7.06396C13.5752 7.06396 13.6382 7.05556 13.7138 6.97989C13.8734 6.82016 13.8062 6.55953 13.5836 6.47967C13.3988 6.41661 12.7982 6.42502 12.6387 6.49228Z" fill="#2591B2"/>
<path d="M1.69848 10.6496C1.59769 10.7042 1.4591 10.8303 1.38771 10.927C1.27852 11.0868 1.26172 11.1498 1.24912 11.4567L1.23232 11.8056L1.08113 11.835C0.862749 11.877 0.698961 11.9695 0.493177 12.1629C0.220198 12.4319 0.148804 12.6673 0.148804 13.3315C0.148804 13.6341 0.165602 13.9158 0.1908 13.9578C0.257995 14.0839 0.467979 14.126 1.01394 14.126H1.5347V14.3866C1.5347 14.8868 1.84967 15.3156 2.30744 15.4501C2.49642 15.5047 2.71901 15.5131 3.55054 15.5047C4.55846 15.4921 4.56686 15.4921 4.64666 15.3912C4.75585 15.2609 4.74745 15.0844 4.62986 14.9751C4.54166 14.891 4.49127 14.8868 3.47495 14.8742L2.40823 14.8616L2.28644 14.7229C2.18145 14.6094 2.16465 14.5505 2.16465 14.3571V14.126H10.9H19.6353V14.3571C19.6353 14.5505 19.6185 14.6094 19.5135 14.7229L19.3917 14.8616L12.4581 14.8742L5.52859 14.8826L5.44459 14.9919C5.3438 15.118 5.3354 15.1726 5.4026 15.3156C5.48659 15.5005 5.58318 15.5131 6.83049 15.5131H8.0064L8.64475 15.9167C8.99752 16.1395 9.2873 16.3286 9.2957 16.3328C9.3041 16.337 8.98072 16.4631 8.58175 16.6145C7.998 16.8289 7.84681 16.9045 7.80481 16.9886C7.77121 17.0516 7.75022 17.2744 7.75022 17.5813V18.0731L6.28873 18.0857L4.82304 18.0983L4.65086 18.2202C4.36948 18.4136 4.30648 18.5986 4.30648 19.2249V19.7546L4.18469 19.8176C3.71013 20.0656 3.49175 20.57 3.64293 21.0787C3.71013 21.3099 4.0587 21.6588 4.28968 21.726C4.97423 21.9278 5.60838 21.4528 5.60838 20.7508C5.60838 20.5953 5.57478 20.4271 5.52859 20.3262C5.44879 20.1455 5.17162 19.8681 5.02463 19.8218C4.94063 19.7966 4.93643 19.7672 4.93643 19.3006C4.93643 18.9727 4.95323 18.7919 4.98683 18.7583C5.05822 18.6868 16.1118 18.6868 16.1832 18.7583C16.2168 18.7919 16.2336 18.9727 16.2336 19.2964V19.7798L16.1034 19.8386C15.8766 19.9395 15.6498 20.2085 15.5784 20.465C15.4356 20.9526 15.6372 21.4234 16.0866 21.663C16.3218 21.7891 16.7753 21.7891 17.0189 21.6588C17.4011 21.457 17.6321 20.9862 17.5439 20.57C17.4809 20.2758 17.2919 20.0068 17.0567 19.8807L16.8635 19.7798V19.2543C16.8635 18.6826 16.8089 18.4851 16.6073 18.3001C16.3722 18.0857 16.3008 18.0773 14.7091 18.0773H13.2182L11.9793 17.2913C11.1688 16.7784 10.753 16.4926 10.7908 16.4716C10.8202 16.4547 11.4081 16.2319 12.0927 15.9755L13.34 15.5131H16.3134C19.6353 15.5131 19.5723 15.5173 19.8957 15.2273C20.1351 15.0129 20.2653 14.7187 20.2653 14.3866V14.126H20.786C21.3236 14.126 21.5 14.0923 21.5923 13.9662C21.6763 13.8569 21.6721 12.8523 21.5839 12.6C21.5042 12.3604 21.2354 12.0494 21.0044 11.9275L20.8322 11.835L15.3852 11.8224C9.97185 11.814 9.93405 11.814 9.85005 11.898C9.72406 12.0242 9.73666 12.2469 9.87525 12.3562C9.98864 12.4445 9.98864 12.4445 15.3054 12.4445C20.5046 12.4445 20.6264 12.4487 20.7566 12.5286C20.954 12.6463 21.0212 12.8102 21.0212 13.1801V13.4954H10.9H0.778755V13.1801C0.778755 12.8102 0.84595 12.6463 1.04333 12.5286C1.17352 12.4487 1.28272 12.4445 5.00783 12.4445C7.76282 12.4445 8.86733 12.4319 8.94292 12.3983C9.15711 12.3016 9.17391 11.9653 8.97232 11.8602C8.91773 11.8308 8.17018 11.814 6.7255 11.814H4.55846V11.4987C4.55846 11.0363 4.40308 10.7673 4.0461 10.616C3.92011 10.5655 3.69753 10.5529 2.88699 10.5529C1.91687 10.5529 1.87907 10.5571 1.69848 10.6496ZM3.84872 11.2255C3.91591 11.2633 3.92851 11.318 3.92851 11.5407V11.814H2.89959H1.87067V11.566C1.87067 11.175 1.84967 11.1834 2.88279 11.1834C3.41195 11.1834 3.79832 11.2003 3.84872 11.2255ZM10.7782 15.7906L10.0474 16.0638L9.63587 15.8032C9.40489 15.6603 9.2201 15.5342 9.2201 15.5257C9.2201 15.5215 9.73666 15.5131 10.3666 15.5173H11.5089L10.7782 15.7906ZM10.9882 17.409C11.5425 17.7578 11.9919 18.0521 11.9919 18.0605C11.9919 18.0689 11.1772 18.0773 10.186 18.0773H8.37597L8.38857 17.7158L8.40117 17.3543L9.15711 17.0685C9.57288 16.9087 9.92985 16.7784 9.95085 16.7784C9.97185 16.7742 10.438 17.0601 10.9882 17.409ZM4.88604 20.4986C5.02883 20.6625 5.01203 20.8979 4.84824 21.0366C4.67605 21.1838 4.49967 21.1796 4.34428 21.024C4.1427 20.8181 4.18889 20.5196 4.44507 20.4061C4.61726 20.3346 4.76425 20.3641 4.88604 20.4986ZM16.8341 20.5196C16.9601 20.6583 16.9769 20.7592 16.8845 20.9316C16.7543 21.188 16.3764 21.2048 16.2294 20.9652C16.1244 20.7928 16.1286 20.6793 16.2378 20.5406C16.4141 20.3136 16.6367 20.3052 16.8341 20.5196Z" fill="#2591B2"/>
</svg>
