<svg width="22" height="16" viewBox="0 0 22 16" fill="none" xmlns="http://www.w3.org/2000/svg">
<path opacity="0.5" d="M6.7678 6.47528L5.47517 7.57988L5.24447 7.77703L5.31286 8.07268L5.69525 9.72579L4.25981 8.8528L4.0026 8.69638L3.74402 8.8505L2.26573 9.73156L2.66597 8.0776L2.7378 7.78079L2.50654 7.58135L1.22396 6.47528L2.91339 6.32811L3.2118 6.30212L3.32966 6.02675L3.99589 4.47025L4.64908 6.02379L4.76611 6.30212L5.06691 6.32814L6.7678 6.47528ZM6.5 14C6.5 13.5156 6.73769 13.0557 7.21382 12.6159C7.69353 12.1727 8.38188 11.7839 9.18439 11.463C10.7902 10.8209 12.727 10.5 14 10.5C15.273 10.5 17.2098 10.8209 18.8156 11.463C19.6181 11.7839 20.3065 12.1727 20.7862 12.6159C21.2623 13.0557 21.5 13.5156 21.5 14V15.5H6.5V14ZM16.4749 6.47487C15.8185 7.13125 14.9283 7.5 14 7.5C13.0717 7.5 12.1815 7.13125 11.5251 6.47487C10.8687 5.8185 10.5 4.92826 10.5 4C10.5 3.07174 10.8687 2.1815 11.5251 1.52513C12.1815 0.868749 13.0717 0.5 14 0.5C14.9283 0.5 15.8185 0.868749 16.4749 1.52513C17.1313 2.1815 17.5 3.07174 17.5 4C17.5 4.92826 17.1313 5.8185 16.4749 6.47487Z" stroke="black"/>
</svg>
