<svg width="20" height="18" viewBox="0 0 20 18" fill="none" xmlns="http://www.w3.org/2000/svg">
<path d="M9.38467 8.99513C9.38467 8.30721 9.14429 7.71988 8.66352 7.23315C8.18275 6.74641 7.60262 6.50304 6.92313 6.50304C6.24365 6.50304 5.66352 6.74641 5.18275 7.23315C4.70198 7.71988 4.46159 8.30721 4.46159 8.99513C4.46159 9.68305 4.70198 10.2704 5.18275 10.7571C5.66352 11.2439 6.24365 11.4872 6.92313 11.4872C7.60262 11.4872 8.18275 11.2439 8.66352 10.7571C9.14429 10.2704 9.38467 9.68305 9.38467 8.99513ZM16.7693 13.9793C16.7693 13.6418 16.6475 13.3498 16.4039 13.1032C16.1603 12.8566 15.8718 12.7333 15.5385 12.7333C15.2052 12.7333 14.9167 12.8566 14.6731 13.1032C14.4295 13.3498 14.3077 13.6418 14.3077 13.9793C14.3077 14.3233 14.4279 14.6169 14.6683 14.8603C14.9087 15.1037 15.1988 15.2254 15.5385 15.2254C15.8783 15.2254 16.1683 15.1037 16.4087 14.8603C16.6491 14.6169 16.7693 14.3233 16.7693 13.9793ZM16.7693 4.01095C16.7693 3.67348 16.6475 3.38144 16.4039 3.13483C16.1603 2.88821 15.8718 2.76491 15.5385 2.76491C15.2052 2.76491 14.9167 2.88821 14.6731 3.13483C14.4295 3.38144 14.3077 3.67348 14.3077 4.01095C14.3077 4.35491 14.4279 4.64858 14.6683 4.89194C14.9087 5.13531 15.1988 5.257 15.5385 5.257C15.8783 5.257 16.1683 5.13531 16.4087 4.89194C16.6491 4.64858 16.7693 4.35491 16.7693 4.01095ZM13.077 8.10927V9.9102C13.077 9.9751 13.0545 10.0384 13.0097 10.1C12.9648 10.1617 12.9135 10.1957 12.8558 10.2022L11.3654 10.4359C11.2949 10.663 11.1924 10.9096 11.0577 11.1757C11.2757 11.4872 11.5642 11.8604 11.9231 12.2952C11.968 12.3666 11.9904 12.4315 11.9904 12.4899C11.9904 12.5678 11.968 12.6294 11.9231 12.6749C11.7757 12.8696 11.5113 13.16 11.1299 13.5461C10.7485 13.9323 10.4969 14.1253 10.3751 14.1253C10.3045 14.1253 10.2372 14.1026 10.1731 14.0572L9.06736 13.1811C8.83018 13.3044 8.58339 13.405 8.32698 13.4828C8.25647 14.1837 8.18275 14.6867 8.10582 14.9917C8.06095 15.1475 7.9648 15.2254 7.81736 15.2254H6.0289C5.95839 15.2254 5.89429 15.201 5.83659 15.1523C5.7789 15.1037 5.74685 15.0469 5.74044 14.982L5.51929 13.4926C5.30134 13.4277 5.06095 13.3271 4.79813 13.1908L3.66352 14.0572C3.61865 14.1026 3.55454 14.1253 3.47121 14.1253C3.4007 14.1253 3.33339 14.0994 3.26929 14.0475C2.34621 13.1843 1.88467 12.6651 1.88467 12.4899C1.88467 12.4315 1.90711 12.3698 1.95198 12.3049C2.01608 12.2141 2.14749 12.0421 2.34621 11.789C2.54493 11.5359 2.69557 11.338 2.79813 11.1952C2.6507 10.9096 2.53852 10.6435 2.46159 10.3969L1.00006 10.1633C0.935954 10.1568 0.881467 10.126 0.836595 10.0708C0.791723 10.0157 0.769287 9.95238 0.769287 9.88099V8.08007C0.769287 8.01517 0.791723 7.95189 0.836595 7.89024C0.881467 7.82859 0.932749 7.79452 0.990441 7.78803L2.48083 7.55439C2.55134 7.32725 2.6539 7.08064 2.78852 6.81455C2.57057 6.50304 2.28211 6.12988 1.92313 5.69506C1.87826 5.62367 1.85583 5.55877 1.85583 5.50037C1.85583 5.42249 1.87826 5.35759 1.92313 5.30567C2.06416 5.11098 2.32698 4.82218 2.71159 4.43928C3.09621 4.05638 3.34941 3.86493 3.47121 3.86493C3.54172 3.86493 3.60903 3.88765 3.67313 3.93307L4.7789 4.8092C4.99685 4.69238 5.24365 4.58855 5.51929 4.49769C5.5898 3.79679 5.66352 3.29707 5.74044 2.99854C5.78531 2.84278 5.88147 2.76491 6.0289 2.76491H7.81736C7.88788 2.76491 7.95198 2.78924 8.00967 2.83792C8.06736 2.88659 8.09941 2.94338 8.10582 3.00827L8.32698 4.49769C8.54493 4.56259 8.78531 4.66318 9.04813 4.79946L10.1827 3.93307C10.234 3.88765 10.2981 3.86493 10.3751 3.86493C10.4456 3.86493 10.5129 3.89089 10.577 3.94281C11.5001 4.80595 11.9616 5.32514 11.9616 5.50037C11.9616 5.55228 11.9392 5.61394 11.8943 5.68533C11.8174 5.78916 11.6827 5.96439 11.4904 6.211C11.2981 6.45761 11.1539 6.65231 11.0577 6.79508C11.2052 7.1066 11.3142 7.37268 11.3847 7.59333L12.8462 7.81723C12.9103 7.83021 12.9648 7.86428 13.0097 7.91945C13.0545 7.97461 13.077 8.03788 13.077 8.10927ZM19.2308 13.2979V14.6607C19.2308 14.7646 18.7533 14.8652 17.7981 14.9625C17.7212 15.1377 17.6251 15.3065 17.5097 15.4687C17.8366 16.2021 18.0001 16.6499 18.0001 16.8121C18.0001 16.8381 17.9872 16.8608 17.9616 16.8803C17.1795 17.341 16.7821 17.5714 16.7693 17.5714C16.718 17.5714 16.5706 17.4189 16.327 17.1139C16.0834 16.8089 15.9167 16.5882 15.827 16.4519C15.6988 16.4649 15.6026 16.4714 15.5385 16.4714C15.4744 16.4714 15.3783 16.4649 15.2501 16.4519C15.1603 16.5882 14.9936 16.8089 14.7501 17.1139C14.5065 17.4189 14.359 17.5714 14.3077 17.5714C14.2949 17.5714 13.8975 17.341 13.1154 16.8803C13.0898 16.8608 13.077 16.8381 13.077 16.8121C13.077 16.6499 13.2404 16.2021 13.5674 15.4687C13.452 15.3065 13.3558 15.1377 13.2789 14.9625C12.3238 14.8652 11.8462 14.7646 11.8462 14.6607V13.2979C11.8462 13.194 12.3238 13.0935 13.2789 12.9961C13.3622 12.8079 13.4584 12.6392 13.5674 12.4899C13.2404 11.7566 13.077 11.3088 13.077 11.1465C13.077 11.1205 13.0898 11.0978 13.1154 11.0784C13.1411 11.0654 13.2533 11.0005 13.452 10.8837C13.6507 10.7669 13.8398 10.6565 14.0193 10.5527C14.1988 10.4489 14.2949 10.3969 14.3077 10.3969C14.359 10.3969 14.5065 10.5478 14.7501 10.8496C14.9936 11.1514 15.1603 11.3704 15.2501 11.5067C15.3783 11.4937 15.4744 11.4872 15.5385 11.4872C15.6026 11.4872 15.6988 11.4937 15.827 11.5067C16.1539 11.0459 16.4488 10.6825 16.7116 10.4164L16.7693 10.3969C16.7949 10.3969 17.1924 10.6241 17.9616 11.0784C17.9872 11.0978 18.0001 11.1205 18.0001 11.1465C18.0001 11.3088 17.8366 11.7566 17.5097 12.4899C17.6186 12.6392 17.7148 12.8079 17.7981 12.9961C18.7533 13.0935 19.2308 13.194 19.2308 13.2979ZM19.2308 3.32952V4.69238C19.2308 4.79622 18.7533 4.89681 17.7981 4.99416C17.7212 5.16938 17.6251 5.33812 17.5097 5.50037C17.8366 6.23371 18.0001 6.68151 18.0001 6.84376C18.0001 6.86972 17.9872 6.89243 17.9616 6.9119C17.1795 7.37268 16.7821 7.60307 16.7693 7.60307C16.718 7.60307 16.5706 7.45056 16.327 7.14553C16.0834 6.84051 15.9167 6.61986 15.827 6.48357C15.6988 6.49655 15.6026 6.50304 15.5385 6.50304C15.4744 6.50304 15.3783 6.49655 15.2501 6.48357C15.1603 6.61986 14.9936 6.84051 14.7501 7.14553C14.5065 7.45056 14.359 7.60307 14.3077 7.60307C14.2949 7.60307 13.8975 7.37268 13.1154 6.9119C13.0898 6.89243 13.077 6.86972 13.077 6.84376C13.077 6.68151 13.2404 6.23371 13.5674 5.50037C13.452 5.33812 13.3558 5.16938 13.2789 4.99416C12.3238 4.89681 11.8462 4.79622 11.8462 4.69238V3.32952C11.8462 3.22568 12.3238 3.12509 13.2789 3.02774C13.3622 2.83954 13.4584 2.6708 13.5674 2.52154C13.2404 1.78819 13.077 1.34039 13.077 1.17815C13.077 1.15219 13.0898 1.12947 13.1154 1.11C13.1411 1.09702 13.2533 1.03212 13.452 0.915308C13.6507 0.798491 13.8398 0.688164 14.0193 0.584327C14.1988 0.48049 14.2949 0.428572 14.3077 0.428572C14.359 0.428572 14.5065 0.57946 14.7501 0.881237C14.9936 1.18301 15.1603 1.40204 15.2501 1.53833C15.3783 1.52535 15.4744 1.51886 15.5385 1.51886C15.6026 1.51886 15.6988 1.52535 15.827 1.53833C16.1539 1.07755 16.4488 0.714124 16.7116 0.448041L16.7693 0.428572C16.7949 0.428572 17.1924 0.655715 17.9616 1.11C17.9872 1.12947 18.0001 1.15219 18.0001 1.17815C18.0001 1.34039 17.8366 1.78819 17.5097 2.52154C17.6186 2.6708 17.7148 2.83954 17.7981 3.02774C18.7533 3.12509 19.2308 3.22568 19.2308 3.32952Z" fill="black"/>
</svg>
