<svg width="12" height="12" viewBox="0 0 12 12" fill="none" xmlns="http://www.w3.org/2000/svg">
<path d="M12 8.62928C11.9997 9.41591 11.7193 10.1789 11.205 10.7918C10.6908 11.4048 9.97359 11.8311 9.1722 12L8.7894 10.8991C9.13994 10.8437 9.47331 10.7145 9.76548 10.5207C10.0576 10.327 10.3013 10.0735 10.479 9.77855H9C8.68174 9.77855 8.37652 9.65734 8.15147 9.4416C7.92643 9.22585 7.8 8.93324 7.8 8.62813V6.32729C7.8 6.02218 7.92643 5.72957 8.15147 5.51383C8.37652 5.29808 8.68174 5.17688 9 5.17688H10.7628C10.6164 4.06494 10.0518 3.04243 9.17486 2.30122C8.29796 1.56001 7.16907 1.15104 6 1.15104C4.83093 1.15104 3.70204 1.56001 2.82514 2.30122C1.94825 3.04243 1.38362 4.06494 1.2372 5.17688H3C3.31826 5.17688 3.62348 5.29808 3.84853 5.51383C4.07357 5.72957 4.2 6.02218 4.2 6.32729V8.62813C4.2 8.93324 4.07357 9.22585 3.84853 9.4416C3.62348 9.65734 3.31826 9.77855 3 9.77855H1.2C0.88174 9.77855 0.576515 9.65734 0.351472 9.4416C0.126428 9.22585 0 8.93324 0 8.62813V5.75209C0 2.57521 2.6862 0 6 0C9.3138 0 12 2.57521 12 5.75209V8.62928ZM10.8 8.62813V6.32729H9V8.62813H10.8ZM1.2 6.32729V8.62813H3V6.32729H1.2Z" fill="#2591B2"/>
</svg>
