<svg width="14" height="15" viewBox="0 0 14 15" fill="none" xmlns="http://www.w3.org/2000/svg">
<mask id="path-1-outside-1_1_1349" maskUnits="userSpaceOnUse" x="-0.75" y="0" width="15" height="15" fill="black">
<rect fill="white" x="-0.75" width="15" height="15"/>
<path d="M13.25 7.5C13.25 7.88596 13.024 8.23405 12.7021 8.55144C12.5094 8.74083 12.2848 8.92239 12.0869 9.10655C11.9288 9.25349 11.7865 9.39782 11.7199 9.55848C11.65 9.72631 11.6454 9.93464 11.6513 10.1547C11.6585 10.4264 11.6879 10.7131 11.6898 10.9809C11.6937 11.4321 11.6095 11.8325 11.3463 12.0963C11.0825 12.3595 10.6821 12.4437 10.2309 12.4398C9.9631 12.4372 9.6764 12.4085 9.40538 12.4013C9.1853 12.3954 8.97631 12.4 8.80848 12.4699C8.64782 12.5365 8.50349 12.6788 8.35655 12.8369C8.17239 13.0348 7.99083 13.2594 7.80144 13.4514C7.48405 13.774 7.13596 14 6.75 14C6.36404 14 6.01595 13.774 5.69856 13.4514C5.50917 13.2594 5.32762 13.0348 5.14345 12.8369C4.99651 12.6788 4.85153 12.5365 4.69153 12.4699C4.52369 12.4 4.3147 12.3954 4.09527 12.4013C3.8236 12.4085 3.5369 12.4372 3.26914 12.4398C2.81787 12.4437 2.41688 12.3595 2.1537 12.0963C1.88986 11.8325 1.80626 11.4321 1.81018 10.9809C1.81214 10.7131 1.84153 10.4264 1.84871 10.1547C1.85459 9.93464 1.85002 9.72631 1.78014 9.55782C1.71353 9.39782 1.57116 9.25349 1.41312 9.10655C1.21589 8.92239 0.991234 8.74083 0.798579 8.55144C0.476615 8.23405 0.25 7.88596 0.25 7.5C0.25 7.11404 0.476615 6.76595 0.798579 6.44856C0.991234 6.25917 1.21589 6.07762 1.41312 5.89345C1.57116 5.74651 1.71353 5.60218 1.78014 5.44218C1.85002 5.27369 1.85459 5.06536 1.84871 4.84527C1.84153 4.5736 1.81214 4.2869 1.81018 4.01914C1.80626 3.56787 1.88986 3.16754 2.1537 2.9037C2.41688 2.64051 2.81787 2.55626 3.26914 2.56018C3.5369 2.5628 3.8236 2.59153 4.09527 2.59871C4.3147 2.60459 4.52369 2.60002 4.69153 2.53014C4.85153 2.46353 4.99651 2.32116 5.14345 2.16312C5.32762 1.96524 5.50917 1.74058 5.69856 1.54858C6.01595 1.22596 6.36404 1 6.75 1C7.13596 1 7.48405 1.22596 7.80144 1.54858C7.99083 1.74058 8.17239 1.96524 8.35655 2.16312C8.50349 2.32116 8.64782 2.46353 8.80848 2.53014C8.97631 2.60002 9.1853 2.60459 9.40538 2.59871C9.6764 2.59153 9.9631 2.5628 10.2309 2.56018C10.6821 2.55626 11.0825 2.64051 11.3463 2.9037C11.6095 3.16754 11.6937 3.56787 11.6898 4.01914C11.6879 4.2869 11.6585 4.5736 11.6513 4.84527C11.6454 5.06536 11.65 5.27369 11.7199 5.44153C11.7865 5.60218 11.9288 5.74651 12.0869 5.89345C12.2848 6.07762 12.5094 6.25917 12.7021 6.44856C13.024 6.76595 13.25 7.11404 13.25 7.5ZM12.5969 7.5C12.5969 7.37722 12.5395 7.26816 12.4624 7.16171C12.3553 7.01412 12.209 6.87632 12.0562 6.73983C11.6755 6.39958 11.2692 6.06064 11.1164 5.6923C10.9584 5.31026 11.0008 4.77866 11.0276 4.26992C11.0387 4.0642 11.0452 3.86371 11.0178 3.68542C10.9989 3.56069 10.9656 3.44705 10.8846 3.36607C10.8029 3.28444 10.6893 3.25113 10.5646 3.23219C10.3863 3.20476 10.1858 3.21129 9.98008 3.2224C9.47134 3.24917 8.93974 3.29162 8.55835 3.13358C8.18937 2.98076 7.85042 2.5752 7.51017 2.19381C7.37368 2.04099 7.23588 1.89471 7.08829 1.7876C6.98184 1.71054 6.87278 1.65307 6.75 1.65307C6.62788 1.65307 6.51816 1.71054 6.41171 1.7876C6.26412 1.89471 6.12632 2.04099 5.98983 2.19381C5.64958 2.5752 5.31064 2.98076 4.94165 3.13358C4.56026 3.29162 4.02866 3.24917 3.51992 3.2224C3.3142 3.21129 3.11371 3.20476 2.93542 3.23219C2.81003 3.25113 2.69705 3.28444 2.61542 3.36607C2.53378 3.44705 2.50113 3.56069 2.48219 3.68542C2.45476 3.86371 2.46129 4.0642 2.47174 4.26992C2.49917 4.77866 2.54162 5.31026 2.38358 5.69165C2.23076 6.06064 1.8252 6.39958 1.44381 6.73983C1.29099 6.87632 1.14471 7.01412 1.0376 7.16171C0.96054 7.26816 0.903069 7.37722 0.903069 7.5C0.903069 7.62278 0.96054 7.73184 1.0376 7.83829C1.14471 7.98588 1.29099 8.12368 1.44381 8.26017C1.8252 8.60042 2.23076 8.93937 2.38358 9.30835C2.54162 9.68974 2.49917 10.2213 2.47174 10.7301C2.46129 10.9358 2.45476 11.1363 2.48219 11.3146C2.50113 11.4393 2.53378 11.553 2.61542 11.6339C2.69705 11.7156 2.81003 11.7489 2.93542 11.7678C3.11371 11.7952 3.3142 11.7887 3.51992 11.7776C4.02866 11.7508 4.56026 11.7084 4.94165 11.8664C5.31064 12.0192 5.64958 12.4248 5.98983 12.8062C6.12632 12.959 6.26412 13.1053 6.41171 13.2124C6.51816 13.2895 6.62788 13.3469 6.75 13.3469C6.87278 13.3469 6.98184 13.2895 7.08829 13.2124C7.23588 13.1053 7.37368 12.959 7.51017 12.8062C7.85042 12.4248 8.18937 12.0192 8.55835 11.8664C8.93974 11.7084 9.47134 11.7508 9.98008 11.7776C10.1858 11.7887 10.3863 11.7952 10.5646 11.7678C10.6893 11.7489 10.8029 11.7156 10.8846 11.6339C10.9656 11.553 10.9989 11.4393 11.0178 11.3146C11.0452 11.1363 11.0387 10.9358 11.0276 10.7301C11.0008 10.2213 10.9584 9.68974 11.1164 9.3077C11.2692 8.93937 11.6755 8.60042 12.0562 8.26017C12.209 8.12368 12.3553 7.98588 12.4624 7.83829C12.5395 7.73184 12.5969 7.62278 12.5969 7.5ZM5.71946 6.34929C5.65788 6.41083 5.58479 6.45963 5.50435 6.49292C5.42391 6.5262 5.3377 6.54332 5.25065 6.54329C5.1636 6.54326 5.0774 6.52608 4.99699 6.49274C4.91657 6.4594 4.84351 6.41054 4.78198 6.34897C4.72044 6.28739 4.67164 6.21429 4.63835 6.13386C4.60507 6.05342 4.58795 5.96721 4.58798 5.88016C4.58801 5.7931 4.60519 5.70691 4.63853 5.62649C4.67187 5.54608 4.72073 5.47302 4.7823 5.41148C4.90666 5.28721 5.0753 5.21743 5.25111 5.21749C5.42692 5.21755 5.59551 5.28745 5.71978 5.41181C5.84406 5.53617 5.91384 5.70481 5.91378 5.88062C5.91372 6.05643 5.84382 6.22502 5.71946 6.34929ZM8.63933 5.14895C8.70092 5.08947 8.7834 5.05656 8.86902 5.0573C8.95463 5.05804 9.03653 5.09239 9.09707 5.15293C9.15762 5.21347 9.19196 5.29537 9.1927 5.38099C9.19345 5.4666 9.16053 5.54909 9.10105 5.61067L4.86067 9.85105C4.79909 9.91053 4.7166 9.94345 4.63099 9.9427C4.54537 9.94196 4.46347 9.90762 4.40293 9.84707C4.34239 9.78653 4.30804 9.70463 4.3073 9.61902C4.30656 9.5334 4.33947 9.45092 4.39895 9.38933L8.63933 5.14895ZM7.78054 8.65136C7.84212 8.58983 7.91522 8.54102 7.99565 8.50774C8.07609 8.47445 8.1623 8.45734 8.24935 8.45737C8.33641 8.4574 8.4226 8.47457 8.50302 8.50792C8.58343 8.54126 8.65649 8.59011 8.71803 8.65169C8.77956 8.71327 8.82836 8.78636 8.86165 8.8668C8.89494 8.94724 8.91205 9.03344 8.91202 9.1205C8.91199 9.20755 8.89481 9.29375 8.86147 9.37416C8.82813 9.45458 8.77928 9.52764 8.7177 9.58917C8.59334 9.71344 8.4247 9.78323 8.24889 9.78317C8.07308 9.7831 7.90449 9.7132 7.78022 9.58884C7.65594 9.46448 7.58616 9.29585 7.58622 9.12004C7.58628 8.94422 7.65618 8.77564 7.78054 8.65136Z"/>
</mask>
<path d="M13.25 7.5C13.25 7.88596 13.024 8.23405 12.7021 8.55144C12.5094 8.74083 12.2848 8.92239 12.0869 9.10655C11.9288 9.25349 11.7865 9.39782 11.7199 9.55848C11.65 9.72631 11.6454 9.93464 11.6513 10.1547C11.6585 10.4264 11.6879 10.7131 11.6898 10.9809C11.6937 11.4321 11.6095 11.8325 11.3463 12.0963C11.0825 12.3595 10.6821 12.4437 10.2309 12.4398C9.9631 12.4372 9.6764 12.4085 9.40538 12.4013C9.1853 12.3954 8.97631 12.4 8.80848 12.4699C8.64782 12.5365 8.50349 12.6788 8.35655 12.8369C8.17239 13.0348 7.99083 13.2594 7.80144 13.4514C7.48405 13.774 7.13596 14 6.75 14C6.36404 14 6.01595 13.774 5.69856 13.4514C5.50917 13.2594 5.32762 13.0348 5.14345 12.8369C4.99651 12.6788 4.85153 12.5365 4.69153 12.4699C4.52369 12.4 4.3147 12.3954 4.09527 12.4013C3.8236 12.4085 3.5369 12.4372 3.26914 12.4398C2.81787 12.4437 2.41688 12.3595 2.1537 12.0963C1.88986 11.8325 1.80626 11.4321 1.81018 10.9809C1.81214 10.7131 1.84153 10.4264 1.84871 10.1547C1.85459 9.93464 1.85002 9.72631 1.78014 9.55782C1.71353 9.39782 1.57116 9.25349 1.41312 9.10655C1.21589 8.92239 0.991234 8.74083 0.798579 8.55144C0.476615 8.23405 0.25 7.88596 0.25 7.5C0.25 7.11404 0.476615 6.76595 0.798579 6.44856C0.991234 6.25917 1.21589 6.07762 1.41312 5.89345C1.57116 5.74651 1.71353 5.60218 1.78014 5.44218C1.85002 5.27369 1.85459 5.06536 1.84871 4.84527C1.84153 4.5736 1.81214 4.2869 1.81018 4.01914C1.80626 3.56787 1.88986 3.16754 2.1537 2.9037C2.41688 2.64051 2.81787 2.55626 3.26914 2.56018C3.5369 2.5628 3.8236 2.59153 4.09527 2.59871C4.3147 2.60459 4.52369 2.60002 4.69153 2.53014C4.85153 2.46353 4.99651 2.32116 5.14345 2.16312C5.32762 1.96524 5.50917 1.74058 5.69856 1.54858C6.01595 1.22596 6.36404 1 6.75 1C7.13596 1 7.48405 1.22596 7.80144 1.54858C7.99083 1.74058 8.17239 1.96524 8.35655 2.16312C8.50349 2.32116 8.64782 2.46353 8.80848 2.53014C8.97631 2.60002 9.1853 2.60459 9.40538 2.59871C9.6764 2.59153 9.9631 2.5628 10.2309 2.56018C10.6821 2.55626 11.0825 2.64051 11.3463 2.9037C11.6095 3.16754 11.6937 3.56787 11.6898 4.01914C11.6879 4.2869 11.6585 4.5736 11.6513 4.84527C11.6454 5.06536 11.65 5.27369 11.7199 5.44153C11.7865 5.60218 11.9288 5.74651 12.0869 5.89345C12.2848 6.07762 12.5094 6.25917 12.7021 6.44856C13.024 6.76595 13.25 7.11404 13.25 7.5ZM12.5969 7.5C12.5969 7.37722 12.5395 7.26816 12.4624 7.16171C12.3553 7.01412 12.209 6.87632 12.0562 6.73983C11.6755 6.39958 11.2692 6.06064 11.1164 5.6923C10.9584 5.31026 11.0008 4.77866 11.0276 4.26992C11.0387 4.0642 11.0452 3.86371 11.0178 3.68542C10.9989 3.56069 10.9656 3.44705 10.8846 3.36607C10.8029 3.28444 10.6893 3.25113 10.5646 3.23219C10.3863 3.20476 10.1858 3.21129 9.98008 3.2224C9.47134 3.24917 8.93974 3.29162 8.55835 3.13358C8.18937 2.98076 7.85042 2.5752 7.51017 2.19381C7.37368 2.04099 7.23588 1.89471 7.08829 1.7876C6.98184 1.71054 6.87278 1.65307 6.75 1.65307C6.62788 1.65307 6.51816 1.71054 6.41171 1.7876C6.26412 1.89471 6.12632 2.04099 5.98983 2.19381C5.64958 2.5752 5.31064 2.98076 4.94165 3.13358C4.56026 3.29162 4.02866 3.24917 3.51992 3.2224C3.3142 3.21129 3.11371 3.20476 2.93542 3.23219C2.81003 3.25113 2.69705 3.28444 2.61542 3.36607C2.53378 3.44705 2.50113 3.56069 2.48219 3.68542C2.45476 3.86371 2.46129 4.0642 2.47174 4.26992C2.49917 4.77866 2.54162 5.31026 2.38358 5.69165C2.23076 6.06064 1.8252 6.39958 1.44381 6.73983C1.29099 6.87632 1.14471 7.01412 1.0376 7.16171C0.96054 7.26816 0.903069 7.37722 0.903069 7.5C0.903069 7.62278 0.96054 7.73184 1.0376 7.83829C1.14471 7.98588 1.29099 8.12368 1.44381 8.26017C1.8252 8.60042 2.23076 8.93937 2.38358 9.30835C2.54162 9.68974 2.49917 10.2213 2.47174 10.7301C2.46129 10.9358 2.45476 11.1363 2.48219 11.3146C2.50113 11.4393 2.53378 11.553 2.61542 11.6339C2.69705 11.7156 2.81003 11.7489 2.93542 11.7678C3.11371 11.7952 3.3142 11.7887 3.51992 11.7776C4.02866 11.7508 4.56026 11.7084 4.94165 11.8664C5.31064 12.0192 5.64958 12.4248 5.98983 12.8062C6.12632 12.959 6.26412 13.1053 6.41171 13.2124C6.51816 13.2895 6.62788 13.3469 6.75 13.3469C6.87278 13.3469 6.98184 13.2895 7.08829 13.2124C7.23588 13.1053 7.37368 12.959 7.51017 12.8062C7.85042 12.4248 8.18937 12.0192 8.55835 11.8664C8.93974 11.7084 9.47134 11.7508 9.98008 11.7776C10.1858 11.7887 10.3863 11.7952 10.5646 11.7678C10.6893 11.7489 10.8029 11.7156 10.8846 11.6339C10.9656 11.553 10.9989 11.4393 11.0178 11.3146C11.0452 11.1363 11.0387 10.9358 11.0276 10.7301C11.0008 10.2213 10.9584 9.68974 11.1164 9.3077C11.2692 8.93937 11.6755 8.60042 12.0562 8.26017C12.209 8.12368 12.3553 7.98588 12.4624 7.83829C12.5395 7.73184 12.5969 7.62278 12.5969 7.5ZM5.71946 6.34929C5.65788 6.41083 5.58479 6.45963 5.50435 6.49292C5.42391 6.5262 5.3377 6.54332 5.25065 6.54329C5.1636 6.54326 5.0774 6.52608 4.99699 6.49274C4.91657 6.4594 4.84351 6.41054 4.78198 6.34897C4.72044 6.28739 4.67164 6.21429 4.63835 6.13386C4.60507 6.05342 4.58795 5.96721 4.58798 5.88016C4.58801 5.7931 4.60519 5.70691 4.63853 5.62649C4.67187 5.54608 4.72073 5.47302 4.7823 5.41148C4.90666 5.28721 5.0753 5.21743 5.25111 5.21749C5.42692 5.21755 5.59551 5.28745 5.71978 5.41181C5.84406 5.53617 5.91384 5.70481 5.91378 5.88062C5.91372 6.05643 5.84382 6.22502 5.71946 6.34929ZM8.63933 5.14895C8.70092 5.08947 8.7834 5.05656 8.86902 5.0573C8.95463 5.05804 9.03653 5.09239 9.09707 5.15293C9.15762 5.21347 9.19196 5.29537 9.1927 5.38099C9.19345 5.4666 9.16053 5.54909 9.10105 5.61067L4.86067 9.85105C4.79909 9.91053 4.7166 9.94345 4.63099 9.9427C4.54537 9.94196 4.46347 9.90762 4.40293 9.84707C4.34239 9.78653 4.30804 9.70463 4.3073 9.61902C4.30656 9.5334 4.33947 9.45092 4.39895 9.38933L8.63933 5.14895ZM7.78054 8.65136C7.84212 8.58983 7.91522 8.54102 7.99565 8.50774C8.07609 8.47445 8.1623 8.45734 8.24935 8.45737C8.33641 8.4574 8.4226 8.47457 8.50302 8.50792C8.58343 8.54126 8.65649 8.59011 8.71803 8.65169C8.77956 8.71327 8.82836 8.78636 8.86165 8.8668C8.89494 8.94724 8.91205 9.03344 8.91202 9.1205C8.91199 9.20755 8.89481 9.29375 8.86147 9.37416C8.82813 9.45458 8.77928 9.52764 8.7177 9.58917C8.59334 9.71344 8.4247 9.78323 8.24889 9.78317C8.07308 9.7831 7.90449 9.7132 7.78022 9.58884C7.65594 9.46448 7.58616 9.29585 7.58622 9.12004C7.58628 8.94422 7.65618 8.77564 7.78054 8.65136Z" fill="#2591B2"/>
<path d="M13.25 7.5C13.25 7.88596 13.024 8.23405 12.7021 8.55144C12.5094 8.74083 12.2848 8.92239 12.0869 9.10655C11.9288 9.25349 11.7865 9.39782 11.7199 9.55848C11.65 9.72631 11.6454 9.93464 11.6513 10.1547C11.6585 10.4264 11.6879 10.7131 11.6898 10.9809C11.6937 11.4321 11.6095 11.8325 11.3463 12.0963C11.0825 12.3595 10.6821 12.4437 10.2309 12.4398C9.9631 12.4372 9.6764 12.4085 9.40538 12.4013C9.1853 12.3954 8.97631 12.4 8.80848 12.4699C8.64782 12.5365 8.50349 12.6788 8.35655 12.8369C8.17239 13.0348 7.99083 13.2594 7.80144 13.4514C7.48405 13.774 7.13596 14 6.75 14C6.36404 14 6.01595 13.774 5.69856 13.4514C5.50917 13.2594 5.32762 13.0348 5.14345 12.8369C4.99651 12.6788 4.85153 12.5365 4.69153 12.4699C4.52369 12.4 4.3147 12.3954 4.09527 12.4013C3.8236 12.4085 3.5369 12.4372 3.26914 12.4398C2.81787 12.4437 2.41688 12.3595 2.1537 12.0963C1.88986 11.8325 1.80626 11.4321 1.81018 10.9809C1.81214 10.7131 1.84153 10.4264 1.84871 10.1547C1.85459 9.93464 1.85002 9.72631 1.78014 9.55782C1.71353 9.39782 1.57116 9.25349 1.41312 9.10655C1.21589 8.92239 0.991234 8.74083 0.798579 8.55144C0.476615 8.23405 0.25 7.88596 0.25 7.5C0.25 7.11404 0.476615 6.76595 0.798579 6.44856C0.991234 6.25917 1.21589 6.07762 1.41312 5.89345C1.57116 5.74651 1.71353 5.60218 1.78014 5.44218C1.85002 5.27369 1.85459 5.06536 1.84871 4.84527C1.84153 4.5736 1.81214 4.2869 1.81018 4.01914C1.80626 3.56787 1.88986 3.16754 2.1537 2.9037C2.41688 2.64051 2.81787 2.55626 3.26914 2.56018C3.5369 2.5628 3.8236 2.59153 4.09527 2.59871C4.3147 2.60459 4.52369 2.60002 4.69153 2.53014C4.85153 2.46353 4.99651 2.32116 5.14345 2.16312C5.32762 1.96524 5.50917 1.74058 5.69856 1.54858C6.01595 1.22596 6.36404 1 6.75 1C7.13596 1 7.48405 1.22596 7.80144 1.54858C7.99083 1.74058 8.17239 1.96524 8.35655 2.16312C8.50349 2.32116 8.64782 2.46353 8.80848 2.53014C8.97631 2.60002 9.1853 2.60459 9.40538 2.59871C9.6764 2.59153 9.9631 2.5628 10.2309 2.56018C10.6821 2.55626 11.0825 2.64051 11.3463 2.9037C11.6095 3.16754 11.6937 3.56787 11.6898 4.01914C11.6879 4.2869 11.6585 4.5736 11.6513 4.84527C11.6454 5.06536 11.65 5.27369 11.7199 5.44153C11.7865 5.60218 11.9288 5.74651 12.0869 5.89345C12.2848 6.07762 12.5094 6.25917 12.7021 6.44856C13.024 6.76595 13.25 7.11404 13.25 7.5ZM12.5969 7.5C12.5969 7.37722 12.5395 7.26816 12.4624 7.16171C12.3553 7.01412 12.209 6.87632 12.0562 6.73983C11.6755 6.39958 11.2692 6.06064 11.1164 5.6923C10.9584 5.31026 11.0008 4.77866 11.0276 4.26992C11.0387 4.0642 11.0452 3.86371 11.0178 3.68542C10.9989 3.56069 10.9656 3.44705 10.8846 3.36607C10.8029 3.28444 10.6893 3.25113 10.5646 3.23219C10.3863 3.20476 10.1858 3.21129 9.98008 3.2224C9.47134 3.24917 8.93974 3.29162 8.55835 3.13358C8.18937 2.98076 7.85042 2.5752 7.51017 2.19381C7.37368 2.04099 7.23588 1.89471 7.08829 1.7876C6.98184 1.71054 6.87278 1.65307 6.75 1.65307C6.62788 1.65307 6.51816 1.71054 6.41171 1.7876C6.26412 1.89471 6.12632 2.04099 5.98983 2.19381C5.64958 2.5752 5.31064 2.98076 4.94165 3.13358C4.56026 3.29162 4.02866 3.24917 3.51992 3.2224C3.3142 3.21129 3.11371 3.20476 2.93542 3.23219C2.81003 3.25113 2.69705 3.28444 2.61542 3.36607C2.53378 3.44705 2.50113 3.56069 2.48219 3.68542C2.45476 3.86371 2.46129 4.0642 2.47174 4.26992C2.49917 4.77866 2.54162 5.31026 2.38358 5.69165C2.23076 6.06064 1.8252 6.39958 1.44381 6.73983C1.29099 6.87632 1.14471 7.01412 1.0376 7.16171C0.96054 7.26816 0.903069 7.37722 0.903069 7.5C0.903069 7.62278 0.96054 7.73184 1.0376 7.83829C1.14471 7.98588 1.29099 8.12368 1.44381 8.26017C1.8252 8.60042 2.23076 8.93937 2.38358 9.30835C2.54162 9.68974 2.49917 10.2213 2.47174 10.7301C2.46129 10.9358 2.45476 11.1363 2.48219 11.3146C2.50113 11.4393 2.53378 11.553 2.61542 11.6339C2.69705 11.7156 2.81003 11.7489 2.93542 11.7678C3.11371 11.7952 3.3142 11.7887 3.51992 11.7776C4.02866 11.7508 4.56026 11.7084 4.94165 11.8664C5.31064 12.0192 5.64958 12.4248 5.98983 12.8062C6.12632 12.959 6.26412 13.1053 6.41171 13.2124C6.51816 13.2895 6.62788 13.3469 6.75 13.3469C6.87278 13.3469 6.98184 13.2895 7.08829 13.2124C7.23588 13.1053 7.37368 12.959 7.51017 12.8062C7.85042 12.4248 8.18937 12.0192 8.55835 11.8664C8.93974 11.7084 9.47134 11.7508 9.98008 11.7776C10.1858 11.7887 10.3863 11.7952 10.5646 11.7678C10.6893 11.7489 10.8029 11.7156 10.8846 11.6339C10.9656 11.553 10.9989 11.4393 11.0178 11.3146C11.0452 11.1363 11.0387 10.9358 11.0276 10.7301C11.0008 10.2213 10.9584 9.68974 11.1164 9.3077C11.2692 8.93937 11.6755 8.60042 12.0562 8.26017C12.209 8.12368 12.3553 7.98588 12.4624 7.83829C12.5395 7.73184 12.5969 7.62278 12.5969 7.5ZM5.71946 6.34929C5.65788 6.41083 5.58479 6.45963 5.50435 6.49292C5.42391 6.5262 5.3377 6.54332 5.25065 6.54329C5.1636 6.54326 5.0774 6.52608 4.99699 6.49274C4.91657 6.4594 4.84351 6.41054 4.78198 6.34897C4.72044 6.28739 4.67164 6.21429 4.63835 6.13386C4.60507 6.05342 4.58795 5.96721 4.58798 5.88016C4.58801 5.7931 4.60519 5.70691 4.63853 5.62649C4.67187 5.54608 4.72073 5.47302 4.7823 5.41148C4.90666 5.28721 5.0753 5.21743 5.25111 5.21749C5.42692 5.21755 5.59551 5.28745 5.71978 5.41181C5.84406 5.53617 5.91384 5.70481 5.91378 5.88062C5.91372 6.05643 5.84382 6.22502 5.71946 6.34929ZM8.63933 5.14895C8.70092 5.08947 8.7834 5.05656 8.86902 5.0573C8.95463 5.05804 9.03653 5.09239 9.09707 5.15293C9.15762 5.21347 9.19196 5.29537 9.1927 5.38099C9.19345 5.4666 9.16053 5.54909 9.10105 5.61067L4.86067 9.85105C4.79909 9.91053 4.7166 9.94345 4.63099 9.9427C4.54537 9.94196 4.46347 9.90762 4.40293 9.84707C4.34239 9.78653 4.30804 9.70463 4.3073 9.61902C4.30656 9.5334 4.33947 9.45092 4.39895 9.38933L8.63933 5.14895ZM7.78054 8.65136C7.84212 8.58983 7.91522 8.54102 7.99565 8.50774C8.07609 8.47445 8.1623 8.45734 8.24935 8.45737C8.33641 8.4574 8.4226 8.47457 8.50302 8.50792C8.58343 8.54126 8.65649 8.59011 8.71803 8.65169C8.77956 8.71327 8.82836 8.78636 8.86165 8.8668C8.89494 8.94724 8.91205 9.03344 8.91202 9.1205C8.91199 9.20755 8.89481 9.29375 8.86147 9.37416C8.82813 9.45458 8.77928 9.52764 8.7177 9.58917C8.59334 9.71344 8.4247 9.78323 8.24889 9.78317C8.07308 9.7831 7.90449 9.7132 7.78022 9.58884C7.65594 9.46448 7.58616 9.29585 7.58622 9.12004C7.58628 8.94422 7.65618 8.77564 7.78054 8.65136Z" stroke="#2591B2" stroke-width="0.4" mask="url(#path-1-outside-1_1_1349)"/>
</svg>
