<svg width="12" height="12" viewBox="0 0 12 12" fill="none" xmlns="http://www.w3.org/2000/svg">
<path d="M10.6667 0H1.33333C0.979711 0 0.640573 0.120408 0.390524 0.334735C0.140476 0.549062 0 0.839753 0 1.14286V9.14286C0 9.44596 0.140476 9.73665 0.390524 9.95098C0.640573 10.1653 0.979711 10.2857 1.33333 10.2857H4L6 12L8 10.2857H10.6667C11.4 10.2857 12 9.77143 12 9.14286V1.14286C12 0.514286 11.4 0 10.6667 0ZM10.6667 9.14286H7.44667L7.05333 9.48L6 10.3829L4.94 9.47429L4.55333 9.14286H1.33333V1.14286H10.6667V9.14286ZM5.33333 7.42857H6.66667V8.57143H5.33333V7.42857ZM6 2.85714C6.73333 2.85714 7.33333 3.37143 7.33333 4C7.33333 5.14286 5.33333 5 5.33333 6.85714H6.66667C6.66667 5.57143 8.66667 5.42857 8.66667 4C8.66667 2.73714 7.47333 1.71429 6 1.71429C4.52667 1.71429 3.33333 2.73714 3.33333 4H4.66667C4.66667 3.37143 5.26667 2.85714 6 2.85714Z" fill="#2591B2"/>
</svg>
