<svg width="10" height="13" viewBox="0 0 10 13" fill="none" xmlns="http://www.w3.org/2000/svg">
<path d="M5 2.925C5.42624 2.925 5.83502 3.0962 6.13642 3.40095C6.43782 3.7057 6.60714 4.11902 6.60714 4.55C6.60714 4.7634 6.56557 4.97471 6.48481 5.17186C6.40404 5.36901 6.28566 5.54815 6.13642 5.69905C5.98718 5.84994 5.81001 5.96964 5.61503 6.0513C5.42004 6.13297 5.21105 6.175 5 6.175C4.57376 6.175 4.16498 6.0038 3.86358 5.69905C3.56218 5.3943 3.39286 4.98098 3.39286 4.55C3.39286 4.11902 3.56218 3.7057 3.86358 3.40095C4.16498 3.0962 4.57376 2.925 5 2.925ZM5 0C6.19347 0 7.33807 0.479374 8.18198 1.33266C9.02589 2.18595 9.5 3.34326 9.5 4.55C9.5 7.9625 5 13 5 13C5 13 0.5 7.9625 0.5 4.55C0.5 3.34326 0.974106 2.18595 1.81802 1.33266C2.66193 0.479374 3.80653 0 5 0ZM5 1.3C4.14752 1.3 3.32995 1.64241 2.72716 2.2519C2.12436 2.8614 1.78571 3.68805 1.78571 4.55C1.78571 5.2 1.78571 6.5 5 10.8615C8.21429 6.5 8.21429 5.2 8.21429 4.55C8.21429 3.68805 7.87564 2.8614 7.27284 2.2519C6.67005 1.64241 5.85248 1.3 5 1.3Z" fill="#2591B2"/>
</svg>
