<svg width="12" height="13" viewBox="0 0 12 13" fill="none" xmlns="http://www.w3.org/2000/svg">
<path d="M9.7895 9.28572V6.06667C9.48394 6.12857 9.17839 6.19048 8.87283 6.19048H8.56727V9.90476H2.45616V5.57143C2.45616 3.8381 3.80061 2.47619 5.51172 2.47619C5.57283 1.67143 5.9395 0.990476 6.42839 0.433333C6.24505 0.185714 5.87839 0 5.51172 0C4.8395 0 4.2895 0.557143 4.2895 1.2381V1.42381C2.45616 1.98095 1.23394 3.65238 1.23394 5.57143V9.28572L0.0117188 10.5238V11.1429H11.0117V10.5238L9.7895 9.28572ZM4.2895 11.7619C4.2895 12.4429 4.8395 13 5.51172 13C6.18394 13 6.73394 12.4429 6.73394 11.7619H4.2895ZM11.0117 2.78571C11.0117 3.96191 10.0339 4.95238 8.87283 4.95238C7.71172 4.95238 6.73394 3.96191 6.73394 2.78571C6.73394 1.60952 7.71172 0.619048 8.87283 0.619048C10.0339 0.619048 11.0117 1.60952 11.0117 2.78571Z" fill="#2591B2"/>
</svg>
