<svg width="12" height="11" viewBox="0 0 12 11" fill="none" xmlns="http://www.w3.org/2000/svg">
<path d="M1.72222 4H0.5V10H11.5V4H10.5833M8.13889 3.4C8.37806 3.53578 8.58288 3.72288 8.73804 3.94731C8.8932 4.17174 8.9947 4.4277 9.03494 4.69605C9.07518 4.96441 9.05313 5.23823 8.97043 5.49704C8.88774 5.75585 8.74653 5.99297 8.55737 6.19067C8.36821 6.38837 8.13599 6.54154 7.87806 6.63873C7.62013 6.73592 7.34317 6.77462 7.06786 6.75194C6.79255 6.72926 6.52603 6.64578 6.2882 6.50774C6.05038 6.36971 5.8474 6.18069 5.69444 5.9548M6.61111 2.8C6.61111 3.27739 6.41796 3.73523 6.07414 4.07279C5.73032 4.41036 5.26401 4.6 4.77778 4.6C4.29155 4.6 3.82523 4.41036 3.48142 4.07279C3.1376 3.73523 2.94444 3.27739 2.94444 2.8C2.94444 2.32261 3.1376 1.86477 3.48142 1.52721C3.82523 1.18964 4.29155 1 4.77778 1C5.26401 1 5.73032 1.18964 6.07414 1.52721C6.41796 1.86477 6.61111 2.32261 6.61111 2.8Z" stroke="#2591B2" stroke-linecap="round" stroke-linejoin="round"/>
</svg>
